<svg width="197" height="197" viewBox="0 0 197 197" fill="none" xmlns="http://www.w3.org/2000/svg">
<rect x="1.5" y="1.5" width="194" height="194" rx="3.5" stroke="white" stroke-width="3"/>
<path d="M37.9394 171.64H39.8914L44.2114 183H41.9394L40.8834 180.168H36.9154L35.8754 183H33.6034L37.9394 171.64ZM40.4834 178.616L38.9154 174.152L37.2834 178.616H40.4834ZM48.4871 183.16C47.9111 183.16 47.3777 183.048 46.8871 182.824C46.3964 182.6 45.9751 182.291 45.6231 181.896C45.2711 181.501 44.9937 181.043 44.7911 180.52C44.5991 179.987 44.5031 179.416 44.5031 178.808C44.5031 178.2 44.5937 177.635 44.7751 177.112C44.9671 176.589 45.2284 176.131 45.5591 175.736C45.8897 175.341 46.2844 175.032 46.7431 174.808C47.2017 174.584 47.7031 174.472 48.2471 174.472C48.8657 174.472 49.4204 174.621 49.9111 174.92C50.4124 175.219 50.8017 175.608 51.0791 176.088V171.32H53.2231V180.536C53.2231 180.76 53.2604 180.92 53.3351 181.016C53.4097 181.112 53.5377 181.165 53.7191 181.176V183C53.3457 183.075 53.0417 183.112 52.8071 183.112C52.4231 183.112 52.1084 183.016 51.8631 182.824C51.6177 182.632 51.4791 182.381 51.4471 182.072L51.3991 181.544C51.0897 182.077 50.6684 182.483 50.1351 182.76C49.6124 183.027 49.0631 183.16 48.4871 183.16ZM49.0471 181.336C49.2497 181.336 49.4577 181.304 49.6711 181.24C49.8844 181.165 50.0817 181.064 50.2631 180.936C50.4444 180.808 50.6044 180.659 50.7431 180.488C50.8924 180.317 51.0044 180.131 51.0791 179.928V177.928C50.9937 177.693 50.8711 177.48 50.7111 177.288C50.5617 177.085 50.3857 176.915 50.1831 176.776C49.9911 176.627 49.7831 176.509 49.5591 176.424C49.3457 176.339 49.1324 176.296 48.9191 176.296C48.5991 176.296 48.3004 176.365 48.0231 176.504C47.7564 176.643 47.5271 176.835 47.3351 177.08C47.1431 177.315 46.9937 177.587 46.8871 177.896C46.7804 178.205 46.7271 178.525 46.7271 178.856C46.7271 179.208 46.7857 179.533 46.9031 179.832C47.0204 180.131 47.1804 180.392 47.3831 180.616C47.5857 180.84 47.8257 181.016 48.1031 181.144C48.3911 181.272 48.7057 181.336 49.0471 181.336ZM59.1996 183.16C58.5169 183.16 57.9036 183.043 57.3596 182.808C56.8156 182.573 56.3516 182.259 55.9676 181.864C55.5942 181.459 55.3062 180.995 55.1036 180.472C54.9009 179.949 54.7996 179.4 54.7996 178.824C54.7996 178.237 54.9009 177.683 55.1036 177.16C55.3062 176.637 55.5942 176.179 55.9676 175.784C56.3516 175.379 56.8156 175.059 57.3596 174.824C57.9036 174.589 58.5169 174.472 59.1996 174.472C59.8822 174.472 60.4902 174.589 61.0236 174.824C61.5676 175.059 62.0262 175.379 62.3996 175.784C62.7836 176.179 63.0769 176.637 63.2796 177.16C63.4822 177.683 63.5836 178.237 63.5836 178.824C63.5836 179.4 63.4822 179.949 63.2796 180.472C63.0769 180.995 62.7889 181.459 62.4156 181.864C62.0422 182.259 61.5836 182.573 61.0396 182.808C60.4956 183.043 59.8822 183.16 59.1996 183.16ZM57.0076 178.824C57.0076 179.197 57.0609 179.539 57.1676 179.848C57.2849 180.147 57.4396 180.408 57.6316 180.632C57.8342 180.856 58.0689 181.032 58.3356 181.16C58.6022 181.277 58.8902 181.336 59.1996 181.336C59.5089 181.336 59.7969 181.277 60.0636 181.16C60.3302 181.032 60.5596 180.856 60.7516 180.632C60.9542 180.408 61.1089 180.141 61.2156 179.832C61.3329 179.523 61.3916 179.181 61.3916 178.808C61.3916 178.445 61.3329 178.109 61.2156 177.8C61.1089 177.491 60.9542 177.224 60.7516 177C60.5596 176.776 60.3302 176.605 60.0636 176.488C59.7969 176.36 59.5089 176.296 59.1996 176.296C58.8902 176.296 58.6022 176.36 58.3356 176.488C58.0689 176.616 57.8342 176.792 57.6316 177.016C57.4396 177.24 57.2849 177.507 57.1676 177.816C57.0609 178.125 57.0076 178.461 57.0076 178.824ZM69.9453 182.568C69.6573 182.696 69.3053 182.824 68.8893 182.952C68.4733 183.08 68.036 183.144 67.5773 183.144C67.2786 183.144 66.996 183.107 66.7293 183.032C66.4733 182.957 66.244 182.84 66.0413 182.68C65.8493 182.509 65.6946 182.296 65.5773 182.04C65.46 181.773 65.4013 181.453 65.4013 181.08V176.264H64.2973V174.616H65.4013V171.896H67.5453V174.616H69.3053V176.264H67.5453V180.36C67.5453 180.659 67.62 180.872 67.7693 181C67.9293 181.117 68.1213 181.176 68.3453 181.176C68.5693 181.176 68.788 181.139 69.0013 181.064C69.2146 180.989 69.3853 180.925 69.5133 180.872L69.9453 182.568ZM74.7468 183.16C74.0748 183.16 73.4668 183.048 72.9228 182.824C72.3788 182.589 71.9148 182.275 71.5308 181.88C71.1468 181.485 70.8481 181.027 70.6348 180.504C70.4321 179.981 70.3308 179.432 70.3308 178.856C70.3308 178.259 70.4321 177.699 70.6348 177.176C70.8375 176.643 71.1308 176.179 71.5148 175.784C71.8988 175.379 72.3628 175.059 72.9068 174.824C73.4615 174.589 74.0801 174.472 74.7628 174.472C75.4455 174.472 76.0535 174.589 76.5868 174.824C77.1308 175.059 77.5895 175.373 77.9628 175.768C78.3468 176.163 78.6348 176.621 78.8268 177.144C79.0295 177.667 79.1308 178.211 79.1308 178.776C79.1308 178.915 79.1255 179.048 79.1148 179.176C79.1148 179.304 79.1041 179.411 79.0828 179.496H72.6028C72.6348 179.827 72.7148 180.12 72.8428 180.376C72.9708 180.632 73.1361 180.851 73.3388 181.032C73.5415 181.213 73.7708 181.352 74.0268 181.448C74.2828 181.544 74.5495 181.592 74.8268 181.592C75.2535 181.592 75.6535 181.491 76.0268 181.288C76.4108 181.075 76.6721 180.797 76.8108 180.456L78.6508 180.968C78.3415 181.608 77.8455 182.136 77.1628 182.552C76.4908 182.957 75.6855 183.16 74.7468 183.16ZM76.9228 178.104C76.8695 177.475 76.6348 176.973 76.2188 176.6C75.8135 176.216 75.3175 176.024 74.7308 176.024C74.4428 176.024 74.1708 176.077 73.9148 176.184C73.6695 176.28 73.4508 176.419 73.2588 176.6C73.0668 176.781 72.9068 177 72.7788 177.256C72.6615 177.512 72.5921 177.795 72.5708 178.104H76.9228ZM86.8407 183.16C85.9767 183.16 85.3207 182.883 84.8727 182.328C84.4247 181.773 84.2007 180.952 84.2007 179.864V174.616H86.3447V179.4C86.3447 180.691 86.8087 181.336 87.7367 181.336C88.1527 181.336 88.5527 181.213 88.9367 180.968C89.3314 180.712 89.6514 180.328 89.8967 179.816V174.616H92.0407V180.536C92.0407 180.76 92.078 180.92 92.1527 181.016C92.238 181.112 92.3714 181.165 92.5527 181.176V183C92.3394 183.043 92.158 183.069 92.0087 183.08C91.87 183.091 91.742 183.096 91.6247 183.096C91.2407 183.096 90.926 183.011 90.6807 182.84C90.446 182.659 90.3074 182.413 90.2647 182.104L90.2167 181.432C89.8434 182.008 89.3634 182.44 88.7767 182.728C88.19 183.016 87.5447 183.16 86.8407 183.16ZM107.195 183H105.051V178.296C105.051 177.624 104.934 177.133 104.699 176.824C104.475 176.515 104.161 176.36 103.755 176.36C103.329 176.36 102.929 176.525 102.555 176.856C102.182 177.176 101.915 177.597 101.755 178.12V183H99.6113V178.296C99.6113 177.624 99.494 177.133 99.2593 176.824C99.0353 176.515 98.7206 176.36 98.3153 176.36C97.8993 176.36 97.4993 176.52 97.1153 176.84C96.742 177.16 96.4753 177.581 96.3153 178.104V183H94.1713V174.616H96.1073V176.168C96.4166 175.624 96.838 175.208 97.3713 174.92C97.9153 174.621 98.534 174.472 99.2273 174.472C99.9313 174.472 100.475 174.643 100.859 174.984C101.243 175.325 101.489 175.747 101.595 176.248C101.937 175.672 102.369 175.235 102.891 174.936C103.414 174.627 104.011 174.472 104.683 174.472C105.195 174.472 105.617 174.568 105.947 174.76C106.278 174.952 106.534 175.203 106.715 175.512C106.897 175.821 107.019 176.173 107.083 176.568C107.158 176.963 107.195 177.363 107.195 177.768V183ZM111.35 183.16C110.945 183.16 110.566 183.096 110.214 182.968C109.862 182.829 109.558 182.643 109.302 182.408C109.046 182.163 108.843 181.88 108.694 181.56C108.555 181.24 108.486 180.888 108.486 180.504C108.486 180.109 108.571 179.747 108.742 179.416C108.923 179.075 109.169 178.787 109.478 178.552C109.798 178.317 110.177 178.136 110.614 178.008C111.051 177.869 111.531 177.8 112.054 177.8C112.427 177.8 112.79 177.832 113.142 177.896C113.505 177.96 113.825 178.051 114.102 178.168V177.688C114.102 177.133 113.942 176.707 113.622 176.408C113.313 176.109 112.849 175.96 112.23 175.96C111.782 175.96 111.345 176.04 110.918 176.2C110.491 176.36 110.054 176.595 109.606 176.904L108.95 175.544C110.027 174.829 111.19 174.472 112.438 174.472C113.643 174.472 114.577 174.771 115.238 175.368C115.91 175.955 116.246 176.808 116.246 177.928V180.536C116.246 180.76 116.283 180.92 116.358 181.016C116.443 181.112 116.577 181.165 116.758 181.176V183C116.395 183.075 116.081 183.112 115.814 183.112C115.409 183.112 115.094 183.021 114.87 182.84C114.657 182.659 114.523 182.419 114.47 182.12L114.422 181.656C114.049 182.147 113.595 182.52 113.062 182.776C112.529 183.032 111.958 183.16 111.35 183.16ZM111.958 181.592C112.321 181.592 112.662 181.528 112.982 181.4C113.313 181.272 113.569 181.101 113.75 180.888C113.985 180.707 114.102 180.504 114.102 180.28V179.32C113.846 179.224 113.569 179.149 113.27 179.096C112.971 179.032 112.683 179 112.406 179C111.851 179 111.398 179.128 111.046 179.384C110.694 179.629 110.518 179.944 110.518 180.328C110.518 180.691 110.657 180.995 110.934 181.24C111.211 181.475 111.553 181.592 111.958 181.592ZM121.565 178.808C121.565 178.221 121.667 177.667 121.869 177.144C122.072 176.621 122.365 176.163 122.749 175.768C123.133 175.373 123.597 175.059 124.141 174.824C124.685 174.589 125.299 174.472 125.981 174.472C126.899 174.472 127.677 174.669 128.317 175.064C128.968 175.459 129.453 175.976 129.773 176.616L127.677 177.256C127.496 176.947 127.256 176.712 126.957 176.552C126.659 176.381 126.328 176.296 125.965 176.296C125.656 176.296 125.368 176.36 125.101 176.488C124.835 176.605 124.6 176.776 124.397 177C124.205 177.213 124.051 177.475 123.933 177.784C123.827 178.093 123.773 178.435 123.773 178.808C123.773 179.181 123.832 179.523 123.949 179.832C124.067 180.141 124.221 180.408 124.413 180.632C124.616 180.856 124.851 181.032 125.117 181.16C125.384 181.277 125.667 181.336 125.965 181.336C126.349 181.336 126.701 181.24 127.021 181.048C127.352 180.856 127.581 180.621 127.709 180.344L129.805 180.984C129.517 181.624 129.043 182.147 128.381 182.552C127.72 182.957 126.925 183.16 125.997 183.16C125.315 183.16 124.701 183.043 124.157 182.808C123.613 182.573 123.149 182.259 122.765 181.864C122.381 181.459 122.083 180.995 121.869 180.472C121.667 179.939 121.565 179.384 121.565 178.808ZM136.116 176.472C135.466 176.483 134.884 176.611 134.372 176.856C133.86 177.091 133.492 177.448 133.268 177.928V183H131.124V174.616H133.092V176.408C133.242 176.12 133.418 175.864 133.62 175.64C133.823 175.405 134.042 175.203 134.276 175.032C134.511 174.861 134.746 174.733 134.98 174.648C135.226 174.552 135.46 174.504 135.684 174.504C135.802 174.504 135.887 174.504 135.94 174.504C136.004 174.504 136.063 174.509 136.116 174.52V176.472ZM137.312 183V174.616H139.456V183H137.312ZM137.312 173.448V171.32H139.456V173.448H137.312ZM143.678 183.16C143.273 183.16 142.894 183.096 142.542 182.968C142.19 182.829 141.886 182.643 141.63 182.408C141.374 182.163 141.171 181.88 141.022 181.56C140.883 181.24 140.814 180.888 140.814 180.504C140.814 180.109 140.899 179.747 141.07 179.416C141.251 179.075 141.497 178.787 141.806 178.552C142.126 178.317 142.505 178.136 142.942 178.008C143.379 177.869 143.859 177.8 144.382 177.8C144.755 177.8 145.118 177.832 145.47 177.896C145.833 177.96 146.153 178.051 146.43 178.168V177.688C146.43 177.133 146.27 176.707 145.95 176.408C145.641 176.109 145.177 175.96 144.558 175.96C144.11 175.96 143.673 176.04 143.246 176.2C142.819 176.36 142.382 176.595 141.934 176.904L141.278 175.544C142.355 174.829 143.518 174.472 144.766 174.472C145.971 174.472 146.905 174.771 147.566 175.368C148.238 175.955 148.574 176.808 148.574 177.928V180.536C148.574 180.76 148.611 180.92 148.686 181.016C148.771 181.112 148.905 181.165 149.086 181.176V183C148.723 183.075 148.409 183.112 148.142 183.112C147.737 183.112 147.422 183.021 147.198 182.84C146.985 182.659 146.851 182.419 146.798 182.12L146.75 181.656C146.377 182.147 145.923 182.52 145.39 182.776C144.857 183.032 144.286 183.16 143.678 183.16ZM144.286 181.592C144.649 181.592 144.99 181.528 145.31 181.4C145.641 181.272 145.897 181.101 146.078 180.888C146.313 180.707 146.43 180.504 146.43 180.28V179.32C146.174 179.224 145.897 179.149 145.598 179.096C145.299 179.032 145.011 179 144.734 179C144.179 179 143.726 179.128 143.374 179.384C143.022 179.629 142.846 179.944 142.846 180.328C142.846 180.691 142.985 180.995 143.262 181.24C143.539 181.475 143.881 181.592 144.286 181.592ZM158.37 183H156.226V178.296C156.226 177.624 156.108 177.133 155.874 176.824C155.639 176.515 155.314 176.36 154.898 176.36C154.684 176.36 154.466 176.403 154.242 176.488C154.018 176.573 153.804 176.696 153.602 176.856C153.41 177.005 153.234 177.187 153.074 177.4C152.914 177.613 152.796 177.848 152.722 178.104V183H150.578V174.616H152.514V176.168C152.823 175.635 153.271 175.219 153.858 174.92C154.444 174.621 155.106 174.472 155.842 174.472C156.364 174.472 156.791 174.568 157.122 174.76C157.452 174.952 157.708 175.203 157.89 175.512C158.071 175.821 158.194 176.173 158.258 176.568C158.332 176.963 158.37 177.363 158.37 177.768V183ZM162.858 185.032C162.986 185.107 163.183 185.176 163.45 185.24C163.716 185.304 163.994 185.336 164.282 185.336C164.559 185.336 164.778 185.293 164.938 185.208C165.098 185.133 165.178 185 165.178 184.808C165.178 184.616 165.098 184.477 164.938 184.392C164.788 184.317 164.591 184.28 164.346 184.28C164.122 184.28 163.882 184.301 163.626 184.344C163.38 184.397 163.194 184.44 163.066 184.472L163.738 183.144C163.108 183.101 162.543 182.957 162.042 182.712C161.551 182.456 161.13 182.131 160.778 181.736C160.436 181.341 160.17 180.893 159.978 180.392C159.796 179.891 159.706 179.363 159.706 178.808C159.706 178.221 159.807 177.667 160.01 177.144C160.212 176.621 160.506 176.163 160.89 175.768C161.274 175.373 161.738 175.059 162.282 174.824C162.826 174.589 163.439 174.472 164.122 174.472C165.039 174.472 165.818 174.669 166.458 175.064C167.108 175.459 167.594 175.976 167.914 176.616L165.818 177.256C165.636 176.947 165.396 176.712 165.098 176.552C164.799 176.381 164.468 176.296 164.106 176.296C163.796 176.296 163.508 176.36 163.242 176.488C162.975 176.605 162.74 176.776 162.538 177C162.346 177.213 162.191 177.475 162.074 177.784C161.967 178.093 161.914 178.435 161.914 178.808C161.914 179.181 161.972 179.523 162.09 179.832C162.207 180.141 162.362 180.408 162.554 180.632C162.756 180.856 162.991 181.032 163.258 181.16C163.524 181.277 163.807 181.336 164.106 181.336C164.49 181.336 164.842 181.24 165.162 181.048C165.492 180.856 165.722 180.621 165.85 180.344L167.946 180.984C167.679 181.56 167.263 182.045 166.698 182.44C166.132 182.824 165.45 183.053 164.65 183.128L164.314 183.672C164.388 183.651 164.468 183.635 164.554 183.624C164.65 183.613 164.74 183.608 164.826 183.608C165.199 183.608 165.519 183.693 165.786 183.864C166.052 184.045 166.186 184.333 166.186 184.728C166.186 185.133 166.015 185.469 165.674 185.736C165.343 186.003 164.831 186.136 164.138 186.136C163.786 186.136 163.466 186.104 163.178 186.04C162.89 185.976 162.639 185.901 162.426 185.816L162.858 185.032ZM171.553 183.16C171.148 183.16 170.769 183.096 170.417 182.968C170.065 182.829 169.761 182.643 169.505 182.408C169.249 182.163 169.046 181.88 168.897 181.56C168.758 181.24 168.689 180.888 168.689 180.504C168.689 180.109 168.774 179.747 168.945 179.416C169.126 179.075 169.372 178.787 169.681 178.552C170.001 178.317 170.38 178.136 170.817 178.008C171.254 177.869 171.734 177.8 172.257 177.8C172.63 177.8 172.993 177.832 173.345 177.896C173.708 177.96 174.028 178.051 174.305 178.168V177.688C174.305 177.133 174.145 176.707 173.825 176.408C173.516 176.109 173.052 175.96 172.433 175.96C171.985 175.96 171.548 176.04 171.121 176.2C170.694 176.36 170.257 176.595 169.809 176.904L169.153 175.544C170.23 174.829 171.393 174.472 172.641 174.472C173.846 174.472 174.78 174.771 175.441 175.368C176.113 175.955 176.449 176.808 176.449 177.928V180.536C176.449 180.76 176.486 180.92 176.561 181.016C176.646 181.112 176.78 181.165 176.961 181.176V183C176.598 183.075 176.284 183.112 176.017 183.112C175.612 183.112 175.297 183.021 175.073 182.84C174.86 182.659 174.726 182.419 174.673 182.12L174.625 181.656C174.252 182.147 173.798 182.52 173.265 182.776C172.732 183.032 172.161 183.16 171.553 183.16ZM172.161 181.592C172.524 181.592 172.865 181.528 173.185 181.4C173.516 181.272 173.772 181.101 173.953 180.888C174.188 180.707 174.305 180.504 174.305 180.28V179.32C174.049 179.224 173.772 179.149 173.473 179.096C173.174 179.032 172.886 179 172.609 179C172.054 179 171.601 179.128 171.249 179.384C170.897 179.629 170.721 179.944 170.721 180.328C170.721 180.691 170.86 180.995 171.137 181.24C171.414 181.475 171.756 181.592 172.161 181.592Z" fill="white"/>
</svg>
