<svg width="66" height="88" viewBox="0 0 66 88" fill="none" xmlns="http://www.w3.org/2000/svg">
<path fill-rule="evenodd" clip-rule="evenodd" d="M52.4148 0C59.9009 0 65.9999 6.08287 65.9999 13.5491C65.9999 20.9787 59.9009 27.0579 52.4148 27.0579C44.9288 27.0579 38.8701 20.9742 38.8701 13.5491C38.8701 6.08733 44.9288 0 52.4148 0ZM52.4148 2.27429C46.163 2.27429 41.1505 7.30938 41.1505 13.5491C41.1505 19.7449 46.163 24.7835 52.4148 24.7835C58.6666 24.7835 63.7195 19.7404 63.7195 13.5491C63.7195 7.31385 58.6666 2.27429 52.4148 2.27429Z" fill="white"/>
<path fill-rule="evenodd" clip-rule="evenodd" d="M60.3273 30.4592C63.3 30.4592 65.9204 32.882 65.7083 35.8969V35.9324L62.0022 82.7043C61.7567 85.5452 59.5511 88 56.6212 88H44.5408C41.5813 88 39.1599 85.585 39.1599 82.6333V52.7789L24.5849 69.1989L23.9079 69.9451L23.0882 69.3765L16.3175 64.7917V82.6688C16.3175 84.619 14.7093 86.2229 12.754 86.2229H5.87628C3.92845 86.2229 2.43622 84.5945 2.3127 82.7399L0.174568 56.0486C-0.00511318 53.9885 1.78681 52.3879 3.73814 52.3879H12.754H13.1816L13.5024 52.7078L21.3422 59.9226L43.6143 30.9212L43.9707 30.4591H44.5408L60.3273 30.4592ZM60.3273 32.7338H45.111L23.017 61.4865L25.9747 64.1876L44.22 43.6093L45.9305 45.1376L41.4406 50.1844V82.6333C41.4406 84.3562 42.8133 85.7255 44.5408 85.7255H56.6212C58.2975 85.7255 59.563 84.3605 59.7215 82.5267L63.4276 35.7548C63.5383 34.1756 62.0417 32.7338 60.3273 32.7338ZM12.2907 54.6626H3.73814C3.02679 54.6626 2.36561 55.2421 2.41968 55.8354H2.45504L4.59318 82.5624C4.66614 83.4447 4.92635 83.9206 5.87603 83.9484L12.7538 84.0275C13.7517 83.9975 14.0366 83.4314 14.0366 81.5668V63.2632L11.8272 61.7705L13.1101 59.8868L23.5513 66.924L24.4422 65.8932L12.2907 54.6626Z" fill="white"/>
<path fill-rule="evenodd" clip-rule="evenodd" d="M8.25158 30.4253C12.7901 30.4253 16.4628 34.1363 16.4628 38.655C16.4628 43.1736 12.7901 46.8847 8.25158 46.8847C3.67902 46.8847 0 43.1736 0 38.655C0 34.1363 3.67902 30.4253 8.25158 30.4253ZM8.25158 32.6996C4.90468 32.6996 2.2804 35.3557 2.2804 38.655C2.2804 41.9542 4.90468 44.6103 8.25158 44.6103C11.5518 44.6103 14.1824 41.9542 14.1824 38.655C14.1824 35.3557 11.5518 32.6996 8.25158 32.6996Z" fill="white"/>
</svg>
