<svg width="52" height="76" viewBox="0 0 52 76" fill="none" xmlns="http://www.w3.org/2000/svg">
<path d="M24.3419 42.6967H22.7161L22.7288 29.5135C22.6303 28.2559 23.0701 26.9953 23.9688 26.0267C24.8913 25.0312 26.2155 24.4596 27.5985 24.4596C30.3342 24.4596 32.4761 26.6793 32.4761 29.5135V42.6967H30.8502V29.5135C30.8502 27.5589 29.453 26.0855 27.5985 26.0855C26.6664 26.0855 25.7773 26.4665 25.1612 27.1318C24.5738 27.7653 24.2864 28.5894 24.3531 29.4515L24.3419 42.6967Z" fill="white"/>
<path d="M41.1121 42.6967H39.4862V31.1044C39.4862 29.2134 37.9508 27.6748 36.063 27.6748C34.118 27.6748 32.4762 29.2451 32.4762 31.1044V42.6967H30.8503V31.1044C30.8503 28.3639 33.2368 26.049 36.063 26.049C38.8463 26.049 41.1121 28.3163 41.1121 31.1044V42.6967Z" fill="white"/>
<path d="M24.1324 75.6729C24.1276 75.6126 23.5814 69.7092 20.3392 67.3689C19.6993 66.9973 13.515 63.2804 13.1863 60.135L11.6494 54.7382L4.23609 45.1545C0.976412 42.8284 0.136484 40.4578 0.00946293 38.8717C-0.0762764 37.8047 0.425457 36.7409 1.31778 36.0931C5.94135 32.727 11.2969 37.0426 13.8198 39.5782V17.0717C13.8198 14.1994 16.4524 11.3811 19.1357 11.3811C21.9778 11.3811 24.3801 13.7024 24.3801 16.4493L24.3578 42.6966H22.732L22.7542 16.4493C22.7542 14.6154 21.0632 13.007 19.1357 13.007C17.3431 13.007 15.4457 15.0965 15.4457 17.0717V43.9874L13.9993 42.1885C13.9326 42.1028 7.19728 33.8353 2.27362 37.4078C1.83539 37.7253 1.58929 38.2366 1.62898 38.7415C1.7306 39.9974 2.4451 41.9107 5.27132 43.8954L5.44756 44.0637L13.1705 54.1444L14.7773 59.8302C14.9869 61.726 18.8404 64.6062 21.2268 66.0098C25.1406 68.8296 25.7297 75.2617 25.7519 75.5348L24.1324 75.6729Z" fill="white"/>
<path d="M48.0441 75.7127C47.9108 74.7282 47.906 73.439 48.0299 71.883C48.1712 70.0809 48.5109 68.2279 49.0381 66.3782C49.9876 63.0359 50.4353 59.6588 50.367 56.3419C50.2162 49.0112 49.4112 43.9701 48.0981 42.1473L47.9457 41.9345V33.6035C47.9457 31.7189 46.4119 30.1851 44.5272 30.1851C42.641 30.1851 41.1072 31.7189 41.1072 33.6035V42.6967H39.4813V33.6035C39.4813 30.8218 41.7455 28.5592 44.5272 28.5592C47.309 28.5592 49.5716 30.8218 49.5716 33.6035V41.4233C51.0212 43.689 51.8357 48.6937 51.9929 56.307C52.0644 59.7874 51.596 63.3249 50.6004 66.8228C50.1035 68.5693 49.7843 70.3158 49.6494 72.0116C49.5351 73.4533 49.5366 74.625 49.6541 75.4935L48.0441 75.7127Z" fill="white"/>
<path d="M24.2404 24.8962L23.5418 23.4291C27.3762 21.6063 29.8547 17.5162 29.8547 13.007C29.8547 6.73213 25.1137 1.62587 19.2866 1.62587C13.4595 1.62587 8.7184 6.73213 8.7184 13.007C8.7184 17.5099 11.1906 21.5968 15.0155 23.4211L14.3169 24.8882C9.92828 22.7971 7.09253 18.1323 7.09253 13.007C7.09253 5.83504 12.5624 0 19.2866 0C26.0108 0 31.4806 5.83504 31.4806 13.007C31.4806 18.1402 28.6385 22.8083 24.2404 24.8962Z" fill="white"/>
</svg>
