<svg width="197" height="197" viewBox="0 0 197 197" fill="none" xmlns="http://www.w3.org/2000/svg">
<rect x="1.5" y="1.5" width="194" height="194" rx="3.5" stroke="white" stroke-width="3"/>
<path d="M45.184 183V171.64H49.312C50.24 171.64 51.0507 171.789 51.744 172.088C52.448 172.387 53.0347 172.792 53.504 173.304C53.9733 173.816 54.3253 174.419 54.56 175.112C54.7947 175.795 54.912 176.525 54.912 177.304C54.912 178.168 54.7787 178.952 54.512 179.656C54.256 180.349 53.8827 180.947 53.392 181.448C52.9013 181.939 52.3093 182.323 51.616 182.6C50.9333 182.867 50.1653 183 49.312 183H45.184ZM52.688 177.304C52.688 176.76 52.6133 176.259 52.464 175.8C52.3147 175.341 52.096 174.947 51.808 174.616C51.52 174.285 51.1627 174.029 50.736 173.848C50.32 173.667 49.8453 173.576 49.312 173.576H47.392V181.064H49.312C49.856 181.064 50.336 180.968 50.752 180.776C51.1787 180.584 51.5307 180.323 51.808 179.992C52.096 179.651 52.3147 179.251 52.464 178.792C52.6133 178.333 52.688 177.837 52.688 177.304ZM60.3011 183.16C59.6185 183.16 59.0051 183.043 58.4611 182.808C57.9171 182.573 57.4531 182.259 57.0691 181.864C56.6958 181.459 56.4078 180.995 56.2051 180.472C56.0025 179.949 55.9011 179.4 55.9011 178.824C55.9011 178.237 56.0025 177.683 56.2051 177.16C56.4078 176.637 56.6958 176.179 57.0691 175.784C57.4531 175.379 57.9171 175.059 58.4611 174.824C59.0051 174.589 59.6185 174.472 60.3011 174.472C60.9838 174.472 61.5918 174.589 62.1251 174.824C62.6691 175.059 63.1278 175.379 63.5011 175.784C63.8851 176.179 64.1785 176.637 64.3811 177.16C64.5838 177.683 64.6851 178.237 64.6851 178.824C64.6851 179.4 64.5838 179.949 64.3811 180.472C64.1785 180.995 63.8905 181.459 63.5171 181.864C63.1438 182.259 62.6851 182.573 62.1411 182.808C61.5971 183.043 60.9838 183.16 60.3011 183.16ZM58.1091 178.824C58.1091 179.197 58.1625 179.539 58.2691 179.848C58.3865 180.147 58.5411 180.408 58.7331 180.632C58.9358 180.856 59.1705 181.032 59.4371 181.16C59.7038 181.277 59.9918 181.336 60.3011 181.336C60.6105 181.336 60.8985 181.277 61.1651 181.16C61.4318 181.032 61.6611 180.856 61.8531 180.632C62.0558 180.408 62.2105 180.141 62.3171 179.832C62.4345 179.523 62.4931 179.181 62.4931 178.808C62.4931 178.445 62.4345 178.109 62.3171 177.8C62.2105 177.491 62.0558 177.224 61.8531 177C61.6611 176.776 61.4318 176.605 61.1651 176.488C60.8985 176.36 60.6105 176.296 60.3011 176.296C59.9918 176.296 59.7038 176.36 59.4371 176.488C59.1705 176.616 58.9358 176.792 58.7331 177.016C58.5411 177.24 58.3865 177.507 58.2691 177.816C58.1625 178.125 58.1091 178.461 58.1091 178.824ZM68.4203 183.16C68.0149 183.16 67.6363 183.096 67.2843 182.968C66.9323 182.829 66.6283 182.643 66.3723 182.408C66.1163 182.163 65.9136 181.88 65.7643 181.56C65.6256 181.24 65.5563 180.888 65.5563 180.504C65.5563 180.109 65.6416 179.747 65.8123 179.416C65.9936 179.075 66.2389 178.787 66.5483 178.552C66.8683 178.317 67.2469 178.136 67.6843 178.008C68.1216 177.869 68.6016 177.8 69.1243 177.8C69.4976 177.8 69.8603 177.832 70.2123 177.896C70.5749 177.96 70.8949 178.051 71.1723 178.168V177.688C71.1723 177.133 71.0123 176.707 70.6923 176.408C70.3829 176.109 69.9189 175.96 69.3003 175.96C68.8523 175.96 68.4149 176.04 67.9883 176.2C67.5616 176.36 67.1243 176.595 66.6763 176.904L66.0203 175.544C67.0976 174.829 68.2603 174.472 69.5083 174.472C70.7136 174.472 71.6469 174.771 72.3083 175.368C72.9803 175.955 73.3163 176.808 73.3163 177.928V180.536C73.3163 180.76 73.3536 180.92 73.4283 181.016C73.5136 181.112 73.6469 181.165 73.8283 181.176V183C73.4656 183.075 73.1509 183.112 72.8843 183.112C72.4789 183.112 72.1643 183.021 71.9403 182.84C71.7269 182.659 71.5936 182.419 71.5403 182.12L71.4923 181.656C71.1189 182.147 70.6656 182.52 70.1323 182.776C69.5989 183.032 69.0283 183.16 68.4203 183.16ZM69.0283 181.592C69.3909 181.592 69.7323 181.528 70.0523 181.4C70.3829 181.272 70.6389 181.101 70.8203 180.888C71.0549 180.707 71.1723 180.504 71.1723 180.28V179.32C70.9163 179.224 70.6389 179.149 70.3403 179.096C70.0416 179.032 69.7536 179 69.4763 179C68.9216 179 68.4683 179.128 68.1163 179.384C67.7643 179.629 67.5883 179.944 67.5883 180.328C67.5883 180.691 67.7269 180.995 68.0043 181.24C68.2816 181.475 68.6229 181.592 69.0283 181.592ZM77.9438 185.032C78.0718 185.107 78.2691 185.176 78.5358 185.24C78.8024 185.304 79.0798 185.336 79.3678 185.336C79.6451 185.336 79.8638 185.293 80.0238 185.208C80.1838 185.133 80.2638 185 80.2638 184.808C80.2638 184.616 80.1838 184.477 80.0238 184.392C79.8744 184.317 79.6771 184.28 79.4318 184.28C79.2078 184.28 78.9678 184.301 78.7118 184.344C78.4664 184.397 78.2798 184.44 78.1518 184.472L78.8238 183.144C78.1944 183.101 77.6291 182.957 77.1278 182.712C76.6371 182.456 76.2158 182.131 75.8638 181.736C75.5224 181.341 75.2558 180.893 75.0638 180.392C74.8824 179.891 74.7918 179.363 74.7918 178.808C74.7918 178.221 74.8931 177.667 75.0958 177.144C75.2984 176.621 75.5918 176.163 75.9758 175.768C76.3598 175.373 76.8238 175.059 77.3678 174.824C77.9118 174.589 78.5251 174.472 79.2078 174.472C80.1251 174.472 80.9038 174.669 81.5438 175.064C82.1944 175.459 82.6798 175.976 82.9998 176.616L80.9038 177.256C80.7224 176.947 80.4824 176.712 80.1838 176.552C79.8851 176.381 79.5544 176.296 79.1918 176.296C78.8824 176.296 78.5944 176.36 78.3278 176.488C78.0611 176.605 77.8264 176.776 77.6238 177C77.4318 177.213 77.2771 177.475 77.1598 177.784C77.0531 178.093 76.9998 178.435 76.9998 178.808C76.9998 179.181 77.0584 179.523 77.1758 179.832C77.2931 180.141 77.4478 180.408 77.6398 180.632C77.8424 180.856 78.0771 181.032 78.3438 181.16C78.6104 181.277 78.8931 181.336 79.1918 181.336C79.5758 181.336 79.9278 181.24 80.2478 181.048C80.5784 180.856 80.8078 180.621 80.9358 180.344L83.0318 180.984C82.7651 181.56 82.3491 182.045 81.7838 182.44C81.2184 182.824 80.5358 183.053 79.7358 183.128L79.3998 183.672C79.4744 183.651 79.5544 183.635 79.6398 183.624C79.7358 183.613 79.8264 183.608 79.9118 183.608C80.2851 183.608 80.6051 183.693 80.8718 183.864C81.1384 184.045 81.2718 184.333 81.2718 184.728C81.2718 185.133 81.1011 185.469 80.7598 185.736C80.4291 186.003 79.9171 186.136 79.2238 186.136C78.8718 186.136 78.5518 186.104 78.2638 186.04C77.9758 185.976 77.7251 185.901 77.5118 185.816L77.9438 185.032ZM86.639 183.16C86.2337 183.16 85.855 183.096 85.503 182.968C85.151 182.829 84.847 182.643 84.591 182.408C84.335 182.163 84.1323 181.88 83.983 181.56C83.8443 181.24 83.775 180.888 83.775 180.504C83.775 180.109 83.8603 179.747 84.031 179.416C84.2123 179.075 84.4577 178.787 84.767 178.552C85.087 178.317 85.4657 178.136 85.903 178.008C86.3403 177.869 86.8203 177.8 87.343 177.8C87.7163 177.8 88.079 177.832 88.431 177.896C88.7937 177.96 89.1137 178.051 89.391 178.168V177.688C89.391 177.133 89.231 176.707 88.911 176.408C88.6017 176.109 88.1377 175.96 87.519 175.96C87.071 175.96 86.6337 176.04 86.207 176.2C85.7803 176.36 85.343 176.595 84.895 176.904L84.239 175.544C85.3163 174.829 86.479 174.472 87.727 174.472C88.9323 174.472 89.8657 174.771 90.527 175.368C91.199 175.955 91.535 176.808 91.535 177.928V180.536C91.535 180.76 91.5723 180.92 91.647 181.016C91.7323 181.112 91.8657 181.165 92.047 181.176V183C91.6843 183.075 91.3697 183.112 91.103 183.112C90.6977 183.112 90.383 183.021 90.159 182.84C89.9457 182.659 89.8123 182.419 89.759 182.12L89.711 181.656C89.3377 182.147 88.8843 182.52 88.351 182.776C87.8177 183.032 87.247 183.16 86.639 183.16ZM87.247 181.592C87.6097 181.592 87.951 181.528 88.271 181.4C88.6017 181.272 88.8577 181.101 89.039 180.888C89.2737 180.707 89.391 180.504 89.391 180.28V179.32C89.135 179.224 88.8577 179.149 88.559 179.096C88.2603 179.032 87.9723 179 87.695 179C87.1403 179 86.687 179.128 86.335 179.384C85.983 179.629 85.807 179.944 85.807 180.328C85.807 180.691 85.9457 180.995 86.223 181.24C86.5003 181.475 86.8417 181.592 87.247 181.592ZM88.735 173.368C88.4897 173.368 88.2763 173.331 88.095 173.256C87.9137 173.181 87.743 173.101 87.583 173.016C87.4337 172.92 87.279 172.835 87.119 172.76C86.9697 172.685 86.8097 172.648 86.639 172.648C86.4577 172.648 86.3137 172.685 86.207 172.76C86.111 172.835 86.0363 172.92 85.983 173.016C85.9297 173.112 85.8977 173.203 85.887 173.288C85.8763 173.363 85.871 173.405 85.871 173.416H84.687C84.687 173.32 84.719 173.16 84.783 172.936C84.847 172.701 84.9483 172.472 85.087 172.248C85.2363 172.013 85.4283 171.811 85.663 171.64C85.9083 171.459 86.207 171.368 86.559 171.368C86.8043 171.368 87.0123 171.411 87.183 171.496C87.3643 171.571 87.5297 171.656 87.679 171.752C87.839 171.837 87.9937 171.923 88.143 172.008C88.303 172.083 88.479 172.12 88.671 172.12C88.863 172.12 89.0123 172.083 89.119 172.008C89.2363 171.933 89.3217 171.848 89.375 171.752C89.439 171.656 89.4763 171.565 89.487 171.48C89.5083 171.395 89.519 171.341 89.519 171.32H90.703C90.703 171.395 90.671 171.544 90.607 171.768C90.543 171.992 90.431 172.221 90.271 172.456C90.1217 172.691 89.919 172.904 89.663 173.096C89.4177 173.277 89.1083 173.368 88.735 173.368ZM97.4105 183.16C96.7278 183.16 96.1145 183.043 95.5705 182.808C95.0265 182.573 94.5625 182.259 94.1785 181.864C93.8052 181.459 93.5172 180.995 93.3145 180.472C93.1118 179.949 93.0105 179.4 93.0105 178.824C93.0105 178.237 93.1118 177.683 93.3145 177.16C93.5172 176.637 93.8052 176.179 94.1785 175.784C94.5625 175.379 95.0265 175.059 95.5705 174.824C96.1145 174.589 96.7278 174.472 97.4105 174.472C98.0932 174.472 98.7012 174.589 99.2345 174.824C99.7785 175.059 100.237 175.379 100.611 175.784C100.995 176.179 101.288 176.637 101.491 177.16C101.693 177.683 101.795 178.237 101.795 178.824C101.795 179.4 101.693 179.949 101.491 180.472C101.288 180.995 101 181.459 100.627 181.864C100.253 182.259 99.7945 182.573 99.2505 182.808C98.7065 183.043 98.0932 183.16 97.4105 183.16ZM95.2185 178.824C95.2185 179.197 95.2718 179.539 95.3785 179.848C95.4958 180.147 95.6505 180.408 95.8425 180.632C96.0452 180.856 96.2798 181.032 96.5465 181.16C96.8132 181.277 97.1012 181.336 97.4105 181.336C97.7198 181.336 98.0078 181.277 98.2745 181.16C98.5412 181.032 98.7705 180.856 98.9625 180.632C99.1652 180.408 99.3198 180.141 99.4265 179.832C99.5438 179.523 99.6025 179.181 99.6025 178.808C99.6025 178.445 99.5438 178.109 99.4265 177.8C99.3198 177.491 99.1652 177.224 98.9625 177C98.7705 176.776 98.5412 176.605 98.2745 176.488C98.0078 176.36 97.7198 176.296 97.4105 176.296C97.1012 176.296 96.8132 176.36 96.5465 176.488C96.2798 176.616 96.0452 176.792 95.8425 177.016C95.6505 177.24 95.4958 177.507 95.3785 177.816C95.2718 178.125 95.2185 178.461 95.2185 178.824ZM120.109 183H117.965V178.296C117.965 177.624 117.848 177.133 117.613 176.824C117.389 176.515 117.075 176.36 116.669 176.36C116.243 176.36 115.843 176.525 115.469 176.856C115.096 177.176 114.829 177.597 114.669 178.12V183H112.525V178.296C112.525 177.624 112.408 177.133 112.173 176.824C111.949 176.515 111.635 176.36 111.229 176.36C110.813 176.36 110.413 176.52 110.029 176.84C109.656 177.16 109.389 177.581 109.229 178.104V183H107.085V174.616H109.021V176.168C109.331 175.624 109.752 175.208 110.285 174.92C110.829 174.621 111.448 174.472 112.141 174.472C112.845 174.472 113.389 174.643 113.773 174.984C114.157 175.325 114.403 175.747 114.509 176.248C114.851 175.672 115.283 175.235 115.805 174.936C116.328 174.627 116.925 174.472 117.597 174.472C118.109 174.472 118.531 174.568 118.861 174.76C119.192 174.952 119.448 175.203 119.629 175.512C119.811 175.821 119.933 176.173 119.997 176.568C120.072 176.963 120.109 177.363 120.109 177.768V183ZM125.864 183.16C125.192 183.16 124.584 183.048 124.04 182.824C123.496 182.589 123.032 182.275 122.648 181.88C122.264 181.485 121.965 181.027 121.752 180.504C121.549 179.981 121.448 179.432 121.448 178.856C121.448 178.259 121.549 177.699 121.752 177.176C121.955 176.643 122.248 176.179 122.632 175.784C123.016 175.379 123.48 175.059 124.024 174.824C124.579 174.589 125.197 174.472 125.88 174.472C126.563 174.472 127.171 174.589 127.704 174.824C128.248 175.059 128.707 175.373 129.08 175.768C129.464 176.163 129.752 176.621 129.944 177.144C130.147 177.667 130.248 178.211 130.248 178.776C130.248 178.915 130.243 179.048 130.232 179.176C130.232 179.304 130.221 179.411 130.2 179.496H123.72C123.752 179.827 123.832 180.12 123.96 180.376C124.088 180.632 124.253 180.851 124.456 181.032C124.659 181.213 124.888 181.352 125.144 181.448C125.4 181.544 125.667 181.592 125.944 181.592C126.371 181.592 126.771 181.491 127.144 181.288C127.528 181.075 127.789 180.797 127.928 180.456L129.768 180.968C129.459 181.608 128.963 182.136 128.28 182.552C127.608 182.957 126.803 183.16 125.864 183.16ZM128.04 178.104C127.987 177.475 127.752 176.973 127.336 176.6C126.931 176.216 126.435 176.024 125.848 176.024C125.56 176.024 125.288 176.077 125.032 176.184C124.787 176.28 124.568 176.419 124.376 176.6C124.184 176.781 124.024 177 123.896 177.256C123.779 177.512 123.709 177.795 123.688 178.104H128.04ZM139.346 183H137.202V178.296C137.202 177.624 137.085 177.133 136.85 176.824C136.615 176.515 136.29 176.36 135.874 176.36C135.661 176.36 135.442 176.403 135.218 176.488C134.994 176.573 134.781 176.696 134.578 176.856C134.386 177.005 134.21 177.187 134.05 177.4C133.89 177.613 133.773 177.848 133.698 178.104V183H131.554V174.616H133.49V176.168C133.799 175.635 134.247 175.219 134.834 174.92C135.421 174.621 136.082 174.472 136.818 174.472C137.341 174.472 137.767 174.568 138.098 174.76C138.429 174.952 138.685 175.203 138.866 175.512C139.047 175.821 139.17 176.173 139.234 176.568C139.309 176.963 139.346 177.363 139.346 177.768V183ZM144.378 183.16C143.674 183.16 142.986 183.048 142.314 182.824C141.642 182.6 141.066 182.28 140.586 181.864L141.386 180.52C141.898 180.883 142.394 181.16 142.874 181.352C143.365 181.533 143.85 181.624 144.33 181.624C144.757 181.624 145.093 181.544 145.338 181.384C145.584 181.224 145.706 180.995 145.706 180.696C145.706 180.397 145.562 180.179 145.274 180.04C144.986 179.901 144.517 179.741 143.866 179.56C143.322 179.411 142.858 179.267 142.474 179.128C142.09 178.989 141.781 178.835 141.546 178.664C141.312 178.483 141.141 178.28 141.034 178.056C140.928 177.821 140.874 177.544 140.874 177.224C140.874 176.797 140.954 176.413 141.114 176.072C141.285 175.731 141.52 175.443 141.818 175.208C142.117 174.963 142.464 174.776 142.858 174.648C143.264 174.52 143.701 174.456 144.17 174.456C144.8 174.456 145.386 174.547 145.93 174.728C146.485 174.909 146.992 175.203 147.45 175.608L146.586 176.904C146.16 176.584 145.744 176.349 145.338 176.2C144.944 176.051 144.549 175.976 144.154 175.976C143.792 175.976 143.488 176.051 143.242 176.2C142.997 176.349 142.874 176.589 142.874 176.92C142.874 177.069 142.901 177.192 142.954 177.288C143.018 177.384 143.114 177.469 143.242 177.544C143.37 177.619 143.536 177.693 143.738 177.768C143.952 177.832 144.213 177.901 144.522 177.976C145.098 178.125 145.589 178.275 145.994 178.424C146.41 178.573 146.746 178.744 147.002 178.936C147.269 179.128 147.461 179.352 147.578 179.608C147.706 179.853 147.77 180.152 147.77 180.504C147.77 181.325 147.466 181.976 146.858 182.456C146.25 182.925 145.424 183.16 144.378 183.16ZM151.452 183.16C151.046 183.16 150.668 183.096 150.316 182.968C149.964 182.829 149.66 182.643 149.404 182.408C149.148 182.163 148.945 181.88 148.796 181.56C148.657 181.24 148.588 180.888 148.588 180.504C148.588 180.109 148.673 179.747 148.844 179.416C149.025 179.075 149.27 178.787 149.58 178.552C149.9 178.317 150.278 178.136 150.716 178.008C151.153 177.869 151.633 177.8 152.156 177.8C152.529 177.8 152.892 177.832 153.244 177.896C153.606 177.96 153.926 178.051 154.204 178.168V177.688C154.204 177.133 154.044 176.707 153.724 176.408C153.414 176.109 152.95 175.96 152.332 175.96C151.884 175.96 151.446 176.04 151.02 176.2C150.593 176.36 150.156 176.595 149.708 176.904L149.052 175.544C150.129 174.829 151.292 174.472 152.54 174.472C153.745 174.472 154.678 174.771 155.34 175.368C156.012 175.955 156.348 176.808 156.348 177.928V180.536C156.348 180.76 156.385 180.92 156.46 181.016C156.545 181.112 156.678 181.165 156.86 181.176V183C156.497 183.075 156.182 183.112 155.916 183.112C155.51 183.112 155.196 183.021 154.972 182.84C154.758 182.659 154.625 182.419 154.572 182.12L154.524 181.656C154.15 182.147 153.697 182.52 153.164 182.776C152.63 183.032 152.06 183.16 151.452 183.16ZM152.06 181.592C152.422 181.592 152.764 181.528 153.084 181.4C153.414 181.272 153.67 181.101 153.852 180.888C154.086 180.707 154.204 180.504 154.204 180.28V179.32C153.948 179.224 153.67 179.149 153.372 179.096C153.073 179.032 152.785 179 152.508 179C151.953 179 151.5 179.128 151.148 179.384C150.796 179.629 150.62 179.944 150.62 180.328C150.62 180.691 150.758 180.995 151.036 181.24C151.313 181.475 151.654 181.592 152.06 181.592ZM158.335 171.32H160.479V180.312C160.479 180.621 160.554 180.861 160.703 181.032C160.852 181.203 161.066 181.288 161.343 181.288C161.471 181.288 161.61 181.267 161.759 181.224C161.919 181.181 162.068 181.128 162.207 181.064L162.495 182.696C162.207 182.835 161.871 182.941 161.487 183.016C161.103 183.091 160.756 183.128 160.447 183.128C159.775 183.128 159.252 182.952 158.879 182.6C158.516 182.237 158.335 181.725 158.335 181.064V171.32Z" fill="white"/>
</svg>
