<svg width="197" height="197" viewBox="0 0 197 197" fill="none" xmlns="http://www.w3.org/2000/svg">
<rect x="1.5" y="1.5" width="194" height="194" rx="3.5" stroke="white" stroke-width="3"/>
<path d="M51.184 183V171.64H55.312C56.24 171.64 57.0507 171.789 57.744 172.088C58.448 172.387 59.0347 172.792 59.504 173.304C59.9733 173.816 60.3253 174.419 60.56 175.112C60.7947 175.795 60.912 176.525 60.912 177.304C60.912 178.168 60.7787 178.952 60.512 179.656C60.256 180.349 59.8827 180.947 59.392 181.448C58.9013 181.939 58.3093 182.323 57.616 182.6C56.9333 182.867 56.1653 183 55.312 183H51.184ZM58.688 177.304C58.688 176.76 58.6133 176.259 58.464 175.8C58.3147 175.341 58.096 174.947 57.808 174.616C57.52 174.285 57.1627 174.029 56.736 173.848C56.32 173.667 55.8453 173.576 55.312 173.576H53.392V181.064H55.312C55.856 181.064 56.336 180.968 56.752 180.776C57.1787 180.584 57.5307 180.323 57.808 179.992C58.096 179.651 58.3147 179.251 58.464 178.792C58.6133 178.333 58.688 177.837 58.688 177.304ZM66.3011 183.16C65.6185 183.16 65.0051 183.043 64.4611 182.808C63.9171 182.573 63.4531 182.259 63.0691 181.864C62.6958 181.459 62.4078 180.995 62.2051 180.472C62.0025 179.949 61.9011 179.4 61.9011 178.824C61.9011 178.237 62.0025 177.683 62.2051 177.16C62.4078 176.637 62.6958 176.179 63.0691 175.784C63.4531 175.379 63.9171 175.059 64.4611 174.824C65.0051 174.589 65.6185 174.472 66.3011 174.472C66.9838 174.472 67.5918 174.589 68.1251 174.824C68.6691 175.059 69.1278 175.379 69.5011 175.784C69.8851 176.179 70.1785 176.637 70.3811 177.16C70.5838 177.683 70.6851 178.237 70.6851 178.824C70.6851 179.4 70.5838 179.949 70.3811 180.472C70.1785 180.995 69.8905 181.459 69.5171 181.864C69.1438 182.259 68.6851 182.573 68.1411 182.808C67.5971 183.043 66.9838 183.16 66.3011 183.16ZM64.1091 178.824C64.1091 179.197 64.1625 179.539 64.2691 179.848C64.3865 180.147 64.5411 180.408 64.7331 180.632C64.9358 180.856 65.1705 181.032 65.4371 181.16C65.7038 181.277 65.9918 181.336 66.3011 181.336C66.6105 181.336 66.8985 181.277 67.1651 181.16C67.4318 181.032 67.6611 180.856 67.8531 180.632C68.0558 180.408 68.2105 180.141 68.3171 179.832C68.4345 179.523 68.4931 179.181 68.4931 178.808C68.4931 178.445 68.4345 178.109 68.3171 177.8C68.2105 177.491 68.0558 177.224 67.8531 177C67.6611 176.776 67.4318 176.605 67.1651 176.488C66.8985 176.36 66.6105 176.296 66.3011 176.296C65.9918 176.296 65.7038 176.36 65.4371 176.488C65.1705 176.616 64.9358 176.792 64.7331 177.016C64.5411 177.24 64.3865 177.507 64.2691 177.816C64.1625 178.125 64.1091 178.461 64.1091 178.824ZM74.4203 183.16C74.0149 183.16 73.6363 183.096 73.2843 182.968C72.9323 182.829 72.6283 182.643 72.3723 182.408C72.1163 182.163 71.9136 181.88 71.7643 181.56C71.6256 181.24 71.5563 180.888 71.5563 180.504C71.5563 180.109 71.6416 179.747 71.8123 179.416C71.9936 179.075 72.2389 178.787 72.5483 178.552C72.8683 178.317 73.2469 178.136 73.6843 178.008C74.1216 177.869 74.6016 177.8 75.1243 177.8C75.4976 177.8 75.8603 177.832 76.2123 177.896C76.5749 177.96 76.8949 178.051 77.1723 178.168V177.688C77.1723 177.133 77.0123 176.707 76.6923 176.408C76.3829 176.109 75.9189 175.96 75.3003 175.96C74.8523 175.96 74.4149 176.04 73.9883 176.2C73.5616 176.36 73.1243 176.595 72.6763 176.904L72.0203 175.544C73.0976 174.829 74.2603 174.472 75.5083 174.472C76.7136 174.472 77.6469 174.771 78.3083 175.368C78.9803 175.955 79.3163 176.808 79.3163 177.928V180.536C79.3163 180.76 79.3536 180.92 79.4283 181.016C79.5136 181.112 79.6469 181.165 79.8283 181.176V183C79.4656 183.075 79.1509 183.112 78.8843 183.112C78.4789 183.112 78.1643 183.021 77.9403 182.84C77.7269 182.659 77.5936 182.419 77.5403 182.12L77.4923 181.656C77.1189 182.147 76.6656 182.52 76.1323 182.776C75.5989 183.032 75.0283 183.16 74.4203 183.16ZM75.0283 181.592C75.3909 181.592 75.7323 181.528 76.0523 181.4C76.3829 181.272 76.6389 181.101 76.8203 180.888C77.0549 180.707 77.1723 180.504 77.1723 180.28V179.32C76.9163 179.224 76.6389 179.149 76.3403 179.096C76.0416 179.032 75.7536 179 75.4763 179C74.9216 179 74.4683 179.128 74.1163 179.384C73.7643 179.629 73.5883 179.944 73.5883 180.328C73.5883 180.691 73.7269 180.995 74.0043 181.24C74.2816 181.475 74.6229 181.592 75.0283 181.592ZM83.9438 185.032C84.0718 185.107 84.2691 185.176 84.5358 185.24C84.8024 185.304 85.0798 185.336 85.3678 185.336C85.6451 185.336 85.8638 185.293 86.0238 185.208C86.1838 185.133 86.2638 185 86.2638 184.808C86.2638 184.616 86.1838 184.477 86.0238 184.392C85.8744 184.317 85.6771 184.28 85.4318 184.28C85.2078 184.28 84.9678 184.301 84.7118 184.344C84.4664 184.397 84.2798 184.44 84.1518 184.472L84.8238 183.144C84.1944 183.101 83.6291 182.957 83.1278 182.712C82.6371 182.456 82.2158 182.131 81.8638 181.736C81.5224 181.341 81.2558 180.893 81.0638 180.392C80.8824 179.891 80.7918 179.363 80.7918 178.808C80.7918 178.221 80.8931 177.667 81.0958 177.144C81.2984 176.621 81.5918 176.163 81.9758 175.768C82.3598 175.373 82.8238 175.059 83.3678 174.824C83.9118 174.589 84.5251 174.472 85.2078 174.472C86.1251 174.472 86.9038 174.669 87.5438 175.064C88.1944 175.459 88.6798 175.976 88.9998 176.616L86.9038 177.256C86.7224 176.947 86.4824 176.712 86.1838 176.552C85.8851 176.381 85.5544 176.296 85.1918 176.296C84.8824 176.296 84.5944 176.36 84.3278 176.488C84.0611 176.605 83.8264 176.776 83.6238 177C83.4318 177.213 83.2771 177.475 83.1598 177.784C83.0531 178.093 82.9998 178.435 82.9998 178.808C82.9998 179.181 83.0584 179.523 83.1758 179.832C83.2931 180.141 83.4478 180.408 83.6398 180.632C83.8424 180.856 84.0771 181.032 84.3438 181.16C84.6104 181.277 84.8931 181.336 85.1918 181.336C85.5758 181.336 85.9278 181.24 86.2478 181.048C86.5784 180.856 86.8078 180.621 86.9358 180.344L89.0318 180.984C88.7651 181.56 88.3491 182.045 87.7838 182.44C87.2184 182.824 86.5358 183.053 85.7358 183.128L85.3998 183.672C85.4744 183.651 85.5544 183.635 85.6398 183.624C85.7358 183.613 85.8264 183.608 85.9118 183.608C86.2851 183.608 86.6051 183.693 86.8718 183.864C87.1384 184.045 87.2718 184.333 87.2718 184.728C87.2718 185.133 87.1011 185.469 86.7598 185.736C86.4291 186.003 85.9171 186.136 85.2238 186.136C84.8718 186.136 84.5518 186.104 84.2638 186.04C83.9758 185.976 83.7251 185.901 83.5118 185.816L83.9438 185.032ZM92.639 183.16C92.2337 183.16 91.855 183.096 91.503 182.968C91.151 182.829 90.847 182.643 90.591 182.408C90.335 182.163 90.1323 181.88 89.983 181.56C89.8443 181.24 89.775 180.888 89.775 180.504C89.775 180.109 89.8603 179.747 90.031 179.416C90.2123 179.075 90.4577 178.787 90.767 178.552C91.087 178.317 91.4657 178.136 91.903 178.008C92.3403 177.869 92.8203 177.8 93.343 177.8C93.7163 177.8 94.079 177.832 94.431 177.896C94.7937 177.96 95.1137 178.051 95.391 178.168V177.688C95.391 177.133 95.231 176.707 94.911 176.408C94.6017 176.109 94.1377 175.96 93.519 175.96C93.071 175.96 92.6337 176.04 92.207 176.2C91.7803 176.36 91.343 176.595 90.895 176.904L90.239 175.544C91.3163 174.829 92.479 174.472 93.727 174.472C94.9323 174.472 95.8657 174.771 96.527 175.368C97.199 175.955 97.535 176.808 97.535 177.928V180.536C97.535 180.76 97.5723 180.92 97.647 181.016C97.7323 181.112 97.8657 181.165 98.047 181.176V183C97.6843 183.075 97.3697 183.112 97.103 183.112C96.6977 183.112 96.383 183.021 96.159 182.84C95.9457 182.659 95.8123 182.419 95.759 182.12L95.711 181.656C95.3377 182.147 94.8843 182.52 94.351 182.776C93.8177 183.032 93.247 183.16 92.639 183.16ZM93.247 181.592C93.6097 181.592 93.951 181.528 94.271 181.4C94.6017 181.272 94.8577 181.101 95.039 180.888C95.2737 180.707 95.391 180.504 95.391 180.28V179.32C95.135 179.224 94.8577 179.149 94.559 179.096C94.2603 179.032 93.9723 179 93.695 179C93.1403 179 92.687 179.128 92.335 179.384C91.983 179.629 91.807 179.944 91.807 180.328C91.807 180.691 91.9457 180.995 92.223 181.24C92.5003 181.475 92.8417 181.592 93.247 181.592ZM94.735 173.368C94.4897 173.368 94.2763 173.331 94.095 173.256C93.9137 173.181 93.743 173.101 93.583 173.016C93.4337 172.92 93.279 172.835 93.119 172.76C92.9697 172.685 92.8097 172.648 92.639 172.648C92.4577 172.648 92.3137 172.685 92.207 172.76C92.111 172.835 92.0363 172.92 91.983 173.016C91.9297 173.112 91.8977 173.203 91.887 173.288C91.8763 173.363 91.871 173.405 91.871 173.416H90.687C90.687 173.32 90.719 173.16 90.783 172.936C90.847 172.701 90.9483 172.472 91.087 172.248C91.2363 172.013 91.4283 171.811 91.663 171.64C91.9083 171.459 92.207 171.368 92.559 171.368C92.8043 171.368 93.0123 171.411 93.183 171.496C93.3643 171.571 93.5297 171.656 93.679 171.752C93.839 171.837 93.9937 171.923 94.143 172.008C94.303 172.083 94.479 172.12 94.671 172.12C94.863 172.12 95.0123 172.083 95.119 172.008C95.2363 171.933 95.3217 171.848 95.375 171.752C95.439 171.656 95.4763 171.565 95.487 171.48C95.5083 171.395 95.519 171.341 95.519 171.32H96.703C96.703 171.395 96.671 171.544 96.607 171.768C96.543 171.992 96.431 172.221 96.271 172.456C96.1217 172.691 95.919 172.904 95.663 173.096C95.4177 173.277 95.1083 173.368 94.735 173.368ZM103.411 183.16C102.728 183.16 102.115 183.043 101.571 182.808C101.027 182.573 100.563 182.259 100.179 181.864C99.8052 181.459 99.5172 180.995 99.3145 180.472C99.1118 179.949 99.0105 179.4 99.0105 178.824C99.0105 178.237 99.1118 177.683 99.3145 177.16C99.5172 176.637 99.8052 176.179 100.179 175.784C100.563 175.379 101.027 175.059 101.571 174.824C102.115 174.589 102.728 174.472 103.411 174.472C104.093 174.472 104.701 174.589 105.235 174.824C105.779 175.059 106.237 175.379 106.611 175.784C106.995 176.179 107.288 176.637 107.491 177.16C107.693 177.683 107.795 178.237 107.795 178.824C107.795 179.4 107.693 179.949 107.491 180.472C107.288 180.995 107 181.459 106.627 181.864C106.253 182.259 105.795 182.573 105.251 182.808C104.707 183.043 104.093 183.16 103.411 183.16ZM101.219 178.824C101.219 179.197 101.272 179.539 101.379 179.848C101.496 180.147 101.651 180.408 101.843 180.632C102.045 180.856 102.28 181.032 102.547 181.16C102.813 181.277 103.101 181.336 103.411 181.336C103.72 181.336 104.008 181.277 104.275 181.16C104.541 181.032 104.771 180.856 104.963 180.632C105.165 180.408 105.32 180.141 105.427 179.832C105.544 179.523 105.603 179.181 105.603 178.808C105.603 178.445 105.544 178.109 105.427 177.8C105.32 177.491 105.165 177.224 104.963 177C104.771 176.776 104.541 176.605 104.275 176.488C104.008 176.36 103.72 176.296 103.411 176.296C103.101 176.296 102.813 176.36 102.547 176.488C102.28 176.616 102.045 176.792 101.843 177.016C101.651 177.24 101.496 177.507 101.379 177.816C101.272 178.125 101.219 178.461 101.219 178.824ZM118.669 170.68L117.293 170.264L118.157 168.36H120.157L118.669 170.68ZM118.093 181.128C118.616 181.128 119.053 181.021 119.405 180.808C119.768 180.595 120.056 180.317 120.269 179.976C120.493 179.635 120.648 179.245 120.733 178.808C120.829 178.36 120.877 177.901 120.877 177.432V171.64H123.069V177.432C123.069 178.211 122.973 178.941 122.781 179.624C122.6 180.307 122.307 180.904 121.901 181.416C121.507 181.928 120.995 182.333 120.365 182.632C119.736 182.931 118.984 183.08 118.109 183.08C117.203 183.08 116.429 182.925 115.789 182.616C115.16 182.296 114.648 181.88 114.253 181.368C113.859 180.845 113.571 180.243 113.389 179.56C113.219 178.877 113.133 178.168 113.133 177.432V171.64H115.341V177.432C115.341 177.912 115.384 178.376 115.469 178.824C115.565 179.261 115.72 179.651 115.933 179.992C116.157 180.333 116.445 180.611 116.797 180.824C117.149 181.027 117.581 181.128 118.093 181.128ZM132.877 183H130.733V178.296C130.733 177.624 130.616 177.133 130.381 176.824C130.147 176.515 129.821 176.36 129.405 176.36C129.192 176.36 128.973 176.403 128.749 176.488C128.525 176.573 128.312 176.696 128.109 176.856C127.917 177.005 127.741 177.187 127.581 177.4C127.421 177.613 127.304 177.848 127.229 178.104V183H125.085V174.616H127.021V176.168C127.331 175.635 127.779 175.219 128.365 174.92C128.952 174.621 129.613 174.472 130.349 174.472C130.872 174.472 131.299 174.568 131.629 174.76C131.96 174.952 132.216 175.203 132.397 175.512C132.579 175.821 132.701 176.173 132.765 176.568C132.84 176.963 132.877 177.363 132.877 177.768V183ZM134.742 183V174.616H136.886V183H134.742ZM134.742 173.448V171.32H136.886V173.448H134.742ZM138.292 178.808C138.292 178.221 138.393 177.667 138.596 177.144C138.798 176.621 139.092 176.163 139.476 175.768C139.86 175.373 140.324 175.059 140.868 174.824C141.412 174.589 142.025 174.472 142.708 174.472C143.625 174.472 144.404 174.669 145.044 175.064C145.694 175.459 146.18 175.976 146.5 176.616L144.404 177.256C144.222 176.947 143.982 176.712 143.684 176.552C143.385 176.381 143.054 176.296 142.692 176.296C142.382 176.296 142.094 176.36 141.828 176.488C141.561 176.605 141.326 176.776 141.124 177C140.932 177.213 140.777 177.475 140.66 177.784C140.553 178.093 140.5 178.435 140.5 178.808C140.5 179.181 140.558 179.523 140.676 179.832C140.793 180.141 140.948 180.408 141.14 180.632C141.342 180.856 141.577 181.032 141.844 181.16C142.11 181.277 142.393 181.336 142.692 181.336C143.076 181.336 143.428 181.24 143.748 181.048C144.078 180.856 144.308 180.621 144.436 180.344L146.532 180.984C146.244 181.624 145.769 182.147 145.108 182.552C144.446 182.957 143.652 183.16 142.724 183.16C142.041 183.16 141.428 183.043 140.884 182.808C140.34 182.573 139.876 182.259 139.492 181.864C139.108 181.459 138.809 180.995 138.596 180.472C138.393 179.939 138.292 179.384 138.292 178.808ZM150.139 183.16C149.734 183.16 149.355 183.096 149.003 182.968C148.651 182.829 148.347 182.643 148.091 182.408C147.835 182.163 147.632 181.88 147.483 181.56C147.344 181.24 147.275 180.888 147.275 180.504C147.275 180.109 147.36 179.747 147.531 179.416C147.712 179.075 147.958 178.787 148.267 178.552C148.587 178.317 148.966 178.136 149.403 178.008C149.84 177.869 150.32 177.8 150.843 177.8C151.216 177.8 151.579 177.832 151.931 177.896C152.294 177.96 152.614 178.051 152.891 178.168V177.688C152.891 177.133 152.731 176.707 152.411 176.408C152.102 176.109 151.638 175.96 151.019 175.96C150.571 175.96 150.134 176.04 149.707 176.2C149.28 176.36 148.843 176.595 148.395 176.904L147.739 175.544C148.816 174.829 149.979 174.472 151.227 174.472C152.432 174.472 153.366 174.771 154.027 175.368C154.699 175.955 155.035 176.808 155.035 177.928V180.536C155.035 180.76 155.072 180.92 155.147 181.016C155.232 181.112 155.366 181.165 155.547 181.176V183C155.184 183.075 154.87 183.112 154.603 183.112C154.198 183.112 153.883 183.021 153.659 182.84C153.446 182.659 153.312 182.419 153.259 182.12L153.211 181.656C152.838 182.147 152.384 182.52 151.851 182.776C151.318 183.032 150.747 183.16 150.139 183.16ZM150.747 181.592C151.11 181.592 151.451 181.528 151.771 181.4C152.102 181.272 152.358 181.101 152.539 180.888C152.774 180.707 152.891 180.504 152.891 180.28V179.32C152.635 179.224 152.358 179.149 152.059 179.096C151.76 179.032 151.472 179 151.195 179C150.64 179 150.187 179.128 149.835 179.384C149.483 179.629 149.307 179.944 149.307 180.328C149.307 180.691 149.446 180.995 149.723 181.24C150 181.475 150.342 181.592 150.747 181.592Z" fill="white"/>
</svg>
