<svg width="56" height="80" viewBox="0 0 56 80" fill="none" xmlns="http://www.w3.org/2000/svg">
<path d="M32.8622 32.9281C33.7542 32.0401 34.2612 30.8091 34.2612 29.4951C34.2612 28.1811 33.7492 26.9471 32.8222 26.0181C31.8942 25.0921 30.6622 24.5811 29.3522 24.5811C28.5092 24.5811 27.6642 24.8061 26.9302 25.2191C26.1942 24.8011 25.3642 24.5811 24.5052 24.5811C23.1962 24.5811 21.9642 25.0921 21.0362 26.0181C19.1202 27.9361 19.1202 31.0551 21.0362 32.9701L26.4392 39.1441C26.5632 39.2861 26.7412 39.3671 26.9282 39.3671C27.1152 39.3671 27.2932 39.2861 27.4172 39.1441L32.8622 32.9281ZM32.4852 29.4951C32.4852 30.3341 32.1592 31.1221 31.5652 31.7141L26.9292 37.0061L22.3332 31.7571C22.3232 31.7451 22.3132 31.7361 22.3042 31.7251C21.0752 30.4961 21.0692 28.5001 22.2922 27.2761C23.3682 26.1981 25.1782 26.0741 26.3952 26.9911L26.5422 27.1001C26.7712 27.2701 27.0892 27.2691 27.3182 27.0981L27.4622 26.9911C28.0122 26.5771 28.6652 26.3591 29.3522 26.3591C30.1882 26.3591 30.9742 26.6841 31.5642 27.2761C32.1582 27.8701 32.4852 28.6581 32.4852 29.4951Z" fill="white"/>
<path d="M49.8872 17.658C51.8212 16.64 53.1452 14.612 53.1452 12.279V6.078C53.1452 2.726 50.4182 0 47.0672 0H8.54319C5.19119 0 2.46519 2.727 2.46519 6.078V12.279C2.46519 14.612 3.78919 16.64 5.72319 17.658C3.25019 19.094 0.000191364 21.874 0.000191364 26.582V71.216C-0.00180864 71.348 -0.0268085 74.847 2.41319 77.326C3.95019 78.887 6.08319 79.678 8.75319 79.678H46.8572C49.5272 79.678 51.6602 78.887 53.1972 77.326C55.6382 74.847 55.6132 71.348 55.6112 71.2V26.582C55.6112 21.875 52.3602 19.095 49.8872 17.658ZM47.0672 16.357H46.8572H8.60019H8.54319C6.29419 16.357 4.46519 14.528 4.46519 12.28V6.079C4.46519 3.83 6.29419 2.001 8.54319 2.001H47.0662C49.3152 2.001 51.1442 3.83 51.1442 6.079V12.28C51.1452 14.528 49.3162 16.357 47.0672 16.357ZM53.6112 26.582V71.216C53.6112 71.256 53.6142 74.065 51.7602 75.935C50.6142 77.092 48.9642 77.678 46.8572 77.678H8.75319C6.64719 77.678 4.99619 77.092 3.85119 75.935C1.99719 74.065 2.00019 71.256 2.00019 71.229V26.582C2.00019 21.02 7.90119 18.712 8.91719 18.356H46.6922C47.7082 18.712 53.6112 21.021 53.6112 26.582Z" fill="white"/>
<path d="M45.9092 13.39V5.36597C45.9092 4.81297 46.3562 4.36597 46.9092 4.36597C47.4622 4.36597 47.9092 4.81297 47.9092 5.36597V13.39C47.9092 13.943 47.4622 14.39 46.9092 14.39C46.3562 14.39 45.9092 13.943 45.9092 13.39Z" fill="white"/>
<path d="M42.6722 14.39C42.1192 14.39 41.6722 13.943 41.6722 13.39V5.36597C41.6722 4.81297 42.1192 4.36597 42.6722 4.36597C43.2252 4.36597 43.6722 4.81297 43.6722 5.36597V13.39C43.6722 13.943 43.2252 14.39 42.6722 14.39Z" fill="white"/>
<path d="M38.4342 14.39C37.8812 14.39 37.4342 13.943 37.4342 13.39V5.36597C37.4342 4.81297 37.8812 4.36597 38.4342 4.36597C38.9872 4.36597 39.4342 4.81297 39.4342 5.36597V13.39C39.4342 13.943 38.9872 14.39 38.4342 14.39Z" fill="white"/>
<path d="M34.1973 14.39C33.6443 14.39 33.1973 13.943 33.1973 13.39V5.36597C33.1973 4.81297 33.6443 4.36597 34.1973 4.36597C34.7503 4.36597 35.1973 4.81297 35.1973 5.36597V13.39C35.1973 13.943 34.7493 14.39 34.1973 14.39Z" fill="white"/>
<path d="M29.9592 14.39C29.4062 14.39 28.9592 13.943 28.9592 13.39V5.36597C28.9592 4.81297 29.4062 4.36597 29.9592 4.36597C30.5122 4.36597 30.9592 4.81297 30.9592 5.36597V13.39C30.9592 13.943 30.5122 14.39 29.9592 14.39Z" fill="white"/>
<path d="M25.7212 14.39C25.1682 14.39 24.7212 13.943 24.7212 13.39V5.36597C24.7212 4.81297 25.1682 4.36597 25.7212 4.36597C26.2742 4.36597 26.7212 4.81297 26.7212 5.36597V13.39C26.7212 13.943 26.2742 14.39 25.7212 14.39Z" fill="white"/>
<path d="M21.4843 14.39C20.9313 14.39 20.4843 13.943 20.4843 13.39V5.36597C20.4843 4.81297 20.9313 4.36597 21.4843 4.36597C22.0373 4.36597 22.4843 4.81297 22.4843 5.36597V13.39C22.4843 13.943 22.0363 14.39 21.4843 14.39Z" fill="white"/>
<path d="M17.2452 14.39C16.6922 14.39 16.2452 13.943 16.2452 13.39V5.36597C16.2452 4.81297 16.6922 4.36597 17.2452 4.36597C17.7982 4.36597 18.2452 4.81297 18.2452 5.36597V13.39C18.2452 13.943 17.7982 14.39 17.2452 14.39Z" fill="white"/>
<path d="M13.0082 14.39C12.4552 14.39 12.0082 13.943 12.0082 13.39V5.36597C12.0082 4.81297 12.4552 4.36597 13.0082 4.36597C13.5612 4.36597 14.0082 4.81297 14.0082 5.36597V13.39C14.0082 13.943 13.5612 14.39 13.0082 14.39Z" fill="white"/>
<path d="M8.77124 14.39C8.21824 14.39 7.77124 13.943 7.77124 13.39V5.36597C7.77124 4.81297 8.21824 4.36597 8.77124 4.36597C9.32424 4.36597 9.77124 4.81297 9.77124 5.36597V13.39C9.77124 13.943 9.32424 14.39 8.77124 14.39Z" fill="white"/>
<path d="M45.8563 52.401C45.9473 51.712 45.7623 51.027 45.3353 50.472C44.9093 49.918 44.2943 49.564 43.6053 49.475L22.6703 46.747C21.9813 46.652 21.2963 46.842 20.7413 47.268C20.1873 47.694 19.8333 48.309 19.7443 48.998L19.5013 50.859C19.3143 52.288 20.3253 53.6 21.7533 53.786L29.4733 54.792L11.7083 58.913C11.0303 59.07 10.4533 59.483 10.0833 60.076C9.71427 60.67 9.59727 61.369 9.75327 62.047L10.1793 63.877C10.4583 65.081 11.5353 65.898 12.7223 65.898C12.9173 65.898 13.1153 65.876 13.3123 65.831L17.6583 64.823C17.6443 64.932 17.6253 65.039 17.6253 65.152V67.03C17.6253 67.241 17.6573 67.444 17.7053 67.64H15.3353C13.8963 67.64 12.7243 68.812 12.7243 70.251V72.129C12.7243 73.568 13.8963 74.74 15.3353 74.74H36.4463C37.8853 74.74 39.0573 73.568 39.0573 72.129V70.251C39.0573 70.04 39.0253 69.837 38.9773 69.64H41.3463C42.7853 69.64 43.9573 68.469 43.9573 67.03V65.152C43.9573 63.713 42.7853 62.541 41.3463 62.541H27.4963L33.8773 61.061C34.5553 60.904 35.1323 60.491 35.5023 59.898C35.8713 59.304 35.9883 58.605 35.8323 57.927L35.4063 56.097C35.3603 55.899 35.2883 55.715 35.2023 55.54L42.6893 56.515C42.8033 56.531 42.9183 56.537 43.0313 56.537C43.6023 56.537 44.1553 56.349 44.6183 55.994C45.1723 55.568 45.5263 54.953 45.6153 54.264L45.8563 52.401ZM15.3343 69.64H20.2353H36.4453C36.7763 69.64 37.0563 69.92 37.0563 70.251V72.129C37.0563 72.46 36.7763 72.74 36.4453 72.74H15.3343C15.0033 72.74 14.7233 72.46 14.7233 72.129V70.251C14.7233 69.92 15.0033 69.64 15.3343 69.64ZM20.2363 67.64C19.9053 67.64 19.6253 67.361 19.6253 67.03V65.152C19.6253 64.815 19.8993 64.541 20.2363 64.541H41.3463C41.6833 64.541 41.9573 64.815 41.9573 65.152V67.03C41.9573 67.361 41.6773 67.64 41.3463 67.64H36.4463H20.2363ZM12.1593 60.863L32.7233 56.092C32.8813 56.054 33.0433 56.082 33.1843 56.17C33.3243 56.257 33.4203 56.391 33.4563 56.548L33.8823 58.378C33.9563 58.7 33.7463 59.036 33.4243 59.11L12.8603 63.882C12.7023 63.915 12.5403 63.891 12.3993 63.803C12.2593 63.716 12.1633 63.581 12.1273 63.424L11.7013 61.594C11.6273 61.273 11.8373 60.937 12.1593 60.863ZM43.8733 52.142L43.6313 54.005C43.6103 54.164 43.5273 54.308 43.3973 54.408C43.2673 54.508 43.1143 54.548 42.9473 54.531L22.0113 51.803C21.6833 51.76 21.4423 51.447 21.4843 51.117L21.7273 49.256C21.7483 49.095 21.8313 48.952 21.9613 48.852C22.0703 48.768 22.1993 48.724 22.3333 48.724C22.3583 48.724 22.3853 48.726 22.4113 48.729L43.3473 51.457C43.5073 51.478 43.6503 51.561 43.7503 51.691C43.8503 51.823 43.8943 51.982 43.8733 52.142Z" fill="white"/>
</svg>
