<svg width="205" height="52" viewBox="0 0 205 52" fill="none" xmlns="http://www.w3.org/2000/svg">
<path d="M50.9388 50.5937C50.9388 51.3701 50.2976 51.9994 49.5065 51.9994H46.2347C46.2201 51.9998 46.2054 52 46.1909 52C46.0127 52 45.8388 51.9672 45.6771 51.9058C45.6238 51.8857 45.572 51.8626 45.5219 51.8365C45.5219 51.8366 45.521 51.8359 45.5203 51.8357C45.2479 51.6937 45.0224 51.4662 44.8887 51.178C44.8537 51.1032 44.8255 51.0251 44.8043 50.944L41.6197 39.6781L32.1209 39.6517C31.9743 39.6562 31.8338 39.6334 31.6998 39.5944C31.5053 39.538 31.3282 39.4422 31.178 39.3167C31.0069 39.1738 30.8696 38.9915 30.7816 38.7816C30.7309 38.661 30.6969 38.5317 30.6821 38.3969L29.2517 26.7653C29.246 26.7244 29.242 26.6828 29.2399 26.6407C29.2021 25.9096 29.7471 25.2641 30.4989 25.1749C30.5729 25.1661 30.6466 25.1633 30.7187 25.1654H30.8796C30.9046 25.1654 30.9299 25.1654 30.9549 25.1654C33.5823 25.1654 33.9496 25.2231 35.7617 26.5855L35.9487 26.7258C35.9605 26.7348 35.9723 26.7439 35.9841 26.7533L42.8851 32.2745H44.4219C45.213 32.2745 45.8542 32.9038 45.8542 33.6802C45.8542 34.4566 45.213 35.0858 44.4219 35.0858H42.3857C42.1731 35.0874 41.9587 35.0429 41.7603 34.9501C41.7596 34.9498 41.7592 34.9496 41.7587 34.9493C41.758 34.9492 41.7576 34.9488 41.7569 34.9485C41.7561 34.9481 41.7552 34.9477 41.7544 34.9473C41.7542 34.9473 41.7541 34.9473 41.7541 34.9471C41.6489 34.8975 41.5507 34.8353 41.4617 34.763L34.191 28.9461L34.0196 28.8172C33.3697 28.3287 33.0967 28.128 32.8652 28.0626C32.7341 28.0257 32.5439 28.0046 32.2878 27.9924L33.3764 36.8438L42.7137 36.8697C43.3557 36.8716 43.9181 37.2924 44.0898 37.8996L47.2806 49.1879H49.5063C50.2974 49.1881 50.9388 49.8173 50.9388 50.5937ZM11.4867 49.1881H9.04962V23.0071C9.04962 22.2307 8.40844 21.6014 7.61734 21.6014C6.82625 21.6014 6.18507 22.2307 6.18507 23.0071V50.5519C6.18459 50.5658 6.18443 50.5797 6.18443 50.5937C6.18443 51.138 6.49969 51.6102 6.96088 51.8437C7.15742 51.9435 7.3807 51.9997 7.61734 51.9997C7.62753 51.9997 7.63771 51.9995 7.64774 51.9994H11.4867C12.2778 51.9994 12.919 51.3701 12.919 50.5937C12.919 49.8173 12.2778 49.1881 11.4867 49.1881ZM40.7895 43.3606C40.0708 43.0368 39.2204 43.3459 38.8901 44.0514C37.5602 46.8939 34.7636 48.8296 31.5922 49.1026C31.3295 49.1255 31.069 49.1364 30.81 49.1364C26.263 49.1361 22.3779 45.7124 21.9729 41.1846C21.6549 37.6244 23.6367 34.174 26.9042 32.5989C27.6143 32.2567 27.9071 31.4143 27.5583 30.7175C27.2096 30.0206 26.351 29.7329 25.6413 30.0756C21.3196 32.1589 18.6985 36.722 19.1192 41.4303C19.6548 47.4196 24.7932 51.9478 30.8078 51.9478C31.15 51.9478 31.4953 51.9332 31.8426 51.9033C36.0367 51.5421 39.7349 48.983 41.4934 45.2246C41.8235 44.519 41.5083 43.6845 40.7895 43.3606ZM24.3769 17.0082C24.3769 13.7763 27.0559 11.1468 30.3488 11.1468C33.642 11.1468 36.3213 13.7763 36.3213 17.0082C36.3213 20.2401 33.642 22.8695 30.3488 22.8695C27.0559 22.8696 24.3769 20.2403 24.3769 17.0082ZM27.2414 17.0082C27.2414 18.69 28.6355 20.0582 30.3488 20.0582C32.0626 20.0582 33.4567 18.6898 33.4567 17.0082C33.4567 15.3263 32.0625 13.9581 30.3488 13.9581C28.6354 13.9581 27.2414 15.3264 27.2414 17.0082ZM0.604439 5.86125C0.604439 2.62935 3.28359 0 6.57656 0C9.86968 0 12.549 2.62935 12.549 5.86125C12.549 9.09315 9.86968 11.7227 6.57656 11.7227C3.28359 11.7227 0.604439 9.09331 0.604439 5.86125ZM3.46899 5.86125C3.46899 7.54303 4.86308 8.9112 6.57656 8.9112C8.29035 8.9112 9.68444 7.54288 9.68444 5.86125C9.68444 4.17962 8.29035 2.8113 6.57656 2.8113C4.86292 2.8113 3.46899 4.17962 3.46899 5.86125ZM11.8276 18.1668L23.0484 28.2281C23.6324 28.752 24.5384 28.7117 25.0719 28.1385C25.6055 27.5654 25.5646 26.6763 24.9805 26.1526L13.7196 16.0553C13.694 16.0324 13.6676 16.0104 13.6402 15.9891C10.8102 13.7997 7.27105 13.282 4.40347 14.6383C1.66019 15.936 0.0762475 18.6984 0.0579462 22.2174L1.85114e-05 33.2458C-0.00396003 34.0222 0.633881 34.6547 1.42482 34.6588C1.42752 34.6588 1.42991 34.6588 1.43245 34.6588C2.21989 34.6588 2.86059 34.0342 2.86457 33.2605L2.9225 22.2319C2.93507 19.7933 3.90265 17.9959 5.64717 17.1708C7.47937 16.3045 9.90039 16.6955 11.8276 18.1668Z" fill="white"/>
<path d="M83.532 29.9218C83.532 29.6949 83.5639 29.468 83.6277 29.2411C83.6915 29.0071 83.8085 28.7731 83.9787 28.5391C84.0992 28.3335 84.2623 28.0215 84.4679 27.6032C84.6806 27.1849 84.9182 26.6921 85.1805 26.1248C85.4429 25.5576 85.723 24.9407 86.0208 24.2742C86.3257 23.6006 86.6341 22.9163 86.9461 22.2215C87.2581 21.5195 87.5665 20.8211 87.8714 20.1262C88.1834 19.4243 88.4776 18.7684 88.7542 18.1586C89.0307 17.5417 89.2824 16.9851 89.5093 16.4888C89.7362 15.9924 89.9276 15.5918 90.0836 15.2869C90.1049 15.1309 90.1475 14.9785 90.2113 14.8296C90.2751 14.6736 90.3602 14.5353 90.4665 14.4148C90.5729 14.2872 90.7005 14.1879 90.8494 14.117C90.9983 14.039 91.172 14 91.3706 14C91.6258 14 91.8315 14.0355 91.9874 14.1064C92.1505 14.1773 92.2817 14.2765 92.381 14.4042C92.4873 14.5247 92.5724 14.6665 92.6362 14.8296C92.7 14.9927 92.7639 15.1664 92.8277 15.3507C92.8844 15.5138 92.9376 15.6698 92.9872 15.8187C93.0368 15.9605 93.0829 16.0704 93.1255 16.1484C93.6005 17.0986 94.0614 18.0558 94.5081 19.0201C94.9619 19.9844 95.4086 20.9665 95.8482 21.9662C96.2949 22.9589 96.7452 23.9657 97.199 24.9868C97.6528 26.0078 98.1243 27.0466 98.6136 28.1031L98.8156 28.4009C98.8724 28.4789 98.9397 28.5746 99.0177 28.688C99.0957 28.7944 99.1666 28.9114 99.2304 29.039C99.3013 29.1667 99.3581 29.3014 99.4006 29.4432C99.4502 29.585 99.4751 29.7268 99.4751 29.8686C99.4751 30.2941 99.3545 30.5954 99.1134 30.7727C98.8724 30.957 98.5781 31.0492 98.2307 31.0492C98.0392 31.0492 97.862 31.0173 97.6989 30.9535C97.5429 30.8967 97.4046 30.8188 97.2841 30.7195C97.1635 30.6131 97.0678 30.4926 96.9969 30.3579C96.926 30.2161 96.8799 30.0672 96.8586 29.9112C96.6601 29.4786 96.4758 29.0745 96.3056 28.6987C96.1354 28.3158 95.9688 27.9471 95.8057 27.5926C95.6497 27.238 95.4973 26.8941 95.3484 26.5609C95.1995 26.2205 95.0506 25.8802 94.9017 25.5398C94.7882 25.5398 94.6287 25.5398 94.423 25.5398C94.2174 25.5328 93.987 25.5221 93.7317 25.5079C93.3276 25.5079 92.9163 25.5044 92.498 25.4973C92.0867 25.4902 91.6648 25.4867 91.2323 25.4867C90.7998 25.4796 90.3531 25.4796 89.8922 25.4867C89.4313 25.4867 88.9492 25.4973 88.4457 25.5186C88.3677 25.5257 88.2933 25.5328 88.2224 25.5398C88.1515 25.5398 88.077 25.5398 87.999 25.5398C87.8005 26.022 87.6126 26.4829 87.4353 26.9225C87.2581 27.355 87.0985 27.7556 86.9567 28.1243C86.8149 28.4931 86.6873 28.8228 86.5738 29.1135C86.4675 29.3971 86.3859 29.6275 86.3292 29.8048V29.7942C86.2867 29.9502 86.237 30.1026 86.1803 30.2515C86.1307 30.4004 86.0562 30.5351 85.9569 30.6557C85.8577 30.7691 85.7194 30.8613 85.5421 30.9322C85.372 31.0102 85.1451 31.0492 84.8615 31.0492C84.4786 31.0492 84.1595 30.9535 83.9042 30.762C83.6561 30.5706 83.532 30.2905 83.532 29.9218ZM88.9669 23.2212C89.1158 23.2212 89.3072 23.2212 89.5412 23.2212C89.7823 23.2212 90.0907 23.2248 90.4665 23.2319C90.8494 23.2319 91.3174 23.2354 91.8705 23.2425C92.4235 23.2425 93.0936 23.2461 93.8806 23.2531C93.5545 22.5441 93.1857 21.7464 92.7745 20.8601C92.3632 19.9667 91.8775 18.9279 91.3174 17.7438C91.1543 18.1054 90.9806 18.5025 90.7962 18.935C90.6119 19.3675 90.4169 19.8178 90.2113 20.2858C90.0127 20.7537 89.8071 21.2359 89.5944 21.7322C89.3888 22.2286 89.1796 22.7249 88.9669 23.2212Z" fill="white"/>
<path d="M102.038 29.858C102.038 29.6311 102.052 29.4042 102.081 29.1773C102.116 28.9433 102.138 28.7022 102.145 28.4541L102.102 16.2229C102.06 16.1236 102.021 15.9853 101.985 15.8081C101.957 15.6308 101.943 15.4642 101.943 15.3082C101.943 15.1664 101.967 15.0246 102.017 14.8828C102.067 14.741 102.138 14.6169 102.23 14.5105C102.329 14.3971 102.45 14.3084 102.591 14.2446C102.733 14.1737 102.896 14.1383 103.081 14.1383C103.393 14.1383 103.705 14.156 104.017 14.1914C104.329 14.2198 104.655 14.234 104.995 14.234C105.264 14.234 105.534 14.2198 105.803 14.1914C106.08 14.156 106.371 14.1383 106.675 14.1383C107.675 14.1383 108.608 14.2765 109.473 14.5531C110.338 14.8296 111.086 15.2373 111.717 15.7762C112.348 16.308 112.844 16.9638 113.206 17.7438C113.567 18.5238 113.748 19.4136 113.748 20.4134C113.748 21.3635 113.628 22.1931 113.387 22.9022C113.146 23.6041 112.816 24.2068 112.398 24.7103C111.986 25.2137 111.501 25.6285 110.94 25.9546C110.387 26.2737 109.788 26.5254 109.143 26.7098C108.505 26.8941 107.842 27.0218 107.154 27.0927C106.466 27.1636 105.786 27.199 105.112 27.199C105.041 27.199 104.981 27.2026 104.931 27.2097C104.882 27.2097 104.835 27.2097 104.793 27.2097C104.75 27.2097 104.704 27.2097 104.655 27.2097C104.612 27.2026 104.559 27.199 104.495 27.199C104.495 27.4472 104.495 27.6457 104.495 27.7946C104.495 27.9364 104.495 28.0534 104.495 28.1456C104.502 28.2378 104.506 28.3158 104.506 28.3796C104.506 28.4434 104.506 28.5179 104.506 28.603C104.506 28.8299 104.527 29.0568 104.57 29.2836C104.619 29.5105 104.644 29.7516 104.644 30.0069C104.644 30.1983 104.602 30.3614 104.516 30.4961C104.431 30.6238 104.325 30.7266 104.197 30.8046C104.07 30.8897 103.931 30.9499 103.783 30.9854C103.634 31.0279 103.495 31.0492 103.368 31.0492C103.198 31.0492 103.031 31.0208 102.868 30.9641C102.705 30.9145 102.563 30.84 102.442 30.7408C102.322 30.6344 102.223 30.5103 102.145 30.3685C102.074 30.2196 102.038 30.0494 102.038 29.858ZM104.506 24.8911C104.648 24.8982 104.793 24.9052 104.942 24.9123C105.098 24.9194 105.243 24.9265 105.378 24.9336C105.513 24.9407 105.633 24.9478 105.74 24.9549C105.846 24.9549 105.927 24.9549 105.984 24.9549C106.771 24.9549 107.448 24.8911 108.016 24.7634C108.59 24.6358 109.072 24.4621 109.462 24.2423C109.852 24.0225 110.168 23.7672 110.409 23.4765C110.65 23.1787 110.834 22.8596 110.962 22.5193C111.089 22.1718 111.174 21.8138 111.217 21.4451C111.26 21.0693 111.281 20.697 111.281 20.3283C111.281 19.7398 111.196 19.2328 111.026 18.8074C110.862 18.3749 110.646 18.0132 110.377 17.7225C110.107 17.4318 109.799 17.1978 109.451 17.0206C109.111 16.8433 108.76 16.7086 108.398 16.6164C108.044 16.5171 107.697 16.4533 107.356 16.425C107.016 16.3895 106.718 16.3718 106.463 16.3718C106.137 16.3718 105.807 16.3789 105.474 16.3931C105.147 16.4001 104.796 16.4072 104.421 16.4143C104.435 17.3432 104.446 18.1621 104.453 18.8712C104.46 19.5732 104.463 20.1971 104.463 20.7431C104.47 21.282 104.474 21.7535 104.474 22.1577C104.481 22.5618 104.485 22.9234 104.485 23.2425C104.492 23.5616 104.495 23.8523 104.495 24.1146C104.502 24.377 104.506 24.6358 104.506 24.8911Z" fill="white"/>
<path d="M117.013 30.0601C117.013 29.7623 117.035 29.5105 117.077 29.3049C117.12 29.0993 117.145 29.0036 117.152 29.0178C117.166 28.2449 117.177 27.4614 117.184 26.6672C117.198 25.8731 117.205 25.0329 117.205 24.1466C117.205 23.5864 117.205 22.9802 117.205 22.3278C117.205 21.6684 117.198 21.0054 117.184 20.3389C117.177 19.6653 117.162 19.0059 117.141 18.3607C117.12 17.7084 117.091 17.1057 117.056 16.5526C117.028 16.3895 117.006 16.2442 116.992 16.1165C116.978 15.9818 116.971 15.84 116.971 15.6911C116.971 15.3437 117.045 15.0707 117.194 14.8721C117.343 14.6665 117.584 14.5247 117.918 14.4467C118.059 14.3262 118.215 14.2446 118.386 14.2021C118.563 14.1524 118.733 14.1276 118.896 14.1276C119.066 14.1276 119.219 14.1773 119.353 14.2765C119.495 14.3758 119.619 14.4928 119.726 14.6275C119.832 14.7622 119.921 14.904 119.992 15.0529C120.062 15.1948 120.112 15.3117 120.14 15.4039C120.36 15.7301 120.623 16.1023 120.927 16.5207C121.239 16.939 121.576 17.3893 121.938 17.8714C122.307 18.3465 122.697 18.8464 123.108 19.3711C123.519 19.8887 123.934 20.4134 124.352 20.9452C124.778 21.477 125.2 22.0088 125.618 22.5405C126.036 23.0652 126.433 23.5722 126.809 24.0615C127.185 24.5507 127.536 25.0151 127.862 25.4548C128.188 25.8873 128.468 26.2773 128.702 26.6247C128.702 25.1073 128.695 23.8027 128.681 22.7107C128.674 21.6117 128.663 20.6793 128.649 19.9135C128.635 19.1406 128.617 18.506 128.596 18.0097C128.575 17.5134 128.557 17.1021 128.543 16.7759C128.529 16.4498 128.514 16.1839 128.5 15.9783C128.493 15.7655 128.49 15.5635 128.49 15.372C128.49 15.0884 128.518 14.858 128.575 14.6807C128.638 14.4963 128.724 14.3545 128.83 14.2553C128.943 14.156 129.082 14.0886 129.245 14.0532C129.408 14.0177 129.596 14 129.808 14C130.085 14 130.301 14.0567 130.457 14.1702C130.613 14.2836 130.73 14.429 130.808 14.6062C130.893 14.7764 130.943 14.9714 130.957 15.1912C130.978 15.4039 130.989 15.6131 130.989 15.8187V28.018C130.989 28.2732 131.003 28.5321 131.031 28.7944C131.06 29.0497 131.074 29.3226 131.074 29.6134C131.074 29.8899 131.053 30.1203 131.01 30.3047C130.968 30.4819 130.897 30.6273 130.797 30.7408C130.705 30.8542 130.581 30.9322 130.425 30.9747C130.276 31.0244 130.096 31.0492 129.883 31.0492C129.486 31.0492 129.167 30.9499 128.926 30.7514C128.692 30.5529 128.525 30.3118 128.426 30.0282C127.752 29.1064 127.068 28.1988 126.373 27.3054C125.685 26.4049 124.99 25.5079 124.288 24.6145C123.586 23.714 122.881 22.81 122.172 21.9024C121.463 20.9877 120.757 20.0589 120.055 19.1158L119.417 18.1161C119.424 19.2009 119.431 20.1688 119.438 21.0196C119.446 21.8634 119.453 22.6185 119.46 23.2851C119.467 23.9445 119.474 24.5294 119.481 25.04C119.488 25.5434 119.492 25.9972 119.492 26.4013C119.499 26.7984 119.502 27.1636 119.502 27.4968C119.509 27.823 119.513 28.1421 119.513 28.4541C119.52 28.6384 119.531 28.8369 119.545 29.0497C119.566 29.2553 119.577 29.4574 119.577 29.6559C119.577 29.8403 119.559 30.0175 119.524 30.1877C119.495 30.3579 119.435 30.5068 119.343 30.6344C119.251 30.762 119.119 30.8613 118.949 30.9322C118.786 31.0102 118.57 31.0492 118.3 31.0492C117.939 31.0492 117.634 30.9606 117.386 30.7833C117.138 30.606 117.013 30.365 117.013 30.0601Z" fill="white"/>
<path d="M135.296 29.5389C135.296 29.4184 135.311 29.2907 135.339 29.156C135.374 29.0213 135.41 28.8972 135.445 28.7838L135.541 28.4434L135.296 15.723C135.296 15.3756 135.335 15.1061 135.413 14.9147C135.499 14.7232 135.605 14.5814 135.733 14.4892C135.86 14.3971 136.005 14.3439 136.169 14.3297C136.339 14.3155 136.509 14.3084 136.679 14.3084H142.284C142.412 14.2943 142.554 14.2765 142.71 14.2553C142.873 14.2269 142.986 14.2127 143.05 14.2127C143.319 14.2127 143.536 14.2375 143.699 14.2872C143.869 14.3368 144 14.4113 144.092 14.5105C144.192 14.6027 144.255 14.7197 144.284 14.8615C144.319 15.0033 144.337 15.1699 144.337 15.3614C144.337 15.6308 144.301 15.8471 144.231 16.0102C144.167 16.1732 144.075 16.3009 143.954 16.3931C143.841 16.4781 143.706 16.5349 143.55 16.5632C143.394 16.5916 143.227 16.6058 143.05 16.6058C142.972 16.6058 142.869 16.6058 142.741 16.6058C142.614 16.5987 142.479 16.588 142.337 16.5739C141.65 16.5739 141.093 16.5739 140.668 16.5739C140.249 16.5739 139.912 16.5774 139.657 16.5845C139.409 16.5845 139.218 16.5845 139.083 16.5845C138.955 16.5845 138.842 16.5845 138.742 16.5845H137.753V19.956C137.796 19.956 137.845 19.9596 137.902 19.9667C137.966 19.9667 138.062 19.9667 138.189 19.9667C138.317 19.9667 138.491 19.9667 138.711 19.9667C138.937 19.9667 139.239 19.9667 139.615 19.9667C139.99 19.9667 140.455 19.9667 141.008 19.9667C141.561 19.9667 142.231 19.9667 143.018 19.9667C143.096 19.9667 143.185 19.9631 143.284 19.956C143.383 19.949 143.482 19.9383 143.582 19.9241C143.709 19.91 143.858 19.8958 144.028 19.8816C144.199 19.8674 144.383 19.8603 144.581 19.8603C144.773 19.8603 144.943 19.8993 145.092 19.9773C145.241 20.0553 145.365 20.1546 145.464 20.2751C145.571 20.3886 145.649 20.5127 145.698 20.6474C145.755 20.7821 145.783 20.9097 145.783 21.0303C145.783 21.4132 145.656 21.6932 145.4 21.8705C145.152 22.0478 144.83 22.1364 144.433 22.1364L137.753 22.147V28.5179C138.455 28.5179 139.161 28.5285 139.87 28.5498C140.579 28.5711 141.32 28.5817 142.093 28.5817C142.305 28.5817 142.5 28.5711 142.678 28.5498C142.855 28.5285 143.025 28.5037 143.188 28.4753C143.337 28.4541 143.486 28.4363 143.635 28.4221C143.791 28.4009 143.961 28.3902 144.145 28.3902C144.358 28.3902 144.553 28.408 144.73 28.4434C144.915 28.4718 145.074 28.5285 145.209 28.6136C145.344 28.6916 145.45 28.8015 145.528 28.9433C145.606 29.078 145.645 29.2517 145.645 29.4645C145.645 29.7764 145.592 30.0175 145.486 30.1877C145.379 30.3579 145.234 30.4855 145.049 30.5706C144.872 30.6486 144.667 30.6982 144.433 30.7195C144.206 30.7337 143.968 30.7408 143.72 30.7408H136.562C136.378 30.7408 136.208 30.7195 136.052 30.6769C135.903 30.6344 135.772 30.567 135.658 30.4749C135.545 30.3756 135.456 30.2515 135.392 30.1026C135.328 29.9466 135.296 29.7587 135.296 29.5389Z" fill="white"/>
<path d="M148.889 26.9225C148.924 26.3482 149.041 25.9121 149.24 25.6143C149.446 25.3094 149.804 25.157 150.314 25.157C150.633 25.157 150.906 25.2491 151.133 25.4335C151.36 25.6108 151.473 25.8589 151.473 26.178C151.473 26.3623 151.456 26.5467 151.42 26.7311C151.385 26.9154 151.374 27.1069 151.388 27.3054C151.417 27.5465 151.523 27.7663 151.707 27.9648C151.892 28.1633 152.126 28.3371 152.409 28.486C152.693 28.6278 153.016 28.7412 153.377 28.8263C153.739 28.9043 154.108 28.9433 154.483 28.9433C154.866 28.9433 155.246 28.9114 155.621 28.8476C156.004 28.7767 156.348 28.649 156.653 28.4647C156.965 28.2803 157.217 28.0286 157.408 27.7096C157.6 27.3905 157.695 26.9757 157.695 26.4652C157.695 26.1319 157.614 25.8199 157.451 25.5292C157.288 25.2314 157.079 24.962 156.823 24.7209C156.568 24.4727 156.284 24.2494 155.972 24.0508C155.668 23.8523 155.373 23.6786 155.09 23.5297C154.686 23.3241 154.271 23.1255 153.845 22.9341C153.427 22.7355 153.016 22.5299 152.612 22.3172C152.214 22.0974 151.835 21.8599 151.473 21.6046C151.119 21.3422 150.807 21.0374 150.538 20.6899C150.268 20.3425 150.055 19.9419 149.899 19.4881C149.743 19.0272 149.665 18.4954 149.665 17.8927C149.665 17.2191 149.807 16.6377 150.091 16.1484C150.382 15.6592 150.761 15.255 151.229 14.936C151.697 14.6169 152.232 14.3829 152.835 14.234C153.445 14.078 154.069 14 154.707 14C155.274 14 155.824 14.0496 156.355 14.1489C156.887 14.2482 157.362 14.4113 157.781 14.6381C158.199 14.858 158.546 15.1558 158.823 15.5316C159.099 15.9003 159.266 16.3541 159.323 16.8929C159.337 17.0915 159.312 17.2687 159.248 17.4247C159.184 17.5736 159.096 17.7013 158.982 17.8076C158.869 17.9069 158.738 17.9849 158.589 18.0416C158.447 18.0912 158.302 18.1161 158.153 18.1161C157.926 18.1161 157.734 18.0806 157.578 18.0097C157.422 17.9388 157.295 17.8502 157.196 17.7438C157.096 17.6374 157.022 17.5169 156.972 17.3822C156.923 17.2475 156.891 17.1163 156.876 16.9887C156.77 16.8185 156.632 16.6802 156.462 16.5739C156.292 16.4604 156.1 16.3718 155.887 16.308C155.682 16.2371 155.465 16.191 155.239 16.1697C155.012 16.1413 154.792 16.1272 154.579 16.1272C154.281 16.1272 153.984 16.1591 153.686 16.2229C153.395 16.2867 153.129 16.3895 152.888 16.5313C152.647 16.6731 152.452 16.8539 152.303 17.0737C152.154 17.2936 152.08 17.563 152.08 17.8821C152.08 18.2579 152.168 18.5911 152.346 18.8818C152.523 19.1725 152.746 19.4314 153.016 19.6582C153.285 19.8851 153.583 20.0908 153.909 20.2751C154.242 20.4595 154.565 20.6297 154.877 20.7856C155.253 20.9771 155.643 21.1827 156.047 21.4025C156.451 21.6152 156.845 21.8492 157.227 22.1045C157.617 22.3527 157.986 22.6256 158.334 22.9234C158.681 23.2212 158.986 23.5545 159.248 23.9232C159.511 24.2848 159.716 24.6819 159.865 25.1144C160.021 25.5469 160.099 26.0255 160.099 26.5502C160.099 27.1104 160.021 27.6103 159.865 28.0499C159.709 28.4895 159.496 28.8759 159.227 29.2092C158.958 29.5425 158.642 29.8261 158.28 30.0601C157.919 30.2941 157.529 30.4855 157.11 30.6344C156.692 30.7833 156.256 30.8897 155.802 30.9535C155.356 31.0244 154.909 31.0598 154.462 31.0598C154.086 31.0598 153.682 31.0279 153.25 30.9641C152.824 30.9003 152.402 30.801 151.984 30.6663C151.566 30.5245 151.165 30.3472 150.782 30.1345C150.406 29.9147 150.073 29.6524 149.782 29.3475C149.499 29.0355 149.275 28.681 149.112 28.2839C148.949 27.8797 148.875 27.4259 148.889 26.9225Z" fill="white"/>
<path d="M163.184 22.5193C163.184 21.2572 163.361 20.105 163.715 19.0626C164.077 18.0203 164.584 17.1234 165.236 16.3718C165.896 15.6202 166.686 15.0388 167.608 14.6275C168.537 14.2092 169.565 14 170.692 14C171.884 14 172.933 14.2092 173.841 14.6275C174.755 15.0388 175.521 15.6202 176.138 16.3718C176.762 17.1234 177.233 18.0203 177.552 19.0626C177.872 20.105 178.031 21.2572 178.031 22.5193C178.031 23.7176 177.857 24.8379 177.51 25.8802C177.163 26.9154 176.666 27.8159 176.021 28.5817C175.376 29.3475 174.596 29.9502 173.681 30.3898C172.766 30.8294 171.742 31.0492 170.607 31.0492C169.856 31.0492 169.15 30.9499 168.491 30.7514C167.831 30.5529 167.225 30.2692 166.672 29.9005C166.126 29.5318 165.637 29.0922 165.204 28.5817C164.772 28.0641 164.403 27.4897 164.098 26.8587C163.8 26.2276 163.573 25.5469 163.418 24.8166C163.262 24.0863 163.184 23.3205 163.184 22.5193ZM165.608 22.5193C165.608 23.0511 165.658 23.5793 165.757 24.104C165.857 24.6216 166.002 25.118 166.193 25.593C166.392 26.061 166.633 26.4971 166.917 26.9012C167.207 27.2983 167.537 27.6457 167.906 27.9435C168.282 28.2342 168.696 28.4647 169.15 28.6349C169.611 28.7979 170.107 28.8795 170.639 28.8795C171.199 28.8795 171.71 28.7979 172.171 28.6349C172.632 28.4647 173.046 28.2342 173.415 27.9435C173.784 27.6457 174.103 27.2983 174.372 26.9012C174.649 26.4971 174.876 26.061 175.053 25.593C175.237 25.118 175.372 24.6216 175.457 24.104C175.549 23.5793 175.595 23.0511 175.595 22.5193C175.595 21.6684 175.496 20.8636 175.298 20.105C175.099 19.3392 174.794 18.6656 174.383 18.0841C173.979 17.5027 173.465 17.0418 172.841 16.7015C172.224 16.3611 171.49 16.191 170.639 16.191C169.838 16.191 169.125 16.3434 168.501 16.6483C167.877 16.9532 167.349 17.3822 166.917 17.9352C166.491 18.4883 166.165 19.1548 165.938 19.9348C165.718 20.7076 165.608 21.5691 165.608 22.5193Z" fill="white"/>
<path d="M181.743 29.5602C181.743 29.4042 181.75 29.2517 181.764 29.1028C181.778 28.9539 181.793 28.8157 181.807 28.688C181.807 27.7025 181.807 26.7949 181.807 25.9653C181.807 25.1357 181.807 24.3628 181.807 23.6467C181.807 22.9234 181.807 22.2463 181.807 21.6152C181.807 20.9842 181.807 20.3744 181.807 19.7859C181.807 19.1903 181.807 18.6088 181.807 18.0416C181.814 17.4673 181.817 16.8823 181.817 16.2867C181.782 16.1874 181.747 16.0492 181.711 15.8719C181.683 15.6946 181.669 15.528 181.669 15.372C181.669 15.2231 181.69 15.0742 181.732 14.9253C181.782 14.7764 181.853 14.6452 181.945 14.5318C182.044 14.4113 182.165 14.3155 182.307 14.2446C182.448 14.1737 182.612 14.1383 182.796 14.1383C183.094 14.1383 183.395 14.156 183.7 14.1914C184.005 14.2269 184.349 14.2446 184.732 14.2446C185.051 14.2446 185.37 14.2304 185.689 14.2021C186.008 14.1666 186.348 14.1454 186.71 14.1383C187.781 14.1383 188.748 14.2446 189.613 14.4573C190.486 14.6701 191.227 14.9998 191.836 15.4465C192.453 15.8932 192.928 16.464 193.262 17.1588C193.595 17.8466 193.761 18.6691 193.761 19.6263C193.761 20.5339 193.634 21.3422 193.379 22.0513C193.13 22.7533 192.808 23.3666 192.411 23.8913C192.021 24.416 191.581 24.8556 191.092 25.2101C190.61 25.5576 190.138 25.8235 189.677 26.0078C189.741 26.3907 189.84 26.7523 189.975 27.0927C190.117 27.4259 190.294 27.7202 190.507 27.9754C190.727 28.2307 190.982 28.4328 191.273 28.5817C191.563 28.7306 191.89 28.805 192.251 28.805C192.521 28.805 192.765 28.7625 192.985 28.6774C193.212 28.5923 193.407 28.4257 193.57 28.1775C193.669 28.0357 193.79 27.9116 193.932 27.8053C194.073 27.6918 194.254 27.6351 194.474 27.6351C194.857 27.6351 195.155 27.7415 195.367 27.9542C195.58 28.1669 195.687 28.4363 195.687 28.7625C195.687 29.0674 195.598 29.3581 195.421 29.6346C195.25 29.9112 195.006 30.1558 194.687 30.3685C194.375 30.5741 193.995 30.7372 193.549 30.8577C193.102 30.9854 192.606 31.0492 192.06 31.0492C191.556 31.0492 191.099 30.9747 190.688 30.8258C190.284 30.684 189.918 30.4926 189.592 30.2515C189.273 30.0033 188.99 29.7233 188.741 29.4113C188.493 29.0922 188.28 28.7625 188.103 28.4221C187.926 28.0747 187.781 27.7308 187.667 27.3905C187.554 27.0501 187.465 26.7311 187.401 26.4333C187.316 26.4333 187.203 26.4333 187.061 26.4333C186.919 26.4333 186.774 26.4333 186.625 26.4333C186.476 26.4333 186.327 26.4333 186.178 26.4333C186.036 26.4262 185.919 26.4226 185.827 26.4226C185.622 26.4155 185.366 26.412 185.061 26.412C184.764 26.4049 184.491 26.4013 184.242 26.4013V27.9542C184.257 28.2874 184.299 28.6136 184.37 28.9327C184.441 29.2447 184.476 29.5673 184.476 29.9005C184.476 30.1062 184.434 30.2799 184.349 30.4217C184.271 30.5635 184.168 30.6805 184.04 30.7727C183.913 30.8719 183.774 30.9428 183.626 30.9854C183.477 31.0279 183.335 31.0492 183.2 31.0492C182.987 31.0492 182.792 31.0102 182.615 30.9322C182.438 30.8613 182.285 30.762 182.158 30.6344C182.03 30.4997 181.927 30.3437 181.849 30.1664C181.778 29.9821 181.743 29.78 181.743 29.5602ZM184.232 24.1146C184.416 24.1217 184.632 24.1288 184.881 24.1359C185.129 24.143 185.366 24.1501 185.593 24.1572C185.82 24.1643 186.022 24.1714 186.199 24.1785C186.377 24.1785 186.49 24.1785 186.54 24.1785C187.497 24.1785 188.28 24.0473 188.89 23.7849C189.507 23.5226 189.989 23.1752 190.337 22.7426C190.684 22.3101 190.922 21.8138 191.049 21.2536C191.184 20.6935 191.251 20.1191 191.251 19.5306C191.251 19.013 191.17 18.5769 191.007 18.2224C190.844 17.8608 190.627 17.563 190.358 17.329C190.089 17.095 189.784 16.9107 189.443 16.7759C189.103 16.6412 188.756 16.542 188.401 16.4781C188.054 16.4143 187.71 16.3753 187.369 16.3611C187.036 16.347 186.742 16.3399 186.487 16.3399C186.125 16.3399 185.756 16.347 185.38 16.3611C185.012 16.3682 184.611 16.3753 184.179 16.3824C184.164 16.6519 184.154 16.8965 184.147 17.1163C184.147 17.3361 184.143 17.5524 184.136 17.7651C184.136 17.9707 184.136 18.1834 184.136 18.4032C184.136 18.6159 184.136 18.857 184.136 19.1265C184.136 19.6086 184.136 20.0589 184.136 20.4772C184.143 20.8885 184.15 21.2926 184.157 21.6897C184.164 22.0797 184.171 22.4732 184.179 22.8703C184.193 23.2673 184.21 23.6821 184.232 24.1146ZM189.22 26.1567C189.213 26.1567 189.209 26.1603 189.209 26.1674L189.22 26.1567ZM189.199 26.1674H189.209H189.199Z" fill="white"/>
<path d="M74 43.4133C74 43.3444 74.0014 43.2672 74.0041 43.1817C74.0069 43.0935 74.0152 43.0052 74.029 42.917C74.0427 42.8287 74.062 42.7419 74.0869 42.6564C74.1144 42.5709 74.1503 42.4951 74.1944 42.4289C74.2413 42.3627 74.2978 42.3104 74.364 42.2717C74.4329 42.2304 74.517 42.2097 74.6163 42.2097C74.7459 42.2097 74.8548 42.2469 74.943 42.3214C75.034 42.3931 75.0795 42.5116 75.0795 42.6771C75.0795 42.7433 75.0713 42.8081 75.0547 42.8715C75.0409 42.9322 75.0258 42.9942 75.0092 43.0576C74.9927 43.121 74.9761 43.1858 74.9596 43.252C74.9458 43.3154 74.9389 43.3816 74.9389 43.4506C74.9389 43.627 74.9761 43.7801 75.0506 43.9097C75.1278 44.0393 75.2284 44.1482 75.3525 44.2364C75.4794 44.3219 75.6255 44.3867 75.791 44.4308C75.9592 44.4722 76.1343 44.4929 76.3162 44.4929C76.5148 44.4929 76.6899 44.4625 76.8415 44.4019C76.9959 44.3384 77.1255 44.2364 77.2303 44.0958C77.3351 43.9552 77.4151 43.7718 77.4702 43.5457C77.5254 43.3168 77.5529 43.0356 77.5529 42.7019V40.7869C77.5529 40.5663 77.5488 40.3857 77.5405 40.245C77.535 40.1044 77.5268 39.9789 77.5157 39.8686C77.5075 39.7584 77.4992 39.6536 77.4909 39.5543C77.4854 39.4523 77.4826 39.3323 77.4826 39.1945C77.4826 39.1145 77.495 39.0469 77.5199 38.9918C77.5474 38.9339 77.5847 38.8884 77.6315 38.8553C77.6784 38.8194 77.7322 38.7933 77.7928 38.7767C77.8563 38.7602 77.9238 38.7519 77.9955 38.7519C78.1775 38.7519 78.3002 38.8029 78.3636 38.9049C78.4271 39.0042 78.4588 39.1476 78.4588 39.3351C78.4588 39.4399 78.4574 39.5336 78.4546 39.6163C78.4546 39.6963 78.4532 39.7859 78.4505 39.8852C78.4505 39.9845 78.4491 40.103 78.4464 40.2409C78.4464 40.376 78.4464 40.5511 78.4464 40.7662L78.4836 42.8839C78.4836 43.1955 78.4491 43.5002 78.3802 43.798C78.314 44.0958 78.1982 44.3633 78.0327 44.6004C77.8701 44.8348 77.6495 45.0237 77.371 45.1671C77.0952 45.3104 76.7478 45.3821 76.3286 45.3821C76.177 45.3821 76.0129 45.3697 75.8364 45.3449C75.6627 45.3201 75.489 45.2787 75.3153 45.2208C75.1443 45.1602 74.9789 45.0816 74.819 44.9851C74.6618 44.8858 74.5225 44.7631 74.4012 44.6169C74.2799 44.4708 74.182 44.2985 74.1075 44.0999C74.0358 43.9014 74 43.6725 74 43.4133Z" fill="white"/>
<path d="M80.2166 43.0038C80.2166 42.7446 80.2442 42.4648 80.2993 42.1642C80.3573 41.8636 80.4496 41.5755 80.5765 41.2998C80.5213 41.3163 80.4703 41.3246 80.4234 41.3246C80.3187 41.3246 80.2373 41.3066 80.1794 41.2708C80.1215 41.2322 80.0788 41.1881 80.0512 41.1384C80.0264 41.0888 80.0112 41.0378 80.0057 40.9854C80.0029 40.933 80.0015 40.8917 80.0015 40.8613C80.0015 40.7786 80.0153 40.711 80.0429 40.6587C80.0705 40.6035 80.1091 40.5594 80.1587 40.5263C80.2084 40.4932 80.269 40.467 80.3407 40.4477C80.4152 40.4284 80.4979 40.4091 80.5889 40.3898C80.6358 40.3843 80.6868 40.3719 80.7419 40.3526C80.7971 40.3305 80.8508 40.3085 80.9032 40.2864C80.9749 40.2561 81.0507 40.2285 81.1307 40.2037C81.2107 40.1789 81.2934 40.1665 81.3789 40.1665C81.4671 40.1665 81.5416 40.1789 81.6022 40.2037C81.6657 40.2285 81.7167 40.263 81.7553 40.3071C81.7966 40.3484 81.8256 40.3981 81.8421 40.456C81.8614 40.5111 81.8711 40.5704 81.8711 40.6338C81.8711 40.7138 81.8532 40.7951 81.8173 40.8779C81.7815 40.9606 81.7305 41.0392 81.6643 41.1136C81.576 41.2129 81.4988 41.3356 81.4327 41.4817C81.3665 41.6279 81.3099 41.7864 81.2631 41.9574C81.219 42.1256 81.1845 42.3007 81.1597 42.4827C81.1376 42.6619 81.1266 42.8356 81.1266 43.0038C81.1266 43.5222 81.2327 43.9041 81.4451 44.1496C81.6601 44.395 81.9759 44.5177 82.3922 44.5177C82.5274 44.5177 82.6625 44.4984 82.7976 44.4598C82.9355 44.4212 83.0692 44.3688 83.1988 44.3026C83.3311 44.2337 83.4566 44.1537 83.5752 44.0627C83.6965 43.9689 83.8096 43.8683 83.9143 43.7608C83.9199 43.5264 83.924 43.3099 83.9267 43.1114C83.9295 42.9101 83.9309 42.7143 83.9309 42.5241C83.9309 42.4082 83.9309 42.2993 83.9309 42.1973C83.9309 42.0925 83.9295 41.9905 83.9267 41.8912C83.924 41.7892 83.9212 41.6844 83.9185 41.5769C83.9157 41.4666 83.9116 41.3466 83.9061 41.217C83.8206 41.2418 83.7392 41.2612 83.662 41.2749C83.5848 41.2887 83.5269 41.2956 83.4883 41.2956C83.4304 41.2956 83.3753 41.286 83.3229 41.2667C83.2705 41.2474 83.2236 41.2184 83.1822 41.1798C83.1409 41.1412 83.1078 41.0929 83.083 41.035C83.0582 40.9744 83.0457 40.9041 83.0457 40.8241C83.0457 40.7386 83.0609 40.6697 83.0912 40.6173C83.1243 40.5621 83.1698 40.5194 83.2277 40.4891C83.2884 40.456 83.3601 40.4298 83.4428 40.4105C83.5255 40.3912 83.6179 40.3705 83.7199 40.3484C83.7778 40.3402 83.833 40.3264 83.8854 40.3071C83.9405 40.285 83.9957 40.2643 84.0508 40.245C84.106 40.223 84.1625 40.2051 84.2204 40.1913C84.2783 40.1747 84.339 40.1665 84.4024 40.1665C84.5017 40.1665 84.5775 40.1844 84.6299 40.2202C84.6823 40.2533 84.7209 40.3002 84.7457 40.3608C84.7705 40.4188 84.7843 40.4891 84.7871 40.5718C84.7926 40.6518 84.7953 40.7372 84.7953 40.8282C84.7953 40.9082 84.7953 41.0116 84.7953 41.1384C84.7953 41.2625 84.7967 41.4032 84.7995 41.5603C84.7995 42.0126 84.8036 42.473 84.8119 42.9418C84.8202 43.4078 84.8243 43.9069 84.8243 44.4391C84.8243 44.5135 84.8284 44.5894 84.8367 44.6666C84.8477 44.741 84.8532 44.8224 84.8532 44.9106C84.8532 44.9851 84.8477 45.0512 84.8367 45.1091C84.8284 45.1643 84.805 45.2112 84.7664 45.2498C84.7305 45.2884 84.6754 45.3187 84.6009 45.3408C84.5292 45.3656 84.4286 45.3794 84.299 45.3821C84.2163 45.3821 84.146 45.3656 84.0881 45.3325C84.0329 45.3022 83.9874 45.2636 83.9516 45.2167C83.9185 45.1698 83.8937 45.1202 83.8771 45.0678C83.8633 45.0126 83.8564 44.963 83.8564 44.9189C83.8564 44.8886 83.8578 44.8651 83.8606 44.8486C83.8661 44.8293 83.8716 44.8058 83.8771 44.7783C83.7503 44.8886 83.6193 44.9823 83.4842 45.0595C83.3518 45.134 83.2208 45.196 83.0912 45.2456C82.9616 45.2925 82.8348 45.327 82.7107 45.349C82.5894 45.3711 82.4763 45.3821 82.3716 45.3821C81.6546 45.3821 81.1155 45.1795 80.7543 44.7741C80.3959 44.3688 80.2166 43.7787 80.2166 43.0038Z" fill="white"/>
<path d="M86.6856 44.9561C86.6856 44.9065 86.6869 44.8555 86.6897 44.8031C86.6952 44.7507 86.7007 44.6997 86.7062 44.65C86.7145 44.5756 86.7228 44.4942 86.7311 44.406C86.7393 44.3178 86.7435 44.2185 86.7435 44.1082C86.7435 43.8931 86.7421 43.6904 86.7393 43.5002C86.7393 43.3072 86.7366 43.1086 86.7311 42.9046C86.7311 42.8991 86.7311 42.8908 86.7311 42.8798C86.7311 42.866 86.7297 42.8398 86.7269 42.8012C86.7269 42.7626 86.7255 42.706 86.7228 42.6316C86.7228 42.5571 86.7214 42.4524 86.7186 42.3172C86.7159 42.1821 86.7118 42.0139 86.7062 41.8126C86.7035 41.6086 86.6993 41.3604 86.6938 41.0681C86.658 41.0736 86.6152 41.0792 86.5656 41.0847C86.5187 41.0874 86.4622 41.0888 86.396 41.0888C86.3464 41.0888 86.2954 41.0805 86.243 41.064C86.1934 41.0474 86.1465 41.0226 86.1024 40.9895C86.061 40.9537 86.0265 40.9082 85.999 40.8531C85.9741 40.7951 85.9617 40.7248 85.9617 40.6421C85.9617 40.4932 85.999 40.3815 86.0734 40.3071C86.1506 40.2299 86.2444 40.1913 86.3547 40.1913C86.3988 40.1913 86.4415 40.1968 86.4829 40.2078C86.5242 40.2188 86.5684 40.2244 86.6152 40.2244C86.6704 40.2244 86.7269 40.223 86.7848 40.2202C86.8427 40.2175 86.8993 40.2133 86.9544 40.2078C87.0151 40.2023 87.0744 40.1982 87.1323 40.1954C87.1929 40.1926 87.2467 40.1913 87.2936 40.1913C87.4066 40.1913 87.5004 40.2285 87.5748 40.3029C87.6493 40.3774 87.6865 40.4822 87.6865 40.6173C87.6865 40.6504 87.6851 40.689 87.6824 40.7331C87.6824 40.7772 87.6796 40.82 87.6741 40.8613C87.7678 40.7703 87.874 40.6835 87.9926 40.6007C88.1111 40.518 88.2394 40.445 88.3772 40.3815C88.5179 40.3154 88.6681 40.263 88.8281 40.2244C88.988 40.1858 89.1576 40.1665 89.3368 40.1665C89.687 40.1665 89.9931 40.2244 90.2551 40.3402C90.5198 40.4532 90.7404 40.6187 90.9168 40.8365C91.0961 41.0516 91.2298 41.3163 91.318 41.6306C91.409 41.945 91.4545 42.3021 91.4545 42.7019C91.4545 42.8232 91.4463 42.9501 91.4297 43.0824C91.4132 43.2148 91.3897 43.3471 91.3594 43.4795C91.3318 43.6119 91.2974 43.7442 91.256 43.8766C91.2174 44.0062 91.1733 44.1289 91.1236 44.2447C91.1871 44.2254 91.2477 44.2088 91.3056 44.1951C91.3635 44.1813 91.4118 44.1716 91.4504 44.1661C91.7592 44.1358 91.9136 44.2764 91.9136 44.588C91.9136 44.6266 91.9095 44.6693 91.9012 44.7162C91.893 44.7603 91.8764 44.8044 91.8516 44.8486C91.8268 44.8899 91.7923 44.9299 91.7482 44.9685C91.7041 45.0044 91.6476 45.0347 91.5786 45.0595L91.1319 45.1629C90.994 45.2043 90.8824 45.2387 90.7969 45.2663C90.7142 45.2966 90.6438 45.3201 90.5859 45.3366C90.5308 45.3559 90.4839 45.3683 90.4453 45.3739C90.4067 45.3821 90.364 45.3849 90.3171 45.3821C90.2509 45.3821 90.193 45.3656 90.1434 45.3325C90.0937 45.3022 90.0524 45.2636 90.0193 45.2167C89.9862 45.1671 89.9614 45.1133 89.9448 45.0554C89.9283 44.9975 89.92 44.9409 89.92 44.8858C89.92 44.7976 89.9324 44.7079 89.9572 44.6169C89.9821 44.5259 90.0262 44.4432 90.0896 44.3688C90.1668 44.2695 90.2316 44.1578 90.284 44.0337C90.3392 43.9097 90.3833 43.7759 90.4164 43.6325C90.4494 43.4892 90.4729 43.3389 90.4867 43.1817C90.5032 43.0245 90.5115 42.8646 90.5115 42.7019C90.5115 42.5144 90.4908 42.3241 90.4494 42.1311C90.4108 41.9353 90.3433 41.7589 90.2468 41.6017C90.153 41.4418 90.0276 41.3122 89.8704 41.2129C89.716 41.1109 89.5216 41.0599 89.2872 41.0599C89.1245 41.0599 88.9646 41.0861 88.8074 41.1384C88.653 41.1881 88.5041 41.2556 88.3607 41.3411C88.2201 41.4238 88.0877 41.519 87.9636 41.6265C87.8395 41.7341 87.7306 41.8443 87.6369 41.9574C87.6341 42.0815 87.6314 42.2069 87.6286 42.3338C87.6286 42.4579 87.6286 42.5833 87.6286 42.7102C87.6231 42.9253 87.6189 43.139 87.6162 43.3513C87.6134 43.5636 87.6121 43.7787 87.6121 43.9965C87.6121 44.0599 87.6121 44.1247 87.6121 44.1909C87.6121 44.2543 87.6148 44.3219 87.6203 44.3936L87.732 44.3605C87.7623 44.3522 87.7913 44.3453 87.8189 44.3398C87.8492 44.3315 87.8754 44.3274 87.8974 44.3274C88.0463 44.3274 88.1594 44.3646 88.2366 44.4391C88.3138 44.5108 88.3524 44.6169 88.3524 44.7576C88.3524 44.8624 88.3317 44.9465 88.2904 45.0099C88.249 45.0705 88.1966 45.1188 88.1332 45.1546C88.0698 45.1877 87.9995 45.2112 87.9223 45.225C87.8478 45.2387 87.7747 45.2498 87.703 45.258C87.6644 45.2636 87.6272 45.2677 87.5914 45.2705C87.5555 45.276 87.5252 45.2829 87.5004 45.2911C87.4121 45.316 87.3363 45.3366 87.2729 45.3532C87.2095 45.3725 87.1543 45.3821 87.1074 45.3821C86.9448 45.3821 86.8331 45.3449 86.7724 45.2705C86.7145 45.196 86.6856 45.0912 86.6856 44.9561Z" fill="white"/>
<path d="M93.4027 44.0627L93.3778 41.1467L92.8774 41.1509C92.8139 41.1509 92.7588 41.1384 92.7119 41.1136C92.665 41.0861 92.6251 41.0502 92.592 41.0061C92.5616 40.9592 92.5382 40.9068 92.5217 40.8489C92.5051 40.791 92.4968 40.7303 92.4968 40.6669C92.4968 40.5594 92.5093 40.478 92.5341 40.4229C92.5616 40.365 92.6002 40.3236 92.6499 40.2988C92.6995 40.2712 92.7602 40.2561 92.8319 40.2533C92.9036 40.2478 92.9863 40.245 93.08 40.245H93.3737V40.092C93.3737 39.99 93.3723 39.9073 93.3696 39.8438C93.3696 39.7804 93.3696 39.7377 93.3696 39.7156C93.3696 39.6356 93.3613 39.5557 93.3448 39.4757C93.331 39.3957 93.3241 39.3144 93.3241 39.2317C93.3241 39.1627 93.3323 39.1021 93.3489 39.0497C93.3654 38.9973 93.393 38.9532 93.4316 38.9173C93.473 38.8787 93.5267 38.8498 93.5929 38.8305C93.6591 38.8112 93.7404 38.8015 93.837 38.8015C93.9031 38.8015 93.9652 38.807 94.0231 38.8181C94.0837 38.8291 94.1361 38.8512 94.1803 38.8842C94.2271 38.9146 94.2644 38.9573 94.2919 39.0125C94.3195 39.0676 94.3333 39.1393 94.3333 39.2275C94.3333 39.3461 94.3223 39.4633 94.3002 39.5791C94.2809 39.6949 94.2726 39.8149 94.2754 39.939V40.2409C94.4905 40.2354 94.6573 40.2313 94.7759 40.2285C94.8972 40.2257 94.9951 40.223 95.0695 40.2202C95.0806 40.2202 95.0902 40.2202 95.0985 40.2202C95.1095 40.2175 95.1192 40.2161 95.1274 40.2161C95.1605 40.2133 95.1977 40.2119 95.2391 40.2119C95.2805 40.2119 95.3136 40.2119 95.3384 40.2119C95.3908 40.2119 95.4418 40.2202 95.4914 40.2368C95.541 40.2533 95.5838 40.2809 95.6196 40.3195C95.6582 40.3581 95.6886 40.4077 95.7106 40.4684C95.7327 40.5291 95.7437 40.6021 95.7437 40.6876C95.7437 40.7538 95.7382 40.8158 95.7272 40.8737C95.7161 40.9316 95.6955 40.9827 95.6651 41.0268C95.6348 41.0709 95.5907 41.1067 95.5328 41.1343C95.4749 41.1591 95.4004 41.1715 95.3094 41.1715C95.2239 41.1715 95.1371 41.1674 95.0488 41.1591C94.9634 41.1481 94.8751 41.1412 94.7841 41.1384L94.2837 41.1426L94.3126 44.406C94.4257 44.3867 94.5249 44.3688 94.6104 44.3522C94.6959 44.3357 94.7759 44.3191 94.8503 44.3026C94.9248 44.2861 94.9978 44.2667 95.0695 44.2447C95.1412 44.2226 95.2198 44.1951 95.3053 44.162C95.3522 44.1372 95.4073 44.1123 95.4707 44.0875C95.5342 44.0599 95.6003 44.0462 95.6693 44.0462C95.8044 44.0462 95.9105 44.093 95.9877 44.1868C96.065 44.2778 96.1036 44.3977 96.1036 44.5466C96.1036 44.5852 96.0939 44.628 96.0746 44.6748C96.0581 44.7217 96.0319 44.7686 95.996 44.8155C95.9602 44.8596 95.9133 44.901 95.8554 44.9396C95.8002 44.9754 95.7341 45.0016 95.6569 45.0181C95.5741 45.0347 95.479 45.0554 95.3715 45.0802C95.2639 45.105 95.1509 45.1312 95.0323 45.1588C94.9137 45.1864 94.7952 45.2139 94.6766 45.2415C94.558 45.2691 94.4463 45.2925 94.3416 45.3118C94.2368 45.3339 94.1444 45.3518 94.0644 45.3656C93.9845 45.3794 93.9238 45.3849 93.8825 45.3821C93.8328 45.3821 93.7777 45.3752 93.717 45.3614C93.6591 45.3504 93.6053 45.3284 93.5557 45.2953C93.5061 45.2649 93.4647 45.2222 93.4316 45.1671C93.4013 45.1091 93.3861 45.0361 93.3861 44.9478L93.4027 44.0627Z" fill="white"/>
<path d="M96.8108 42.7681C96.8108 42.4096 96.877 42.0732 97.0094 41.7589C97.1445 41.4418 97.3279 41.166 97.5595 40.9316C97.7939 40.6945 98.0669 40.5084 98.3784 40.3733C98.69 40.2354 99.0237 40.1665 99.3794 40.1665C99.7682 40.1665 100.12 40.2354 100.434 40.3733C100.751 40.5084 101.021 40.6945 101.245 40.9316C101.471 41.166 101.645 41.4418 101.766 41.7589C101.887 42.0732 101.948 42.4096 101.948 42.7681C101.948 43.03 101.916 43.2768 101.853 43.5085C101.792 43.7401 101.705 43.9524 101.592 44.1454C101.479 44.3384 101.343 44.5122 101.183 44.6666C101.026 44.8182 100.852 44.9478 100.662 45.0554C100.471 45.1602 100.267 45.2401 100.049 45.2953C99.8344 45.3532 99.611 45.3821 99.3794 45.3821C99.032 45.3821 98.7024 45.3201 98.3908 45.196C98.0793 45.0692 97.8063 44.8927 97.5719 44.6666C97.3375 44.4377 97.1514 44.1633 97.0135 43.8435C96.8784 43.5209 96.8108 43.1624 96.8108 42.7681ZM97.7663 42.7681C97.7663 43.03 97.8035 43.2672 97.878 43.4795C97.9524 43.6918 98.0586 43.8738 98.1964 44.0255C98.3371 44.1744 98.5067 44.2902 98.7052 44.3729C98.9037 44.4529 99.1271 44.4929 99.3753 44.4929C99.5958 44.4929 99.804 44.4556 99.9998 44.3812C100.196 44.3067 100.367 44.1978 100.513 44.0544C100.662 43.9083 100.779 43.7277 100.864 43.5126C100.953 43.2975 100.997 43.0493 100.997 42.7681C100.997 42.5365 100.959 42.3172 100.885 42.1104C100.813 41.9009 100.708 41.7189 100.571 41.5645C100.433 41.4101 100.263 41.2873 100.062 41.1964C99.8606 41.1054 99.6317 41.0599 99.3753 41.0599C99.1188 41.0599 98.8913 41.1054 98.6928 41.1964C98.4943 41.2873 98.326 41.4101 98.1882 41.5645C98.0503 41.7189 97.9455 41.9009 97.8738 42.1104C97.8021 42.3172 97.7663 42.5365 97.7663 42.7681Z" fill="white"/>
<path d="M102.903 44.1909C102.903 44.1275 102.919 44.0696 102.949 44.0172C102.979 43.9648 103.016 43.9207 103.061 43.8848C103.107 43.8462 103.158 43.8173 103.214 43.798C103.269 43.7759 103.323 43.7649 103.375 43.7649C103.438 43.7649 103.492 43.7718 103.536 43.7856C103.58 43.7994 103.619 43.8187 103.652 43.8435C103.685 43.8683 103.714 43.8973 103.739 43.9303C103.764 43.9634 103.79 43.9993 103.817 44.0379C103.928 44.2033 104.089 44.3315 104.301 44.4225C104.514 44.5108 104.791 44.5549 105.133 44.5549C105.273 44.5549 105.406 44.5425 105.53 44.5177C105.657 44.4929 105.767 44.4556 105.861 44.406C105.957 44.3564 106.033 44.2957 106.088 44.224C106.146 44.1523 106.175 44.0696 106.175 43.9758C106.175 43.849 106.138 43.7415 106.063 43.6532C105.992 43.565 105.895 43.4892 105.774 43.4257C105.655 43.3623 105.52 43.3085 105.369 43.2644C105.217 43.2203 105.061 43.1776 104.901 43.1362C104.755 43.1004 104.607 43.0618 104.459 43.0204C104.31 42.9763 104.165 42.9266 104.024 42.8715C103.884 42.8136 103.751 42.746 103.627 42.6688C103.506 42.5889 103.4 42.4951 103.309 42.3876C103.218 42.28 103.145 42.1559 103.09 42.0153C103.037 41.8719 103.011 41.7079 103.011 41.5231C103.011 41.2749 103.069 41.0654 103.185 40.8944C103.303 40.7207 103.455 40.5801 103.64 40.4725C103.827 40.365 104.035 40.2878 104.264 40.2409C104.493 40.1913 104.718 40.1665 104.938 40.1665C105.065 40.1665 105.181 40.1733 105.286 40.1871C105.391 40.2009 105.488 40.2188 105.579 40.2409C105.67 40.263 105.757 40.2905 105.84 40.3236C105.923 40.354 106.005 40.3857 106.088 40.4188C106.099 40.3774 106.116 40.336 106.138 40.2947C106.163 40.2506 106.192 40.2119 106.225 40.1789C106.258 40.143 106.296 40.1141 106.341 40.092C106.385 40.0699 106.434 40.0589 106.489 40.0589C106.625 40.0589 106.729 40.0851 106.804 40.1375C106.878 40.1899 106.915 40.2823 106.915 40.4146C106.915 40.5194 106.911 40.6283 106.903 40.7414C106.895 40.8544 106.891 40.9785 106.891 41.1136C106.904 41.1467 106.914 41.1839 106.92 41.2253C106.925 41.2639 106.928 41.2984 106.928 41.3287C106.928 41.3949 106.917 41.4514 106.895 41.4983C106.873 41.5424 106.842 41.5796 106.804 41.61C106.765 41.6375 106.72 41.6582 106.667 41.672C106.618 41.6858 106.562 41.6927 106.502 41.6927C106.447 41.6927 106.393 41.683 106.341 41.6637C106.291 41.6444 106.245 41.6196 106.204 41.5893C106.163 41.5562 106.127 41.519 106.096 41.4776C106.066 41.4362 106.043 41.3935 106.026 41.3494C105.982 41.3135 105.926 41.2736 105.857 41.2294C105.79 41.1826 105.71 41.1398 105.617 41.1012C105.526 41.0626 105.421 41.0309 105.302 41.0061C105.184 40.9785 105.053 40.9647 104.909 40.9647C104.769 40.9647 104.638 40.9785 104.516 41.0061C104.398 41.0309 104.295 41.0681 104.206 41.1178C104.121 41.1674 104.053 41.2267 104.004 41.2956C103.954 41.3646 103.929 41.4418 103.929 41.5272C103.929 41.6375 103.962 41.7327 104.028 41.8126C104.097 41.8898 104.188 41.9588 104.301 42.0194C104.414 42.0774 104.545 42.1297 104.694 42.1766C104.846 42.2235 105.003 42.269 105.166 42.3131C105.389 42.3738 105.614 42.4413 105.84 42.5158C106.069 42.5902 106.274 42.6867 106.456 42.8053C106.641 42.9211 106.791 43.0686 106.907 43.2479C107.023 43.4244 107.081 43.6463 107.081 43.9138C107.081 44.1206 107.049 44.2998 106.986 44.4515C106.922 44.6032 106.838 44.7341 106.733 44.8444C106.629 44.952 106.506 45.0416 106.365 45.1133C106.227 45.1822 106.083 45.236 105.931 45.2746C105.782 45.316 105.63 45.3435 105.476 45.3573C105.322 45.3739 105.176 45.3821 105.038 45.3821C104.845 45.3821 104.658 45.3642 104.479 45.3284C104.3 45.2925 104.13 45.2443 103.971 45.1836C103.813 45.1229 103.669 45.0526 103.536 44.9727C103.407 44.8927 103.295 44.8086 103.201 44.7203C103.107 44.6321 103.034 44.5425 102.982 44.4515C102.93 44.3605 102.903 44.2736 102.903 44.1909Z" fill="white"/>
<path d="M111.924 44.9561C111.924 44.9065 111.926 44.8555 111.928 44.8031C111.934 44.7507 111.939 44.6997 111.945 44.65C111.953 44.5756 111.962 44.4942 111.97 44.406C111.978 44.3178 111.982 44.2185 111.982 44.1082C111.982 43.8931 111.981 43.6904 111.978 43.5002C111.978 43.3072 111.975 43.1086 111.97 42.9046C111.97 42.8991 111.97 42.8908 111.97 42.8798C111.97 42.866 111.968 42.8398 111.966 42.8012C111.966 42.7626 111.964 42.706 111.962 42.6316C111.962 42.5571 111.96 42.4524 111.957 42.3172C111.955 42.1821 111.951 42.0139 111.945 41.8126C111.942 41.6086 111.938 41.3604 111.933 41.0681C111.897 41.0736 111.854 41.0792 111.804 41.0847C111.757 41.0874 111.701 41.0888 111.635 41.0888C111.585 41.0888 111.534 41.0805 111.482 41.064C111.432 41.0474 111.385 41.0226 111.341 40.9895C111.3 40.9537 111.265 40.9082 111.238 40.8531C111.213 40.7951 111.2 40.7248 111.2 40.6421C111.2 40.4932 111.238 40.3815 111.312 40.3071C111.389 40.2299 111.483 40.1913 111.593 40.1913C111.638 40.1913 111.68 40.1968 111.722 40.2078C111.763 40.2188 111.807 40.2244 111.854 40.2244C111.909 40.2244 111.966 40.223 112.024 40.2202C112.081 40.2175 112.138 40.2133 112.193 40.2078C112.254 40.2023 112.313 40.1982 112.371 40.1954C112.432 40.1926 112.485 40.1913 112.532 40.1913C112.645 40.1913 112.739 40.2285 112.814 40.3029C112.888 40.3774 112.925 40.4822 112.925 40.6173C112.925 40.6504 112.924 40.689 112.921 40.7331C112.921 40.7772 112.918 40.82 112.913 40.8613C113.007 40.7703 113.113 40.6835 113.231 40.6007C113.35 40.518 113.478 40.445 113.616 40.3815C113.757 40.3154 113.907 40.263 114.067 40.2244C114.227 40.1858 114.396 40.1665 114.576 40.1665C114.926 40.1665 115.232 40.2244 115.494 40.3402C115.759 40.4532 115.979 40.6187 116.156 40.8365C116.335 41.0516 116.469 41.3163 116.557 41.6306C116.648 41.945 116.693 42.3021 116.693 42.7019C116.693 42.8232 116.685 42.9501 116.668 43.0824C116.652 43.2148 116.628 43.3471 116.598 43.4795C116.571 43.6119 116.536 43.7442 116.495 43.8766C116.456 44.0062 116.412 44.1289 116.362 44.2447C116.426 44.2254 116.486 44.2088 116.544 44.1951C116.602 44.1813 116.651 44.1716 116.689 44.1661C116.998 44.1358 117.152 44.2764 117.152 44.588C117.152 44.6266 117.148 44.6693 117.14 44.7162C117.132 44.7603 117.115 44.8044 117.09 44.8486C117.066 44.8899 117.031 44.9299 116.987 44.9685C116.943 45.0044 116.886 45.0347 116.817 45.0595L116.371 45.1629C116.233 45.2043 116.121 45.2387 116.036 45.2663C115.953 45.2966 115.883 45.3201 115.825 45.3366C115.77 45.3559 115.723 45.3683 115.684 45.3739C115.645 45.3821 115.603 45.3849 115.556 45.3821C115.49 45.3821 115.432 45.3656 115.382 45.3325C115.332 45.3022 115.291 45.2636 115.258 45.2167C115.225 45.1671 115.2 45.1133 115.184 45.0554C115.167 44.9975 115.159 44.9409 115.159 44.8858C115.159 44.7976 115.171 44.7079 115.196 44.6169C115.221 44.5259 115.265 44.4432 115.328 44.3688C115.406 44.2695 115.47 44.1578 115.523 44.0337C115.578 43.9097 115.622 43.7759 115.655 43.6325C115.688 43.4892 115.712 43.3389 115.725 43.1817C115.742 43.0245 115.75 42.8646 115.75 42.7019C115.75 42.5144 115.73 42.3241 115.688 42.1311C115.65 41.9353 115.582 41.7589 115.486 41.6017C115.392 41.4418 115.266 41.3122 115.109 41.2129C114.955 41.1109 114.76 41.0599 114.526 41.0599C114.363 41.0599 114.203 41.0861 114.046 41.1384C113.892 41.1881 113.743 41.2556 113.599 41.3411C113.459 41.4238 113.326 41.519 113.202 41.6265C113.078 41.7341 112.969 41.8443 112.876 41.9574C112.873 42.0815 112.87 42.2069 112.867 42.3338C112.867 42.4579 112.867 42.5833 112.867 42.7102C112.862 42.9253 112.858 43.139 112.855 43.3513C112.852 43.5636 112.851 43.7787 112.851 43.9965C112.851 44.0599 112.851 44.1247 112.851 44.1909C112.851 44.2543 112.854 44.3219 112.859 44.3936L112.971 44.3605C113.001 44.3522 113.03 44.3453 113.058 44.3398C113.088 44.3315 113.114 44.3274 113.136 44.3274C113.285 44.3274 113.398 44.3646 113.475 44.4391C113.553 44.5108 113.591 44.6169 113.591 44.7576C113.591 44.8624 113.571 44.9465 113.529 45.0099C113.488 45.0705 113.435 45.1188 113.372 45.1546C113.309 45.1877 113.238 45.2112 113.161 45.225C113.087 45.2387 113.014 45.2498 112.942 45.258C112.903 45.2636 112.866 45.2677 112.83 45.2705C112.794 45.276 112.764 45.2829 112.739 45.2911C112.651 45.316 112.575 45.3366 112.512 45.3532C112.448 45.3725 112.393 45.3821 112.346 45.3821C112.184 45.3821 112.072 45.3449 112.011 45.2705C111.953 45.196 111.924 45.0912 111.924 44.9561Z" fill="white"/>
<path d="M117.913 42.7681C117.913 42.4096 117.98 42.0732 118.112 41.7589C118.247 41.4418 118.43 41.166 118.662 40.9316C118.896 40.6945 119.169 40.5084 119.481 40.3733C119.793 40.2354 120.126 40.1665 120.482 40.1665C120.871 40.1665 121.222 40.2354 121.537 40.3733C121.854 40.5084 122.124 40.6945 122.347 40.9316C122.574 41.166 122.747 41.4418 122.869 41.7589C122.99 42.0732 123.051 42.4096 123.051 42.7681C123.051 43.03 123.019 43.2768 122.955 43.5085C122.895 43.7401 122.808 43.9524 122.695 44.1454C122.582 44.3384 122.445 44.5122 122.285 44.6666C122.128 44.8182 121.954 44.9478 121.764 45.0554C121.574 45.1602 121.37 45.2401 121.152 45.2953C120.937 45.3532 120.714 45.3821 120.482 45.3821C120.135 45.3821 119.805 45.3201 119.493 45.196C119.182 45.0692 118.909 44.8927 118.675 44.6666C118.44 44.4377 118.254 44.1633 118.116 43.8435C117.981 43.5209 117.913 43.1624 117.913 42.7681ZM118.869 42.7681C118.869 43.03 118.906 43.2672 118.981 43.4795C119.055 43.6918 119.161 43.8738 119.299 44.0255C119.44 44.1744 119.609 44.2902 119.808 44.3729C120.006 44.4529 120.23 44.4929 120.478 44.4929C120.698 44.4929 120.907 44.4556 121.102 44.3812C121.298 44.3067 121.469 44.1978 121.615 44.0544C121.764 43.9083 121.881 43.7277 121.967 43.5126C122.055 43.2975 122.099 43.0493 122.099 42.7681C122.099 42.5365 122.062 42.3172 121.988 42.1104C121.916 41.9009 121.811 41.7189 121.673 41.5645C121.535 41.4101 121.366 41.2873 121.164 41.1964C120.963 41.1054 120.734 41.0599 120.478 41.0599C120.221 41.0599 119.994 41.1054 119.795 41.1964C119.597 41.2873 119.429 41.4101 119.291 41.5645C119.153 41.7189 119.048 41.9009 118.976 42.1104C118.905 42.3172 118.869 42.5365 118.869 42.7681Z" fill="white"/>
<path d="M124.006 44.1909C124.006 44.1275 124.021 44.0696 124.051 44.0172C124.082 43.9648 124.119 43.9207 124.163 43.8848C124.21 43.8462 124.261 43.8173 124.316 43.798C124.371 43.7759 124.425 43.7649 124.478 43.7649C124.541 43.7649 124.595 43.7718 124.639 43.7856C124.683 43.7994 124.722 43.8187 124.755 43.8435C124.788 43.8683 124.817 43.8973 124.841 43.9303C124.866 43.9634 124.893 43.9993 124.92 44.0379C125.03 44.2033 125.192 44.3315 125.404 44.4225C125.616 44.5108 125.893 44.5549 126.235 44.5549C126.376 44.5549 126.508 44.5425 126.632 44.5177C126.759 44.4929 126.87 44.4556 126.963 44.406C127.06 44.3564 127.136 44.2957 127.191 44.224C127.249 44.1523 127.278 44.0696 127.278 43.9758C127.278 43.849 127.24 43.7415 127.166 43.6532C127.094 43.565 126.998 43.4892 126.876 43.4257C126.758 43.3623 126.623 43.3085 126.471 43.2644C126.319 43.2203 126.164 43.1776 126.004 43.1362C125.858 43.1004 125.71 43.0618 125.561 43.0204C125.412 42.9763 125.268 42.9266 125.127 42.8715C124.986 42.8136 124.854 42.746 124.73 42.6688C124.608 42.5889 124.502 42.4951 124.411 42.3876C124.32 42.28 124.247 42.1559 124.192 42.0153C124.14 41.8719 124.114 41.7079 124.114 41.5231C124.114 41.2749 124.171 41.0654 124.287 40.8944C124.406 40.7207 124.557 40.5801 124.742 40.4725C124.93 40.365 125.138 40.2878 125.367 40.2409C125.596 40.1913 125.82 40.1665 126.041 40.1665C126.168 40.1665 126.284 40.1733 126.388 40.1871C126.493 40.2009 126.591 40.2188 126.682 40.2409C126.773 40.263 126.86 40.2905 126.943 40.3236C127.025 40.354 127.108 40.3857 127.191 40.4188C127.202 40.3774 127.218 40.336 127.24 40.2947C127.265 40.2506 127.294 40.2119 127.327 40.1789C127.36 40.143 127.399 40.1141 127.443 40.092C127.487 40.0699 127.537 40.0589 127.592 40.0589C127.727 40.0589 127.832 40.0851 127.906 40.1375C127.981 40.1899 128.018 40.2823 128.018 40.4146C128.018 40.5194 128.014 40.6283 128.006 40.7414C127.997 40.8544 127.993 40.9785 127.993 41.1136C128.007 41.1467 128.017 41.1839 128.022 41.2253C128.028 41.2639 128.03 41.2984 128.03 41.3287C128.03 41.3949 128.019 41.4514 127.997 41.4983C127.975 41.5424 127.945 41.5796 127.906 41.61C127.868 41.6375 127.822 41.6582 127.77 41.672C127.72 41.6858 127.665 41.6927 127.604 41.6927C127.549 41.6927 127.496 41.683 127.443 41.6637C127.393 41.6444 127.348 41.6196 127.307 41.5893C127.265 41.5562 127.229 41.519 127.199 41.4776C127.169 41.4362 127.145 41.3935 127.129 41.3494C127.085 41.3135 127.028 41.2736 126.959 41.2294C126.893 41.1826 126.813 41.1398 126.719 41.1012C126.628 41.0626 126.524 41.0309 126.405 41.0061C126.286 40.9785 126.155 40.9647 126.012 40.9647C125.871 40.9647 125.74 40.9785 125.619 41.0061C125.501 41.0309 125.397 41.0681 125.309 41.1178C125.223 41.1674 125.156 41.2267 125.106 41.2956C125.057 41.3646 125.032 41.4418 125.032 41.5272C125.032 41.6375 125.065 41.7327 125.131 41.8126C125.2 41.8898 125.291 41.9588 125.404 42.0194C125.517 42.0774 125.648 42.1297 125.797 42.1766C125.949 42.2235 126.106 42.269 126.268 42.3131C126.492 42.3738 126.717 42.4413 126.943 42.5158C127.172 42.5902 127.377 42.6867 127.559 42.8053C127.744 42.9211 127.894 43.0686 128.01 43.2479C128.126 43.4244 128.184 43.6463 128.184 43.9138C128.184 44.1206 128.152 44.2998 128.088 44.4515C128.025 44.6032 127.941 44.7341 127.836 44.8444C127.731 44.952 127.609 45.0416 127.468 45.1133C127.33 45.1822 127.185 45.236 127.034 45.2746C126.885 45.316 126.733 45.3435 126.579 45.3573C126.424 45.3739 126.278 45.3821 126.14 45.3821C125.947 45.3821 125.761 45.3642 125.582 45.3284C125.403 45.2925 125.233 45.2443 125.073 45.1836C124.916 45.1229 124.771 45.0526 124.639 44.9727C124.509 44.8927 124.398 44.8086 124.304 44.7203C124.21 44.6321 124.137 44.5425 124.085 44.4515C124.032 44.3605 124.006 44.2736 124.006 44.1909Z" fill="white"/>
<path d="M133.606 45.56C133.609 45.6841 133.61 45.815 133.61 45.9529C133.613 46.0908 133.614 46.2259 133.614 46.3583C133.617 46.4906 133.618 46.6133 133.618 46.7264C133.621 46.8422 133.623 46.9387 133.623 47.0159C133.623 47.0876 133.607 47.1469 133.577 47.1938C133.549 47.2406 133.512 47.2779 133.465 47.3054C133.421 47.333 133.372 47.3509 133.316 47.3592C133.261 47.3702 133.208 47.3758 133.155 47.3758C133.097 47.3758 133.042 47.3702 132.99 47.3592C132.94 47.3509 132.896 47.333 132.857 47.3054C132.822 47.2806 132.793 47.2448 132.77 47.1979C132.748 47.151 132.737 47.0917 132.737 47.02V42.9873C132.737 42.8136 132.737 42.6247 132.737 42.4207C132.737 42.2138 132.736 42.0153 132.733 41.825C132.733 41.6348 132.731 41.4666 132.725 41.3204C132.722 41.1715 132.718 41.0695 132.713 41.0144C132.691 41.0144 132.653 41.0199 132.601 41.0309C132.551 41.0392 132.503 41.0433 132.456 41.0433C132.407 41.0433 132.355 41.0364 132.303 41.0226C132.253 41.0088 132.208 40.9854 132.167 40.9523C132.125 40.9192 132.091 40.8751 132.063 40.82C132.036 40.7648 132.022 40.6945 132.022 40.609C132.022 40.5208 132.031 40.4491 132.051 40.3939C132.073 40.3388 132.103 40.2961 132.142 40.2657C132.18 40.2326 132.227 40.2106 132.282 40.1995C132.338 40.1885 132.401 40.183 132.473 40.183C132.533 40.183 132.594 40.1871 132.655 40.1954C132.715 40.2037 132.779 40.2078 132.845 40.2078C132.903 40.2078 132.962 40.2037 133.023 40.1954C133.083 40.1871 133.151 40.183 133.225 40.183C133.347 40.183 133.443 40.2133 133.515 40.274C133.587 40.3319 133.623 40.4243 133.623 40.5511C133.623 40.6063 133.617 40.6628 133.606 40.7207C133.598 40.7786 133.591 40.8379 133.585 40.8985C133.671 40.791 133.77 40.6931 133.883 40.6049C133.999 40.5139 134.126 40.4367 134.264 40.3733C134.402 40.3071 134.549 40.2561 134.706 40.2202C134.866 40.1844 135.032 40.1665 135.203 40.1665C135.558 40.1665 135.884 40.2257 136.179 40.3443C136.474 40.4601 136.726 40.6283 136.936 40.8489C137.148 41.0695 137.312 41.3384 137.428 41.6555C137.546 41.9726 137.606 42.3297 137.606 42.7267C137.606 43.099 137.55 43.4478 137.44 43.7732C137.333 44.0958 137.174 44.377 136.965 44.6169C136.755 44.8541 136.496 45.0416 136.187 45.1795C135.881 45.3146 135.531 45.3821 135.136 45.3821C134.833 45.3821 134.545 45.3284 134.272 45.2208C134.002 45.1105 133.774 44.9575 133.589 44.7617L133.606 45.56ZM133.581 43.0907C133.614 43.292 133.674 43.4781 133.759 43.6491C133.845 43.82 133.949 43.9689 134.073 44.0958C134.197 44.2199 134.337 44.3178 134.491 44.3895C134.648 44.4584 134.814 44.4929 134.987 44.4929C135.266 44.4929 135.507 44.4529 135.711 44.3729C135.918 44.2929 136.088 44.1771 136.22 44.0255C136.355 43.8738 136.456 43.6904 136.522 43.4754C136.588 43.2575 136.621 43.0121 136.621 42.7391C136.621 42.5075 136.588 42.2897 136.522 42.0856C136.456 41.8816 136.359 41.7037 136.232 41.5521C136.106 41.4004 135.95 41.2805 135.765 41.1922C135.58 41.104 135.371 41.0599 135.136 41.0599C134.946 41.0599 134.763 41.1054 134.586 41.1964C134.41 41.2846 134.251 41.4045 134.111 41.5562C133.973 41.7079 133.857 41.8843 133.763 42.0856C133.669 42.2842 133.609 42.4937 133.581 42.7143V43.0907Z" fill="white"/>
<path d="M138.528 42.7681C138.528 42.4096 138.594 42.0732 138.727 41.7589C138.862 41.4418 139.045 41.166 139.277 40.9316C139.511 40.6945 139.784 40.5084 140.096 40.3733C140.407 40.2354 140.741 40.1665 141.097 40.1665C141.485 40.1665 141.837 40.2354 142.151 40.3733C142.468 40.5084 142.739 40.6945 142.962 40.9316C143.188 41.166 143.362 41.4418 143.483 41.7589C143.604 42.0732 143.665 42.4096 143.665 42.7681C143.665 43.03 143.633 43.2768 143.57 43.5085C143.509 43.7401 143.422 43.9524 143.309 44.1454C143.196 44.3384 143.06 44.5122 142.9 44.6666C142.743 44.8182 142.569 44.9478 142.379 45.0554C142.188 45.1602 141.984 45.2401 141.767 45.2953C141.552 45.3532 141.328 45.3821 141.097 45.3821C140.749 45.3821 140.42 45.3201 140.108 45.196C139.796 45.0692 139.523 44.8927 139.289 44.6666C139.055 44.4377 138.869 44.1633 138.731 43.8435C138.596 43.5209 138.528 43.1624 138.528 42.7681ZM139.483 42.7681C139.483 43.03 139.521 43.2672 139.595 43.4795C139.67 43.6918 139.776 43.8738 139.914 44.0255C140.054 44.1744 140.224 44.2902 140.422 44.3729C140.621 44.4529 140.844 44.4929 141.092 44.4929C141.313 44.4929 141.521 44.4556 141.717 44.3812C141.913 44.3067 142.084 44.1978 142.23 44.0544C142.379 43.9083 142.496 43.7277 142.581 43.5126C142.67 43.2975 142.714 43.0493 142.714 42.7681C142.714 42.5365 142.677 42.3172 142.602 42.1104C142.53 41.9009 142.426 41.7189 142.288 41.5645C142.15 41.4101 141.98 41.2873 141.779 41.1964C141.578 41.1054 141.349 41.0599 141.092 41.0599C140.836 41.0599 140.608 41.1054 140.41 41.1964C140.211 41.2873 140.043 41.4101 139.905 41.5645C139.767 41.7189 139.663 41.9009 139.591 42.1104C139.519 42.3172 139.483 42.5365 139.483 42.7681Z" fill="white"/>
<path d="M144.608 42.7805C144.608 42.4055 144.67 42.0594 144.794 41.7423C144.921 41.4225 145.095 41.1467 145.315 40.9151C145.539 40.6807 145.802 40.4973 146.105 40.365C146.409 40.2326 146.738 40.1665 147.094 40.1665C147.254 40.1665 147.412 40.183 147.57 40.2161C147.727 40.2464 147.876 40.2933 148.016 40.3567C148.16 40.4174 148.292 40.4932 148.413 40.5842C148.535 40.6752 148.641 40.78 148.732 40.8985C148.732 40.8269 148.732 40.7248 148.732 40.5925C148.732 40.4601 148.73 40.3029 148.728 40.121C148.728 39.939 148.726 39.7363 148.724 39.5129C148.721 39.2896 148.718 39.0524 148.715 38.8015H148.364C148.3 38.8015 148.238 38.8084 148.178 38.8222C148.117 38.836 148.052 38.8429 147.983 38.8429C147.934 38.8429 147.883 38.8319 147.83 38.8098C147.781 38.785 147.735 38.7519 147.694 38.7105C147.655 38.6664 147.622 38.614 147.594 38.5534C147.57 38.4899 147.557 38.4182 147.557 38.3383C147.557 38.1949 147.594 38.0846 147.669 38.0074C147.743 37.9302 147.837 37.8916 147.95 37.8916C147.978 37.8916 148.011 37.8929 148.049 37.8957C148.088 37.8957 148.132 37.9026 148.182 37.9164C148.364 37.9191 148.547 37.9178 148.732 37.9123C148.917 37.904 149.115 37.8985 149.327 37.8957C149.443 37.8957 149.534 37.9357 149.6 38.0157C149.667 38.0956 149.7 38.2018 149.7 38.3341C149.7 38.4279 149.687 38.501 149.663 38.5534C149.657 38.7326 149.653 38.9546 149.65 39.2193C149.647 39.4812 149.645 39.7611 149.642 40.0589C149.639 40.3567 149.636 40.66 149.634 40.9689C149.634 41.2777 149.632 41.5672 149.629 41.8375C149.629 42.1049 149.629 42.3421 149.629 42.5489C149.629 42.7557 149.629 42.906 149.629 42.9997C149.629 43.2699 149.631 43.514 149.634 43.7318C149.639 43.9469 149.647 44.1165 149.658 44.2406L149.733 44.1951C149.791 44.162 149.846 44.133 149.898 44.1082C149.953 44.0834 150.013 44.0682 150.076 44.0627C150.123 44.0572 150.171 44.0627 150.221 44.0792C150.271 44.093 150.316 44.1178 150.357 44.1537C150.399 44.1868 150.433 44.2323 150.461 44.2902C150.488 44.3481 150.502 44.4184 150.502 44.5011C150.502 44.6169 150.47 44.7107 150.407 44.7824C150.346 44.8513 150.283 44.8996 150.217 44.9272C150.151 44.9575 150.087 44.9892 150.026 45.0223C149.966 45.0526 149.904 45.0843 149.84 45.1174C149.747 45.1671 149.656 45.2139 149.567 45.258C149.482 45.3022 149.406 45.3242 149.34 45.3242C149.208 45.3242 149.1 45.2622 149.017 45.1381C148.937 45.0113 148.877 44.8431 148.835 44.6335C148.725 44.7465 148.6 44.8486 148.459 44.9396C148.318 45.0306 148.168 45.1091 148.008 45.1753C147.848 45.2415 147.68 45.2925 147.503 45.3284C147.33 45.3642 147.155 45.3821 146.978 45.3821C146.62 45.3821 146.294 45.3146 146.002 45.1795C145.712 45.0443 145.464 44.8596 145.258 44.6252C145.051 44.3908 144.891 44.1165 144.778 43.8021C144.665 43.485 144.608 43.1445 144.608 42.7805ZM145.53 42.7805C145.53 42.9983 145.565 43.2107 145.634 43.4175C145.703 43.6215 145.802 43.8035 145.932 43.9634C146.064 44.1234 146.224 44.2516 146.411 44.3481C146.599 44.4446 146.811 44.4929 147.048 44.4929C147.23 44.4929 147.412 44.4639 147.594 44.406C147.776 44.3453 147.943 44.2612 148.095 44.1537C148.249 44.0434 148.383 43.911 148.496 43.7566C148.609 43.5995 148.686 43.423 148.728 43.2272C148.728 43.1141 148.728 43.0218 148.728 42.9501C148.728 42.8784 148.726 42.8177 148.724 42.7681C148.724 42.7157 148.724 42.6688 148.724 42.6275C148.724 42.5833 148.724 42.5337 148.724 42.4786C148.679 42.28 148.608 42.0953 148.509 41.9243C148.412 41.7506 148.293 41.6003 148.153 41.4735C148.012 41.3466 147.854 41.2474 147.677 41.1757C147.503 41.1012 147.319 41.064 147.123 41.064C146.894 41.064 146.682 41.1054 146.486 41.1881C146.293 41.2708 146.125 41.388 145.981 41.5397C145.841 41.6886 145.73 41.8692 145.65 42.0815C145.57 42.2911 145.53 42.5241 145.53 42.7805Z" fill="white"/>
<path d="M152.119 43.3968C152.172 43.6036 152.249 43.7773 152.351 43.9179C152.456 44.0558 152.573 44.1675 152.703 44.253C152.832 44.3384 152.969 44.4005 153.112 44.4391C153.258 44.4749 153.4 44.4929 153.538 44.4929C153.753 44.4929 153.945 44.4749 154.113 44.4391C154.281 44.4005 154.425 44.355 154.543 44.3026C154.664 44.2474 154.762 44.1909 154.837 44.133C154.911 44.0751 154.964 44.0241 154.994 43.98C155.022 43.9386 155.052 43.9 155.085 43.8642C155.121 43.8256 155.158 43.7925 155.197 43.7649C155.238 43.7346 155.278 43.7111 155.317 43.6946C155.358 43.678 155.397 43.6698 155.432 43.6698C155.57 43.6698 155.676 43.7111 155.751 43.7939C155.828 43.8738 155.867 43.9827 155.867 44.1206C155.867 44.173 155.847 44.2392 155.809 44.3191C155.77 44.3991 155.699 44.4873 155.594 44.5839C155.478 44.6914 155.348 44.7934 155.205 44.8899C155.064 44.9864 154.909 45.0719 154.738 45.1464C154.567 45.2181 154.38 45.2746 154.179 45.316C153.981 45.3601 153.766 45.3821 153.534 45.3821C153.261 45.3821 153.011 45.3449 152.785 45.2705C152.559 45.1988 152.357 45.1009 152.177 44.9768C151.998 44.8499 151.842 44.7038 151.71 44.5384C151.578 44.3729 151.467 44.1964 151.379 44.0089C151.291 43.8214 151.225 43.6284 151.18 43.4299C151.136 43.2313 151.114 43.0383 151.114 42.8508C151.114 42.4427 151.18 42.0746 151.313 41.7465C151.445 41.4156 151.627 41.1329 151.859 40.8985C152.09 40.6642 152.365 40.4836 152.682 40.3567C152.999 40.2299 153.342 40.1665 153.712 40.1665C153.977 40.1665 154.225 40.2064 154.456 40.2864C154.688 40.3636 154.893 40.4739 155.073 40.6173C155.255 40.7579 155.406 40.9275 155.528 41.126C155.652 41.3218 155.739 41.5383 155.788 41.7754C155.843 41.8223 155.883 41.8843 155.908 41.9615C155.936 42.036 155.949 42.1104 155.949 42.1849C155.949 42.309 155.907 42.411 155.821 42.491C155.739 42.5682 155.634 42.6219 155.507 42.6523C155.228 42.724 154.95 42.7901 154.671 42.8508C154.393 42.9115 154.113 42.9708 153.832 43.0287C153.55 43.0866 153.266 43.1459 152.98 43.2065C152.696 43.2672 152.409 43.3306 152.119 43.3968ZM152.049 42.6316C152.518 42.5213 152.992 42.4179 153.472 42.3214C153.952 42.2249 154.44 42.1173 154.936 41.9988C154.889 41.8719 154.826 41.752 154.746 41.6389C154.666 41.5231 154.572 41.4225 154.465 41.337C154.357 41.2515 154.237 41.1839 154.105 41.1343C153.975 41.0847 153.834 41.0599 153.683 41.0599C153.448 41.0599 153.235 41.0985 153.042 41.1757C152.851 41.2501 152.686 41.3563 152.545 41.4942C152.405 41.6293 152.292 41.7947 152.206 41.9905C152.121 42.1835 152.068 42.3972 152.049 42.6316Z" fill="white"/>
<path d="M157.608 44.9602C157.608 44.8196 157.618 44.6817 157.637 44.5466C157.659 44.4115 157.67 44.2681 157.67 44.1165C157.67 44.0034 157.669 43.8917 157.666 43.7814C157.666 43.6711 157.665 43.554 157.662 43.4299C157.662 43.3058 157.66 43.1707 157.658 43.0245C157.655 42.8756 157.651 42.7074 157.645 42.5199C157.643 42.3324 157.638 42.1201 157.633 41.883C157.627 41.6458 157.622 41.3742 157.616 41.0681C157.58 41.0736 157.539 41.0792 157.492 41.0847C157.448 41.0874 157.392 41.0888 157.323 41.0888C157.273 41.0888 157.222 41.0805 157.17 41.064C157.117 41.0474 157.07 41.0226 157.029 40.9895C156.988 40.9537 156.953 40.9082 156.926 40.8531C156.898 40.7951 156.884 40.7248 156.884 40.6421C156.884 40.4932 156.923 40.3815 157 40.3071C157.077 40.2299 157.171 40.1913 157.281 40.1913C157.325 40.1913 157.368 40.1968 157.41 40.2078C157.451 40.2188 157.495 40.2244 157.542 40.2244C157.652 40.2244 157.761 40.2188 157.869 40.2078C157.979 40.1968 158.095 40.1913 158.216 40.1913C158.335 40.1913 158.416 40.2285 158.46 40.3029C158.507 40.3774 158.53 40.4822 158.53 40.6173V40.7C158.748 40.518 158.978 40.3843 159.221 40.2988C159.464 40.2106 159.69 40.1665 159.899 40.1665C160.244 40.1665 160.55 40.2161 160.818 40.3154C161.085 40.4146 161.313 40.5621 161.5 40.7579C161.616 40.6642 161.737 40.5801 161.864 40.5056C161.991 40.4312 162.118 40.3691 162.245 40.3195C162.374 40.2699 162.501 40.2326 162.625 40.2078C162.749 40.1802 162.868 40.1665 162.981 40.1665C163.328 40.1665 163.644 40.2188 163.928 40.3236C164.212 40.4256 164.455 40.5773 164.656 40.7786C164.86 40.9799 165.017 41.2281 165.128 41.5231C165.238 41.8154 165.293 42.1532 165.293 42.5365C165.293 42.6578 165.285 42.7957 165.268 42.9501C165.254 43.1017 165.234 43.2589 165.206 43.4216C165.179 43.5815 165.145 43.7401 165.107 43.8973C165.068 44.0517 165.027 44.1909 164.983 44.315C165.019 44.304 165.048 44.2971 165.07 44.2943C165.092 44.2916 165.111 44.2902 165.128 44.2902C165.224 44.2902 165.301 44.3081 165.359 44.344C165.417 44.3798 165.461 44.4225 165.492 44.4722C165.525 44.5218 165.545 44.5742 165.554 44.6294C165.565 44.6817 165.57 44.7259 165.57 44.7617C165.57 44.8472 165.555 44.9175 165.525 44.9727C165.494 45.025 165.441 45.0705 165.363 45.1091C165.289 45.145 165.187 45.1781 165.057 45.2084C164.93 45.2387 164.769 45.2746 164.573 45.316C164.488 45.338 164.418 45.3559 164.362 45.3697C164.31 45.3835 164.262 45.3904 164.218 45.3904C164.129 45.3904 164.054 45.3766 163.99 45.349C163.927 45.3242 163.874 45.2911 163.833 45.2498C163.794 45.2057 163.765 45.1546 163.746 45.0967C163.727 45.0361 163.717 44.9727 163.717 44.9065C163.717 44.8348 163.736 44.7548 163.775 44.6666C163.814 44.5756 163.865 44.4942 163.928 44.4225C163.991 44.3178 164.049 44.1909 164.102 44.042C164.154 43.8904 164.198 43.7291 164.234 43.5581C164.273 43.3871 164.302 43.2134 164.321 43.0369C164.34 42.8605 164.35 42.6936 164.35 42.5365C164.35 42.3159 164.322 42.1146 164.267 41.9326C164.215 41.7506 164.131 41.5948 164.015 41.4652C163.902 41.3356 163.757 41.235 163.581 41.1633C163.407 41.0916 163.2 41.0557 162.96 41.0557C162.839 41.0557 162.73 41.0654 162.633 41.0847C162.54 41.1012 162.451 41.126 162.369 41.1591C162.289 41.1922 162.213 41.2336 162.141 41.2832C162.07 41.3328 161.998 41.3907 161.926 41.4569C162.039 41.7658 162.096 42.1256 162.096 42.5365C162.096 42.6605 162.087 42.8012 162.071 42.9583C162.054 43.1155 162.031 43.2768 162.001 43.4423C161.97 43.6077 161.932 43.7704 161.885 43.9303C161.838 44.0903 161.786 44.2364 161.728 44.3688C161.772 44.3605 161.817 44.3481 161.864 44.3315C161.911 44.3122 161.962 44.3026 162.017 44.3026C162.108 44.3026 162.181 44.3205 162.236 44.3564C162.294 44.3922 162.337 44.4363 162.365 44.4887C162.395 44.5384 162.414 44.5935 162.423 44.6542C162.434 44.7121 162.439 44.7645 162.439 44.8113C162.439 44.8996 162.421 44.9699 162.385 45.0223C162.352 45.0719 162.308 45.1119 162.253 45.1422C162.198 45.1698 162.134 45.1905 162.063 45.2043C161.991 45.2153 161.918 45.225 161.843 45.2332C161.769 45.2415 161.696 45.2512 161.624 45.2622C161.555 45.276 161.493 45.2966 161.438 45.3242C161.43 45.3297 161.411 45.3353 161.38 45.3408C161.35 45.349 161.317 45.3559 161.281 45.3614C161.248 45.3697 161.213 45.3766 161.178 45.3821C161.144 45.3876 161.118 45.3904 161.099 45.3904C161.008 45.3904 160.931 45.3739 160.867 45.3408C160.804 45.3077 160.752 45.2649 160.71 45.2125C160.672 45.1602 160.643 45.1023 160.623 45.0388C160.607 44.9754 160.598 44.9134 160.598 44.8527C160.598 44.781 160.61 44.7093 160.632 44.6376C160.654 44.5632 160.684 44.4942 160.723 44.4308C160.783 44.3205 160.84 44.1895 160.892 44.0379C160.945 43.8835 160.989 43.7222 161.024 43.554C161.063 43.383 161.093 43.2107 161.115 43.0369C161.138 42.8605 161.149 42.6936 161.149 42.5365C161.149 42.3159 161.127 42.1146 161.082 41.9326C161.041 41.7506 160.971 41.5948 160.871 41.4652C160.772 41.3356 160.641 41.235 160.479 41.1633C160.319 41.0916 160.12 41.0557 159.883 41.0557C159.649 41.0557 159.418 41.1067 159.192 41.2088C158.969 41.308 158.748 41.468 158.53 41.6886C158.53 41.8126 158.529 41.9671 158.526 42.1518C158.526 42.3338 158.526 42.5268 158.526 42.7309C158.526 42.9349 158.526 43.1376 158.526 43.3389C158.526 43.5402 158.526 43.7208 158.526 43.8807C158.529 44.0406 158.53 44.1702 158.53 44.2695C158.533 44.366 158.536 44.4101 158.539 44.4019C158.588 44.3881 158.628 44.377 158.659 44.3688C158.692 44.3577 158.718 44.3495 158.737 44.344C158.759 44.3384 158.776 44.3357 158.787 44.3357C158.798 44.3329 158.81 44.3315 158.824 44.3315C158.973 44.3315 159.086 44.3688 159.163 44.4432C159.24 44.5149 159.279 44.6211 159.279 44.7617C159.279 44.8665 159.258 44.9492 159.217 45.0099C159.176 45.0705 159.123 45.1188 159.06 45.1546C158.996 45.1905 158.925 45.2167 158.845 45.2332C158.765 45.247 158.688 45.258 158.613 45.2663C158.566 45.2718 158.518 45.2815 158.468 45.2953C158.419 45.3091 158.369 45.3228 158.319 45.3366C158.27 45.3504 158.22 45.3628 158.171 45.3739C158.121 45.3849 158.075 45.3904 158.034 45.3904C157.871 45.3904 157.76 45.3518 157.699 45.2746C157.638 45.2001 157.608 45.0954 157.608 44.9602Z" fill="white"/>
<path d="M166.612 42.7681C166.612 42.4096 166.679 42.0732 166.811 41.7589C166.946 41.4418 167.129 41.166 167.361 40.9316C167.595 40.6945 167.868 40.5084 168.18 40.3733C168.492 40.2354 168.825 40.1665 169.181 40.1665C169.57 40.1665 169.921 40.2354 170.236 40.3733C170.553 40.5084 170.823 40.6945 171.046 40.9316C171.272 41.166 171.446 41.4418 171.568 41.7589C171.689 42.0732 171.75 42.4096 171.75 42.7681C171.75 43.03 171.718 43.2768 171.654 43.5085C171.594 43.7401 171.507 43.9524 171.394 44.1454C171.281 44.3384 171.144 44.5122 170.984 44.6666C170.827 44.8182 170.653 44.9478 170.463 45.0554C170.273 45.1602 170.069 45.2401 169.851 45.2953C169.636 45.3532 169.413 45.3821 169.181 45.3821C168.834 45.3821 168.504 45.3201 168.192 45.196C167.881 45.0692 167.608 44.8927 167.373 44.6666C167.139 44.4377 166.953 44.1633 166.815 43.8435C166.68 43.5209 166.612 43.1624 166.612 42.7681ZM167.568 42.7681C167.568 43.03 167.605 43.2672 167.68 43.4795C167.754 43.6918 167.86 43.8738 167.998 44.0255C168.139 44.1744 168.308 44.2902 168.507 44.3729C168.705 44.4529 168.929 44.4929 169.177 44.4929C169.397 44.4929 169.606 44.4556 169.801 44.3812C169.997 44.3067 170.168 44.1978 170.314 44.0544C170.463 43.9083 170.58 43.7277 170.666 43.5126C170.754 43.2975 170.798 43.0493 170.798 42.7681C170.798 42.5365 170.761 42.3172 170.687 42.1104C170.615 41.9009 170.51 41.7189 170.372 41.5645C170.234 41.4101 170.065 41.2873 169.863 41.1964C169.662 41.1054 169.433 41.0599 169.177 41.0599C168.92 41.0599 168.693 41.1054 168.494 41.1964C168.296 41.2873 168.128 41.4101 167.99 41.5645C167.852 41.7189 167.747 41.9009 167.675 42.1104C167.604 42.3172 167.568 42.5365 167.568 42.7681Z" fill="white"/>
<path d="M172.705 44.1909C172.705 44.1275 172.72 44.0696 172.75 44.0172C172.781 43.9648 172.818 43.9207 172.862 43.8848C172.909 43.8462 172.96 43.8173 173.015 43.798C173.07 43.7759 173.124 43.7649 173.176 43.7649C173.24 43.7649 173.294 43.7718 173.338 43.7856C173.382 43.7994 173.421 43.8187 173.454 43.8435C173.487 43.8683 173.516 43.8973 173.54 43.9303C173.565 43.9634 173.591 43.9993 173.619 44.0379C173.729 44.2033 173.891 44.3315 174.103 44.4225C174.315 44.5108 174.592 44.5549 174.934 44.5549C175.075 44.5549 175.207 44.5425 175.331 44.5177C175.458 44.4929 175.569 44.4556 175.662 44.406C175.759 44.3564 175.835 44.2957 175.89 44.224C175.948 44.1523 175.977 44.0696 175.977 43.9758C175.977 43.849 175.939 43.7415 175.865 43.6532C175.793 43.565 175.697 43.4892 175.575 43.4257C175.457 43.3623 175.322 43.3085 175.17 43.2644C175.018 43.2203 174.863 43.1776 174.703 43.1362C174.557 43.1004 174.409 43.0618 174.26 43.0204C174.111 42.9763 173.966 42.9266 173.826 42.8715C173.685 42.8136 173.553 42.746 173.429 42.6688C173.307 42.5889 173.201 42.4951 173.11 42.3876C173.019 42.28 172.946 42.1559 172.891 42.0153C172.839 41.8719 172.813 41.7079 172.813 41.5231C172.813 41.2749 172.87 41.0654 172.986 40.8944C173.105 40.7207 173.256 40.5801 173.441 40.4725C173.629 40.365 173.837 40.2878 174.066 40.2409C174.295 40.1913 174.519 40.1665 174.74 40.1665C174.867 40.1665 174.983 40.1733 175.087 40.1871C175.192 40.2009 175.29 40.2188 175.381 40.2409C175.472 40.263 175.559 40.2905 175.642 40.3236C175.724 40.354 175.807 40.3857 175.89 40.4188C175.901 40.3774 175.917 40.336 175.939 40.2947C175.964 40.2506 175.993 40.2119 176.026 40.1789C176.059 40.143 176.098 40.1141 176.142 40.092C176.186 40.0699 176.236 40.0589 176.291 40.0589C176.426 40.0589 176.531 40.0851 176.605 40.1375C176.68 40.1899 176.717 40.2823 176.717 40.4146C176.717 40.5194 176.713 40.6283 176.705 40.7414C176.696 40.8544 176.692 40.9785 176.692 41.1136C176.706 41.1467 176.716 41.1839 176.721 41.2253C176.727 41.2639 176.729 41.2984 176.729 41.3287C176.729 41.3949 176.718 41.4514 176.696 41.4983C176.674 41.5424 176.644 41.5796 176.605 41.61C176.567 41.6375 176.521 41.6582 176.469 41.672C176.419 41.6858 176.364 41.6927 176.303 41.6927C176.248 41.6927 176.194 41.683 176.142 41.6637C176.092 41.6444 176.047 41.6196 176.006 41.5893C175.964 41.5562 175.928 41.519 175.898 41.4776C175.868 41.4362 175.844 41.3935 175.828 41.3494C175.784 41.3135 175.727 41.2736 175.658 41.2294C175.592 41.1826 175.512 41.1398 175.418 41.1012C175.327 41.0626 175.223 41.0309 175.104 41.0061C174.985 40.9785 174.854 40.9647 174.711 40.9647C174.57 40.9647 174.439 40.9785 174.318 41.0061C174.199 41.0309 174.096 41.0681 174.008 41.1178C173.922 41.1674 173.855 41.2267 173.805 41.2956C173.756 41.3646 173.731 41.4418 173.731 41.5272C173.731 41.6375 173.764 41.7327 173.83 41.8126C173.899 41.8898 173.99 41.9588 174.103 42.0194C174.216 42.0774 174.347 42.1297 174.496 42.1766C174.648 42.2235 174.805 42.269 174.967 42.3131C175.191 42.3738 175.416 42.4413 175.642 42.5158C175.871 42.5902 176.076 42.6867 176.258 42.8053C176.443 42.9211 176.593 43.0686 176.709 43.2479C176.825 43.4244 176.882 43.6463 176.882 43.9138C176.882 44.1206 176.851 44.2998 176.787 44.4515C176.724 44.6032 176.64 44.7341 176.535 44.8444C176.43 44.952 176.308 45.0416 176.167 45.1133C176.029 45.1822 175.884 45.236 175.733 45.2746C175.584 45.316 175.432 45.3435 175.278 45.3573C175.123 45.3739 174.977 45.3821 174.839 45.3821C174.646 45.3821 174.46 45.3642 174.281 45.3284C174.102 45.2925 173.932 45.2443 173.772 45.1836C173.615 45.1229 173.47 45.0526 173.338 44.9727C173.208 44.8927 173.097 44.8086 173.003 44.7203C172.909 44.6321 172.836 44.5425 172.784 44.4515C172.731 44.3605 172.705 44.2736 172.705 44.1909Z" fill="white"/>
<path d="M181.722 44.9602C181.722 44.8196 181.731 44.6817 181.751 44.5466C181.773 44.4115 181.784 44.2681 181.784 44.1165C181.784 44.0034 181.782 43.8917 181.78 43.7814C181.78 43.6711 181.778 43.554 181.776 43.4299C181.776 43.3058 181.774 43.1707 181.771 43.0245C181.769 42.8756 181.765 42.7074 181.759 42.5199C181.756 42.3324 181.752 42.1201 181.747 41.883C181.741 41.6458 181.736 41.3742 181.73 41.0681C181.694 41.0736 181.653 41.0792 181.606 41.0847C181.562 41.0874 181.505 41.0888 181.436 41.0888C181.387 41.0888 181.336 41.0805 181.283 41.064C181.231 41.0474 181.184 41.0226 181.143 40.9895C181.101 40.9537 181.067 40.9082 181.039 40.8531C181.012 40.7951 180.998 40.7248 180.998 40.6421C180.998 40.4932 181.037 40.3815 181.114 40.3071C181.191 40.2299 181.285 40.1913 181.395 40.1913C181.439 40.1913 181.482 40.1968 181.523 40.2078C181.565 40.2188 181.609 40.2244 181.656 40.2244C181.766 40.2244 181.875 40.2188 181.982 40.2078C182.093 40.1968 182.208 40.1913 182.33 40.1913C182.448 40.1913 182.53 40.2285 182.574 40.3029C182.621 40.3774 182.644 40.4822 182.644 40.6173V40.7C182.862 40.518 183.092 40.3843 183.335 40.2988C183.578 40.2106 183.804 40.1665 184.013 40.1665C184.358 40.1665 184.664 40.2161 184.931 40.3154C185.199 40.4146 185.426 40.5621 185.614 40.7579C185.73 40.6642 185.851 40.5801 185.978 40.5056C186.105 40.4312 186.232 40.3691 186.358 40.3195C186.488 40.2699 186.615 40.2326 186.739 40.2078C186.863 40.1802 186.982 40.1665 187.095 40.1665C187.442 40.1665 187.758 40.2188 188.042 40.3236C188.326 40.4256 188.568 40.5773 188.77 40.7786C188.974 40.9799 189.131 41.2281 189.241 41.5231C189.352 41.8154 189.407 42.1532 189.407 42.5365C189.407 42.6578 189.398 42.7957 189.382 42.9501C189.368 43.1017 189.347 43.2589 189.32 43.4216C189.292 43.5815 189.259 43.7401 189.221 43.8973C189.182 44.0517 189.141 44.1909 189.097 44.315C189.132 44.304 189.161 44.2971 189.183 44.2943C189.205 44.2916 189.225 44.2902 189.241 44.2902C189.338 44.2902 189.415 44.3081 189.473 44.344C189.531 44.3798 189.575 44.4225 189.605 44.4722C189.638 44.5218 189.659 44.5742 189.667 44.6294C189.678 44.6817 189.684 44.7259 189.684 44.7617C189.684 44.8472 189.669 44.9175 189.638 44.9727C189.608 45.025 189.554 45.0705 189.477 45.1091C189.403 45.145 189.301 45.1781 189.171 45.2084C189.044 45.2387 188.883 45.2746 188.687 45.316C188.602 45.338 188.531 45.3559 188.476 45.3697C188.424 45.3835 188.375 45.3904 188.331 45.3904C188.243 45.3904 188.167 45.3766 188.104 45.349C188.04 45.3242 187.988 45.2911 187.947 45.2498C187.908 45.2057 187.879 45.1546 187.86 45.0967C187.841 45.0361 187.831 44.9727 187.831 44.9065C187.831 44.8348 187.85 44.7548 187.889 44.6666C187.927 44.5756 187.978 44.4942 188.042 44.4225C188.105 44.3178 188.163 44.1909 188.216 44.042C188.268 43.8904 188.312 43.7291 188.348 43.5581C188.386 43.3871 188.415 43.2134 188.435 43.0369C188.454 42.8605 188.464 42.6936 188.464 42.5365C188.464 42.3159 188.436 42.1146 188.381 41.9326C188.329 41.7506 188.244 41.5948 188.129 41.4652C188.016 41.3356 187.871 41.235 187.694 41.1633C187.521 41.0916 187.314 41.0557 187.074 41.0557C186.953 41.0557 186.844 41.0654 186.747 41.0847C186.653 41.1012 186.565 41.126 186.482 41.1591C186.403 41.1922 186.327 41.2336 186.255 41.2832C186.183 41.3328 186.112 41.3907 186.04 41.4569C186.153 41.7658 186.209 42.1256 186.209 42.5365C186.209 42.6605 186.201 42.8012 186.185 42.9583C186.168 43.1155 186.145 43.2768 186.114 43.4423C186.084 43.6077 186.045 43.7704 185.999 43.9303C185.952 44.0903 185.899 44.2364 185.841 44.3688C185.885 44.3605 185.931 44.3481 185.978 44.3315C186.025 44.3122 186.076 44.3026 186.131 44.3026C186.222 44.3026 186.295 44.3205 186.35 44.3564C186.408 44.3922 186.451 44.4363 186.478 44.4887C186.509 44.5384 186.528 44.5935 186.536 44.6542C186.547 44.7121 186.553 44.7645 186.553 44.8113C186.553 44.8996 186.535 44.9699 186.499 45.0223C186.466 45.0719 186.422 45.1119 186.367 45.1422C186.312 45.1698 186.248 45.1905 186.176 45.2043C186.105 45.2153 186.032 45.225 185.957 45.2332C185.883 45.2415 185.81 45.2512 185.738 45.2622C185.669 45.276 185.607 45.2966 185.552 45.3242C185.544 45.3297 185.524 45.3353 185.494 45.3408C185.464 45.349 185.431 45.3559 185.395 45.3614C185.362 45.3697 185.327 45.3766 185.291 45.3821C185.258 45.3876 185.232 45.3904 185.213 45.3904C185.122 45.3904 185.044 45.3739 184.981 45.3408C184.918 45.3077 184.865 45.2649 184.824 45.2125C184.785 45.1602 184.756 45.1023 184.737 45.0388C184.72 44.9754 184.712 44.9134 184.712 44.8527C184.712 44.781 184.723 44.7093 184.745 44.6376C184.767 44.5632 184.798 44.4942 184.836 44.4308C184.897 44.3205 184.953 44.1895 185.006 44.0379C185.058 43.8835 185.102 43.7222 185.138 43.554C185.177 43.383 185.207 43.2107 185.229 43.0369C185.251 42.8605 185.262 42.6936 185.262 42.5365C185.262 42.3159 185.24 42.1146 185.196 41.9326C185.155 41.7506 185.084 41.5948 184.985 41.4652C184.886 41.3356 184.755 41.235 184.592 41.1633C184.432 41.0916 184.234 41.0557 183.997 41.0557C183.762 41.0557 183.532 41.1067 183.306 41.2088C183.083 41.308 182.862 41.468 182.644 41.6886C182.644 41.8126 182.643 41.9671 182.64 42.1518C182.64 42.3338 182.64 42.5268 182.64 42.7309C182.64 42.9349 182.64 43.1376 182.64 43.3389C182.64 43.5402 182.64 43.7208 182.64 43.8807C182.643 44.0406 182.644 44.1702 182.644 44.2695C182.647 44.366 182.65 44.4101 182.652 44.4019C182.702 44.3881 182.742 44.377 182.772 44.3688C182.805 44.3577 182.832 44.3495 182.851 44.344C182.873 44.3384 182.89 44.3357 182.901 44.3357C182.912 44.3329 182.924 44.3315 182.938 44.3315C183.087 44.3315 183.2 44.3688 183.277 44.4432C183.354 44.5149 183.393 44.6211 183.393 44.7617C183.393 44.8665 183.372 44.9492 183.331 45.0099C183.289 45.0705 183.237 45.1188 183.174 45.1546C183.11 45.1905 183.038 45.2167 182.958 45.2332C182.879 45.247 182.801 45.258 182.727 45.2663C182.68 45.2718 182.632 45.2815 182.582 45.2953C182.532 45.3091 182.483 45.3228 182.433 45.3366C182.384 45.3504 182.334 45.3628 182.284 45.3739C182.235 45.3849 182.189 45.3904 182.148 45.3904C181.985 45.3904 181.873 45.3518 181.813 45.2746C181.752 45.2001 181.722 45.0954 181.722 44.9602Z" fill="white"/>
<path d="M190.747 42.7805C190.747 42.4055 190.81 42.0567 190.937 41.7341C191.064 41.4114 191.238 41.1316 191.458 40.8944C191.682 40.6573 191.942 40.4711 192.24 40.336C192.541 40.2009 192.865 40.1334 193.212 40.1334C193.388 40.1334 193.557 40.154 193.717 40.1954C193.879 40.2368 194.03 40.2919 194.167 40.3608C194.308 40.427 194.434 40.5029 194.544 40.5883C194.657 40.6738 194.753 40.7621 194.833 40.8531C194.831 40.8144 194.829 40.7731 194.829 40.729C194.829 40.6848 194.829 40.6462 194.829 40.6132C194.829 40.5442 194.839 40.4808 194.858 40.4229C194.877 40.3622 194.908 40.3098 194.949 40.2657C194.991 40.2216 195.043 40.1871 195.106 40.1623C195.17 40.1347 195.247 40.121 195.338 40.121C195.415 40.121 195.484 40.1361 195.545 40.1665C195.608 40.194 195.662 40.2299 195.706 40.274C195.75 40.3154 195.785 40.3608 195.809 40.4105C195.834 40.4574 195.847 40.5001 195.847 40.5387C195.847 40.6325 195.841 40.7276 195.83 40.8241C195.822 40.9179 195.815 41.013 195.809 41.1095C195.809 41.4128 195.807 41.6817 195.801 41.916C195.798 42.1477 195.794 42.3614 195.789 42.5571C195.783 42.6895 195.779 42.8274 195.776 42.9708C195.774 43.1114 195.772 43.241 195.772 43.3596C195.772 43.627 195.772 43.8393 195.772 43.9965C195.772 44.1537 195.779 44.2681 195.793 44.3398C195.818 44.3343 195.854 44.3219 195.9 44.3026C195.95 44.2833 195.996 44.2626 196.037 44.2406C196.076 44.2268 196.114 44.213 196.153 44.1992C196.191 44.1854 196.24 44.1785 196.298 44.1785C196.364 44.1785 196.422 44.1937 196.471 44.224C196.521 44.2516 196.562 44.2888 196.595 44.3357C196.631 44.3798 196.657 44.4308 196.674 44.4887C196.69 44.5439 196.699 44.5976 196.699 44.65C196.699 44.7245 196.681 44.8003 196.645 44.8775C196.609 44.952 196.543 45.0057 196.446 45.0388C196.364 45.0692 196.28 45.1009 196.194 45.134C196.109 45.1671 196.022 45.1974 195.934 45.225C195.848 45.2525 195.761 45.276 195.673 45.2953C195.588 45.3146 195.499 45.3242 195.408 45.3242C195.301 45.3242 195.212 45.3022 195.144 45.258C195.075 45.2139 195.021 45.1574 194.982 45.0885C194.944 45.0168 194.916 44.9382 194.9 44.8527C194.883 44.7672 194.873 44.6831 194.871 44.6004C194.785 44.7079 194.682 44.8086 194.56 44.9023C194.439 44.9961 194.305 45.0788 194.159 45.1505C194.013 45.2222 193.856 45.2787 193.688 45.3201C193.522 45.3614 193.351 45.3821 193.175 45.3821C192.816 45.3821 192.488 45.3173 192.19 45.1877C191.893 45.0554 191.636 44.8734 191.421 44.6418C191.209 44.4074 191.043 44.1316 190.925 43.8145C190.806 43.4974 190.747 43.1527 190.747 42.7805ZM191.698 42.7805C191.698 43.0038 191.731 43.2189 191.797 43.4257C191.866 43.6325 191.964 43.8159 192.091 43.9758C192.221 44.133 192.379 44.2585 192.567 44.3522C192.754 44.446 192.967 44.4929 193.204 44.4929C193.438 44.4929 193.65 44.4474 193.841 44.3564C194.031 44.2654 194.196 44.1468 194.337 44.0007C194.48 43.8545 194.598 43.6918 194.689 43.5126C194.78 43.3306 194.842 43.1486 194.875 42.9666V42.6026C194.844 42.4344 194.786 42.2566 194.701 42.0691C194.618 41.8816 194.508 41.7092 194.37 41.5521C194.235 41.3921 194.072 41.2612 193.882 41.1591C193.692 41.0543 193.477 41.002 193.237 41.002C193.011 41.002 192.804 41.0488 192.616 41.1426C192.429 41.2336 192.266 41.3604 192.128 41.5231C191.993 41.683 191.887 41.8705 191.81 42.0856C191.735 42.3007 191.698 42.5323 191.698 42.7805Z" fill="white"/>
<path d="M198.862 39.5626C198.796 39.5929 198.727 39.6081 198.655 39.6081C198.583 39.6053 198.517 39.5901 198.457 39.5626C198.399 39.5322 198.348 39.4895 198.304 39.4344C198.259 39.3792 198.232 39.313 198.221 39.2358C198.213 39.1834 198.214 39.1241 198.225 39.058C198.239 38.989 198.255 38.9201 198.275 38.8512C198.297 38.7795 198.316 38.7105 198.333 38.6443C198.352 38.5754 198.364 38.5134 198.37 38.4582C198.378 38.3341 198.415 38.2307 198.481 38.148C198.548 38.0653 198.647 38.0143 198.779 37.995C198.876 37.9784 198.967 37.9839 199.052 38.0115C199.138 38.0391 199.201 38.0998 199.242 38.1935C199.256 38.2238 199.267 38.2597 199.276 38.301C199.287 38.3397 199.295 38.3741 199.3 38.4045C199.303 38.432 199.302 38.4665 199.296 38.5079C199.293 38.5492 199.287 38.5933 199.276 38.6402C199.265 38.6843 199.251 38.7298 199.234 38.7767C199.22 38.8208 199.207 38.8594 199.193 38.8925C199.171 38.9394 199.156 38.9904 199.147 39.0456C199.142 39.0979 199.135 39.1462 199.127 39.1903C199.118 39.2344 199.11 39.2744 199.102 39.3103C199.094 39.3461 199.08 39.3792 199.06 39.4095C199.044 39.4399 199.019 39.4674 198.986 39.4923C198.956 39.5171 198.914 39.5405 198.862 39.5626ZM198.155 44.952C198.155 44.883 198.157 44.8251 198.163 44.7783C198.171 44.7314 198.178 44.6804 198.184 44.6252C198.192 44.5673 198.199 44.4998 198.204 44.4225C198.213 44.3453 198.217 44.2406 198.217 44.1082C198.217 43.6146 198.215 43.1252 198.213 42.6399C198.21 42.1518 198.203 41.6362 198.192 41.0929C198.151 41.0957 198.104 41.0985 198.051 41.1012C197.999 41.104 197.944 41.1067 197.886 41.1095C197.831 41.1095 197.777 41.1109 197.725 41.1136C197.672 41.1136 197.625 41.1136 197.584 41.1136C197.534 41.1136 197.483 41.1067 197.431 41.0929C197.381 41.0764 197.336 41.0502 197.294 41.0144C197.253 40.9785 197.219 40.933 197.191 40.8779C197.163 40.82 197.15 40.7496 197.15 40.6669C197.15 40.5208 197.188 40.4105 197.265 40.336C197.345 40.2588 197.439 40.2202 197.547 40.2202C197.651 40.2202 197.755 40.2257 197.857 40.2368C197.962 40.245 198.064 40.2492 198.163 40.2492C198.265 40.2492 198.367 40.245 198.469 40.2368C198.571 40.2257 198.668 40.2202 198.759 40.2202C198.899 40.2202 199 40.2574 199.06 40.3319C199.121 40.4063 199.151 40.5098 199.151 40.6421C199.151 40.7552 199.142 40.8668 199.123 40.9771C199.103 41.0847 199.094 41.2005 199.094 41.3246C199.094 41.5727 199.092 41.8223 199.089 42.0732C199.087 42.3241 199.084 42.5792 199.081 42.8384C199.081 43.0976 199.08 43.3623 199.077 43.6325C199.077 43.9028 199.08 44.1813 199.085 44.468C199.129 44.4653 199.169 44.4584 199.205 44.4474C199.241 44.4363 199.276 44.4253 199.309 44.4143C199.342 44.4005 199.376 44.3895 199.412 44.3812C199.451 44.3702 199.493 44.3646 199.54 44.3646C199.612 44.3646 199.67 44.3729 199.714 44.3895C199.761 44.406 199.798 44.4294 199.826 44.4598C199.853 44.4873 199.874 44.5232 199.888 44.5673C199.902 44.6087 199.914 44.6542 199.925 44.7038C199.944 44.8334 199.913 44.9368 199.83 45.014C199.747 45.0912 199.634 45.1519 199.491 45.196C199.408 45.2181 199.322 45.2401 199.234 45.2622C199.149 45.2842 199.067 45.3035 198.99 45.3201C198.913 45.3394 198.843 45.3546 198.779 45.3656C198.716 45.3766 198.666 45.3821 198.63 45.3821C198.468 45.3821 198.348 45.3435 198.27 45.2663C198.193 45.1919 198.155 45.0871 198.155 44.952Z" fill="white"/>
<path d="M200.822 44.1909C200.822 44.1275 200.838 44.0696 200.868 44.0172C200.898 43.9648 200.936 43.9207 200.98 43.8848C201.027 43.8462 201.078 43.8173 201.133 43.798C201.188 43.7759 201.242 43.7649 201.294 43.7649C201.357 43.7649 201.411 43.7718 201.455 43.7856C201.499 43.7994 201.538 43.8187 201.571 43.8435C201.604 43.8683 201.633 43.8973 201.658 43.9303C201.683 43.9634 201.709 43.9993 201.737 44.0379C201.847 44.2033 202.008 44.3315 202.221 44.4225C202.433 44.5108 202.71 44.5549 203.052 44.5549C203.192 44.5549 203.325 44.5425 203.449 44.5177C203.576 44.4929 203.686 44.4556 203.78 44.406C203.876 44.3564 203.952 44.2957 204.007 44.224C204.065 44.1523 204.094 44.0696 204.094 43.9758C204.094 43.849 204.057 43.7415 203.983 43.6532C203.911 43.565 203.814 43.4892 203.693 43.4257C203.574 43.3623 203.439 43.3085 203.288 43.2644C203.136 43.2203 202.98 43.1776 202.82 43.1362C202.674 43.1004 202.527 43.0618 202.378 43.0204C202.229 42.9763 202.084 42.9266 201.943 42.8715C201.803 42.8136 201.67 42.746 201.546 42.6688C201.425 42.5889 201.319 42.4951 201.228 42.3876C201.137 42.28 201.064 42.1559 201.009 42.0153C200.956 41.8719 200.93 41.7079 200.93 41.5231C200.93 41.2749 200.988 41.0654 201.104 40.8944C201.222 40.7207 201.374 40.5801 201.559 40.4725C201.746 40.365 201.954 40.2878 202.183 40.2409C202.412 40.1913 202.637 40.1665 202.857 40.1665C202.984 40.1665 203.1 40.1733 203.205 40.1871C203.31 40.2009 203.408 40.2188 203.499 40.2409C203.59 40.263 203.676 40.2905 203.759 40.3236C203.842 40.354 203.925 40.3857 204.007 40.4188C204.018 40.3774 204.035 40.336 204.057 40.2947C204.082 40.2506 204.111 40.2119 204.144 40.1789C204.177 40.143 204.216 40.1141 204.26 40.092C204.304 40.0699 204.353 40.0589 204.409 40.0589C204.544 40.0589 204.648 40.0851 204.723 40.1375C204.797 40.1899 204.835 40.2823 204.835 40.4146C204.835 40.5194 204.83 40.6283 204.822 40.7414C204.814 40.8544 204.81 40.9785 204.81 41.1136C204.824 41.1467 204.833 41.1839 204.839 41.2253C204.844 41.2639 204.847 41.2984 204.847 41.3287C204.847 41.3949 204.836 41.4514 204.814 41.4983C204.792 41.5424 204.761 41.5796 204.723 41.61C204.684 41.6375 204.639 41.6582 204.586 41.672C204.537 41.6858 204.482 41.6927 204.421 41.6927C204.366 41.6927 204.312 41.683 204.26 41.6637C204.21 41.6444 204.164 41.6196 204.123 41.5893C204.082 41.5562 204.046 41.519 204.016 41.4776C203.985 41.4362 203.962 41.3935 203.945 41.3494C203.901 41.3135 203.845 41.2736 203.776 41.2294C203.71 41.1826 203.63 41.1398 203.536 41.1012C203.445 41.0626 203.34 41.0309 203.221 41.0061C203.103 40.9785 202.972 40.9647 202.829 40.9647C202.688 40.9647 202.557 40.9785 202.436 41.0061C202.317 41.0309 202.214 41.0681 202.125 41.1178C202.04 41.1674 201.972 41.2267 201.923 41.2956C201.873 41.3646 201.848 41.4418 201.848 41.5272C201.848 41.6375 201.881 41.7327 201.948 41.8126C202.016 41.8898 202.107 41.9588 202.221 42.0194C202.334 42.0774 202.465 42.1297 202.613 42.1766C202.765 42.2235 202.922 42.269 203.085 42.3131C203.308 42.3738 203.533 42.4413 203.759 42.5158C203.988 42.5902 204.193 42.6867 204.375 42.8053C204.56 42.9211 204.71 43.0686 204.826 43.2479C204.942 43.4244 205 43.6463 205 43.9138C205 44.1206 204.968 44.2998 204.905 44.4515C204.841 44.6032 204.757 44.7341 204.653 44.8444C204.548 44.952 204.425 45.0416 204.284 45.1133C204.147 45.1822 204.002 45.236 203.85 45.2746C203.701 45.316 203.55 45.3435 203.395 45.3573C203.241 45.3739 203.095 45.3821 202.957 45.3821C202.764 45.3821 202.578 45.3642 202.398 45.3284C202.219 45.2925 202.05 45.2443 201.89 45.1836C201.732 45.1229 201.588 45.0526 201.455 44.9727C201.326 44.8927 201.214 44.8086 201.12 44.7203C201.027 44.6321 200.953 44.5425 200.901 44.4515C200.849 44.3605 200.822 44.2736 200.822 44.1909Z" fill="white"/>
</svg>
