<?xml version="1.0" standalone="no"?>
<!DOCTYPE svg PUBLIC "-//W3C//DTD SVG 20010904//EN"
 "http://www.w3.org/TR/2001/REC-SVG-20010904/DTD/svg10.dtd">
<svg version="1.0" xmlns="http://www.w3.org/2000/svg"
 width="326.000000pt" height="326.000000pt" viewBox="0 0 326.000000 326.000000"
 preserveAspectRatio="xMidYMid meet">
<metadata>
Created by potrace 1.11, written by Peter Selinger 2001-2013
</metadata>
<g transform="translate(0.000000,326.000000) scale(0.100000,-0.100000)"
fill="#000000" stroke="none">
<path d="M369 3247 c-243 -69 -348 -354 -206 -560 142 -205 449 -211 596 -13
141 190 76 449 -137 549 -75 35 -178 45 -253 24z m197 -192 c45 -29 72 -67 84
-118 15 -61 7 -104 -29 -154 -77 -106 -239 -104 -311 5 -16 25 -30 53 -31 61
0 9 -2 24 -4 34 -2 10 3 40 10 66 35 115 182 171 281 106z"/>
<path d="M1832 2549 c-90 -26 -187 -110 -228 -198 -51 -107 -43 -250 21 -351
33 -52 100 -109 164 -139 49 -23 69 -26 151 -25 83 0 102 4 153 28 213 105
278 364 137 552 -45 60 -114 109 -184 129 -55 17 -163 18 -214 4z m193 -184
c79 -38 119 -136 92 -227 -51 -166 -283 -177 -356 -16 -9 20 -16 49 -15 65 1
15 2 37 3 48 0 12 13 40 28 63 53 81 158 109 248 67z"/>
<path d="M420 2376 c-143 -42 -233 -116 -295 -241 -55 -110 -61 -164 -64 -598
l-2 -388 30 -29 c25 -25 35 -29 66 -25 70 9 83 40 83 200 0 668 3 708 64 795
39 54 49 63 114 96 55 27 135 35 204 19 60 -13 153 -63 201 -107 92 -85 232
-213 251 -229 10 -9 57 -52 105 -95 47 -44 95 -86 105 -96 23 -19 186 -168
202 -184 55 -53 146 -10 148 68 1 35 -11 47 -287 298 -93 84 -195 176 -226
204 -162 149 -225 203 -256 224 -47 32 -134 72 -191 87 -64 16 -197 17 -252 1z"/>
<path d="M493 1900 c-52 -21 -50 1 -51 -935 0 -519 3 -882 9 -901 15 -49 44
-58 192 -59 153 0 177 5 200 44 21 36 21 54 2 91 -18 34 -54 44 -157 43 l-68
-1 0 835 0 835 -29 29 c-30 29 -58 35 -98 19z"/>
<path d="M1922 1675 c-54 -23 -61 -63 -37 -220 2 -16 9 -73 15 -125 17 -149
20 -173 25 -200 2 -14 7 -52 10 -85 3 -33 8 -73 11 -90 2 -16 6 -47 9 -69 7
-58 13 -73 41 -90 21 -14 66 -17 324 -18 164 -1 303 -4 308 -7 5 -3 26 -67 47
-141 20 -74 45 -162 55 -195 9 -33 37 -132 61 -219 27 -99 51 -169 65 -185 20
-23 25 -24 145 -24 68 0 136 3 151 6 30 8 58 51 58 90 0 34 -46 77 -84 78 -17
1 -56 2 -86 3 l-55 1 -17 55 c-9 30 -53 188 -98 350 -45 162 -86 305 -92 316
-22 45 -41 48 -356 48 l-297 1 -17 130 c-9 72 -19 157 -22 190 -4 34 -8 70
-10 82 -3 12 -8 51 -11 87 -11 107 -31 119 407 -237 87 -70 168 -131 180 -136
36 -12 174 -7 202 9 35 18 50 73 30 111 -20 39 -43 49 -112 49 l-60 0 -197
161 c-265 215 -303 243 -354 263 -56 22 -197 28 -239 11z"/>
<path d="M1635 1371 c-164 -75 -307 -246 -367 -441 -19 -63 -23 -96 -22 -205
0 -113 4 -140 27 -210 83 -249 290 -435 545 -490 87 -18 257 -13 337 10 138
40 246 106 342 208 71 76 134 182 135 227 1 45 -40 84 -87 83 -45 -1 -55 -10
-104 -93 -185 -311 -608 -365 -862 -111 -170 170 -209 413 -102 625 43 84 111
160 186 208 38 24 77 52 88 62 35 36 19 114 -28 135 -32 15 -41 14 -88 -8z"/>
</g>
</svg>
