<svg width="74" height="73" viewBox="0 0 74 73" fill="none" xmlns="http://www.w3.org/2000/svg">
<path d="M16.045 64.556C22.331 69.17 30.281 71.815 37.934 71.815C57.734 71.815 73.842 55.707 73.842 35.908C73.842 16.109 57.734 0 37.934 0C18.134 0 2.026 16.108 2.026 35.907C2.026 41.903 3.774 47.864 7.195 53.658C6.819 53.586 6.437 53.536 6.047 53.536C4.433 53.536 2.914 54.165 1.771 55.307C-0.591 57.67 -0.59 61.515 1.772 63.876L8.83 71.939C8.925 72.047 9.062 72.11 9.206 72.11C9.35 72.11 9.487 72.048 9.582 71.939L16.045 64.556ZM8.718 56.049L8.906 56.19C9.085 56.324 9.329 56.323 9.506 56.189L9.693 56.048C10.469 55.465 11.393 55.156 12.363 55.156C13.546 55.156 14.656 55.617 15.491 56.453C16.331 57.292 16.793 58.407 16.793 59.592C16.793 60.778 16.331 61.891 15.492 62.729L9.205 69.908L2.954 62.768C2.947 62.759 2.939 62.751 2.932 62.744C1.195 61.007 1.188 58.185 2.918 56.454C4.439 54.931 6.997 54.753 8.718 56.049ZM37.934 69.814C30.852 69.814 23.203 67.282 17.346 63.028C18.034 62.038 18.414 60.847 18.414 59.592C18.414 57.974 17.784 56.451 16.639 55.307C15.497 54.165 13.978 53.536 12.364 53.536C11.488 53.536 10.614 53.739 9.818 54.106C5.983 48.161 4.027 42.042 4.027 35.907C4.027 17.211 19.238 2 37.935 2C56.632 2 71.842 17.211 71.842 35.907C71.842 54.603 56.631 69.814 37.934 69.814Z" fill="white"/>
<path d="M16.1929 34.907C16.7449 34.907 17.1929 35.354 17.1929 35.907C17.1929 47.344 26.4969 56.648 37.9339 56.648C49.3709 56.648 58.6749 47.343 58.6749 35.907C58.6749 35.354 59.1229 34.907 59.6749 34.907C60.2269 34.907 60.6749 35.354 60.6749 35.907C60.6749 48.446 50.4729 58.648 37.9339 58.648C25.3949 58.648 15.1929 48.446 15.1929 35.907C15.1929 35.354 15.6409 34.907 16.1929 34.907Z" fill="white"/>
<path d="M47.812 23.324C49.0547 23.324 50.062 22.3166 50.062 21.074C50.062 19.8313 49.0547 18.824 47.812 18.824C46.5694 18.824 45.562 19.8313 45.562 21.074C45.562 22.3166 46.5694 23.324 47.812 23.324Z" fill="white"/>
<path d="M28.0552 23.324C29.2978 23.324 30.3052 22.3166 30.3052 21.074C30.3052 19.8313 29.2978 18.824 28.0552 18.824C26.8125 18.824 25.8052 19.8313 25.8052 21.074C25.8052 22.3166 26.8125 23.324 28.0552 23.324Z" fill="white"/>
</svg>
