<svg width="197" height="197" viewBox="0 0 197 197" fill="none" xmlns="http://www.w3.org/2000/svg">
<rect x="1.5" y="1.5" width="194" height="194" rx="3.5" stroke="white" stroke-width="3"/>
<path d="M56.352 171.64L59.424 180.232L62.464 171.64H64.784L60.352 183H58.496L54.032 171.64H56.352ZM68.6293 183.16C67.9466 183.16 67.3333 183.043 66.7893 182.808C66.2453 182.573 65.7813 182.259 65.3973 181.864C65.0239 181.459 64.7359 180.995 64.5333 180.472C64.3306 179.949 64.2293 179.4 64.2293 178.824C64.2293 178.237 64.3306 177.683 64.5333 177.16C64.7359 176.637 65.0239 176.179 65.3973 175.784C65.7813 175.379 66.2453 175.059 66.7893 174.824C67.3333 174.589 67.9466 174.472 68.6293 174.472C69.3119 174.472 69.9199 174.589 70.4533 174.824C70.9973 175.059 71.4559 175.379 71.8293 175.784C72.2133 176.179 72.5066 176.637 72.7093 177.16C72.9119 177.683 73.0133 178.237 73.0133 178.824C73.0133 179.4 72.9119 179.949 72.7093 180.472C72.5066 180.995 72.2186 181.459 71.8453 181.864C71.4719 182.259 71.0133 182.573 70.4693 182.808C69.9253 183.043 69.3119 183.16 68.6293 183.16ZM66.4373 178.824C66.4373 179.197 66.4906 179.539 66.5973 179.848C66.7146 180.147 66.8693 180.408 67.0613 180.632C67.2639 180.856 67.4986 181.032 67.7653 181.16C68.0319 181.277 68.3199 181.336 68.6293 181.336C68.9386 181.336 69.2266 181.277 69.4933 181.16C69.7599 181.032 69.9893 180.856 70.1813 180.632C70.3839 180.408 70.5386 180.141 70.6453 179.832C70.7626 179.523 70.8213 179.181 70.8213 178.808C70.8213 178.445 70.7626 178.109 70.6453 177.8C70.5386 177.491 70.3839 177.224 70.1813 177C69.9893 176.776 69.7599 176.605 69.4933 176.488C69.2266 176.36 68.9386 176.296 68.6293 176.296C68.3199 176.296 68.0319 176.36 67.7653 176.488C67.4986 176.616 67.2639 176.792 67.0613 177.016C66.8693 177.24 66.7146 177.507 66.5973 177.816C66.4906 178.125 66.4373 178.461 66.4373 178.824ZM74.4444 171.32H76.5884V180.312C76.5884 180.621 76.663 180.861 76.8124 181.032C76.9617 181.203 77.175 181.288 77.4524 181.288C77.5804 181.288 77.719 181.267 77.8684 181.224C78.0284 181.181 78.1777 181.128 78.3164 181.064L78.6044 182.696C78.3164 182.835 77.9804 182.941 77.5964 183.016C77.2124 183.091 76.8657 183.128 76.5564 183.128C75.8844 183.128 75.3617 182.952 74.9884 182.6C74.6257 182.237 74.4444 181.725 74.4444 181.064V171.32ZM82.0985 183.16C81.2345 183.16 80.5785 182.883 80.1305 182.328C79.6825 181.773 79.4585 180.952 79.4585 179.864V174.616H81.6025V179.4C81.6025 180.691 82.0665 181.336 82.9945 181.336C83.4105 181.336 83.8105 181.213 84.1945 180.968C84.5892 180.712 84.9092 180.328 85.1545 179.816V174.616H87.2985V180.536C87.2985 180.76 87.3358 180.92 87.4105 181.016C87.4958 181.112 87.6292 181.165 87.8105 181.176V183C87.5972 183.043 87.4158 183.069 87.2665 183.08C87.1278 183.091 86.9998 183.096 86.8825 183.096C86.4985 183.096 86.1838 183.011 85.9385 182.84C85.7038 182.659 85.5652 182.413 85.5225 182.104L85.4745 181.432C85.1012 182.008 84.6212 182.44 84.0345 182.728C83.4478 183.016 82.8025 183.16 82.0985 183.16ZM97.2211 183H95.0771V178.296C95.0771 177.624 94.9598 177.133 94.7251 176.824C94.4905 176.515 94.1651 176.36 93.7491 176.36C93.5358 176.36 93.3171 176.403 93.0931 176.488C92.8691 176.573 92.6558 176.696 92.4531 176.856C92.2611 177.005 92.0851 177.187 91.9251 177.4C91.7651 177.613 91.6478 177.848 91.5731 178.104V183H89.4291V174.616H91.3651V176.168C91.6745 175.635 92.1225 175.219 92.7091 174.92C93.2958 174.621 93.9571 174.472 94.6931 174.472C95.2158 174.472 95.6425 174.568 95.9731 174.76C96.3038 174.952 96.5598 175.203 96.7411 175.512C96.9225 175.821 97.0451 176.173 97.1091 176.568C97.1838 176.963 97.2211 177.363 97.2211 177.768V183ZM104.031 182.568C103.743 182.696 103.391 182.824 102.975 182.952C102.559 183.08 102.122 183.144 101.663 183.144C101.365 183.144 101.082 183.107 100.815 183.032C100.559 182.957 100.33 182.84 100.127 182.68C99.9353 182.509 99.7806 182.296 99.6633 182.04C99.5459 181.773 99.4873 181.453 99.4873 181.08V176.264H98.3833V174.616H99.4873V171.896H101.631V174.616H103.391V176.264H101.631V180.36C101.631 180.659 101.706 180.872 101.855 181C102.015 181.117 102.207 181.176 102.431 181.176C102.655 181.176 102.874 181.139 103.087 181.064C103.301 180.989 103.471 180.925 103.599 180.872L104.031 182.568ZM107.436 183.16C107.031 183.16 106.652 183.096 106.3 182.968C105.948 182.829 105.644 182.643 105.388 182.408C105.132 182.163 104.929 181.88 104.78 181.56C104.641 181.24 104.572 180.888 104.572 180.504C104.572 180.109 104.657 179.747 104.828 179.416C105.009 179.075 105.255 178.787 105.564 178.552C105.884 178.317 106.263 178.136 106.7 178.008C107.137 177.869 107.617 177.8 108.14 177.8C108.513 177.8 108.876 177.832 109.228 177.896C109.591 177.96 109.911 178.051 110.188 178.168V177.688C110.188 177.133 110.028 176.707 109.708 176.408C109.399 176.109 108.935 175.96 108.316 175.96C107.868 175.96 107.431 176.04 107.004 176.2C106.577 176.36 106.14 176.595 105.692 176.904L105.036 175.544C106.113 174.829 107.276 174.472 108.524 174.472C109.729 174.472 110.663 174.771 111.324 175.368C111.996 175.955 112.332 176.808 112.332 177.928V180.536C112.332 180.76 112.369 180.92 112.444 181.016C112.529 181.112 112.663 181.165 112.844 181.176V183C112.481 183.075 112.167 183.112 111.9 183.112C111.495 183.112 111.18 183.021 110.956 182.84C110.743 182.659 110.609 182.419 110.556 182.12L110.508 181.656C110.135 182.147 109.681 182.52 109.148 182.776C108.615 183.032 108.044 183.16 107.436 183.16ZM108.044 181.592C108.407 181.592 108.748 181.528 109.068 181.4C109.399 181.272 109.655 181.101 109.836 180.888C110.071 180.707 110.188 180.504 110.188 180.28V179.32C109.932 179.224 109.655 179.149 109.356 179.096C109.057 179.032 108.769 179 108.492 179C107.937 179 107.484 179.128 107.132 179.384C106.78 179.629 106.604 179.944 106.604 180.328C106.604 180.691 106.743 180.995 107.02 181.24C107.297 181.475 107.639 181.592 108.044 181.592ZM119.327 176.472C118.677 176.483 118.095 176.611 117.583 176.856C117.071 177.091 116.703 177.448 116.479 177.928V183H114.335V174.616H116.303V176.408C116.453 176.12 116.629 175.864 116.831 175.64C117.034 175.405 117.253 175.203 117.487 175.032C117.722 174.861 117.957 174.733 118.191 174.648C118.437 174.552 118.671 174.504 118.895 174.504C119.013 174.504 119.098 174.504 119.151 174.504C119.215 174.504 119.274 174.509 119.327 174.52V176.472ZM120.523 183V174.616H122.667V183H120.523ZM120.523 173.448V171.32H122.667V173.448H120.523ZM126.889 183.16C126.484 183.16 126.105 183.096 125.753 182.968C125.401 182.829 125.097 182.643 124.841 182.408C124.585 182.163 124.382 181.88 124.233 181.56C124.094 181.24 124.025 180.888 124.025 180.504C124.025 180.109 124.11 179.747 124.281 179.416C124.462 179.075 124.708 178.787 125.017 178.552C125.337 178.317 125.716 178.136 126.153 178.008C126.59 177.869 127.07 177.8 127.593 177.8C127.966 177.8 128.329 177.832 128.681 177.896C129.044 177.96 129.364 178.051 129.641 178.168V177.688C129.641 177.133 129.481 176.707 129.161 176.408C128.852 176.109 128.388 175.96 127.769 175.96C127.321 175.96 126.884 176.04 126.457 176.2C126.03 176.36 125.593 176.595 125.145 176.904L124.489 175.544C125.566 174.829 126.729 174.472 127.977 174.472C129.182 174.472 130.116 174.771 130.777 175.368C131.449 175.955 131.785 176.808 131.785 177.928V180.536C131.785 180.76 131.822 180.92 131.897 181.016C131.982 181.112 132.116 181.165 132.297 181.176V183C131.934 183.075 131.62 183.112 131.353 183.112C130.948 183.112 130.633 183.021 130.409 182.84C130.196 182.659 130.062 182.419 130.009 182.12L129.961 181.656C129.588 182.147 129.134 182.52 128.601 182.776C128.068 183.032 127.497 183.16 126.889 183.16ZM127.497 181.592C127.86 181.592 128.201 181.528 128.521 181.4C128.852 181.272 129.108 181.101 129.289 180.888C129.524 180.707 129.641 180.504 129.641 180.28V179.32C129.385 179.224 129.108 179.149 128.809 179.096C128.51 179.032 128.222 179 127.945 179C127.39 179 126.937 179.128 126.585 179.384C126.233 179.629 126.057 179.944 126.057 180.328C126.057 180.691 126.196 180.995 126.473 181.24C126.75 181.475 127.092 181.592 127.497 181.592ZM137.261 183.16C136.685 183.16 136.151 183.048 135.661 182.824C135.17 182.6 134.749 182.291 134.397 181.896C134.045 181.501 133.767 181.043 133.565 180.52C133.373 179.987 133.277 179.416 133.277 178.808C133.277 178.2 133.367 177.635 133.549 177.112C133.741 176.589 134.002 176.131 134.333 175.736C134.663 175.341 135.058 175.032 135.517 174.808C135.975 174.584 136.477 174.472 137.021 174.472C137.639 174.472 138.194 174.621 138.685 174.92C139.186 175.219 139.575 175.608 139.853 176.088V171.32H141.997V180.536C141.997 180.76 142.034 180.92 142.109 181.016C142.183 181.112 142.311 181.165 142.493 181.176V183C142.119 183.075 141.815 183.112 141.581 183.112C141.197 183.112 140.882 183.016 140.637 182.824C140.391 182.632 140.253 182.381 140.221 182.072L140.173 181.544C139.863 182.077 139.442 182.483 138.909 182.76C138.386 183.027 137.837 183.16 137.261 183.16ZM137.821 181.336C138.023 181.336 138.231 181.304 138.445 181.24C138.658 181.165 138.855 181.064 139.037 180.936C139.218 180.808 139.378 180.659 139.517 180.488C139.666 180.317 139.778 180.131 139.853 179.928V177.928C139.767 177.693 139.645 177.48 139.485 177.288C139.335 177.085 139.159 176.915 138.957 176.776C138.765 176.627 138.557 176.509 138.333 176.424C138.119 176.339 137.906 176.296 137.693 176.296C137.373 176.296 137.074 176.365 136.797 176.504C136.53 176.643 136.301 176.835 136.109 177.08C135.917 177.315 135.767 177.587 135.661 177.896C135.554 178.205 135.501 178.525 135.501 178.856C135.501 179.208 135.559 179.533 135.677 179.832C135.794 180.131 135.954 180.392 136.157 180.616C136.359 180.84 136.599 181.016 136.877 181.144C137.165 181.272 137.479 181.336 137.821 181.336ZM147.973 183.16C147.29 183.16 146.677 183.043 146.133 182.808C145.589 182.573 145.125 182.259 144.741 181.864C144.368 181.459 144.08 180.995 143.877 180.472C143.674 179.949 143.573 179.4 143.573 178.824C143.573 178.237 143.674 177.683 143.877 177.16C144.08 176.637 144.368 176.179 144.741 175.784C145.125 175.379 145.589 175.059 146.133 174.824C146.677 174.589 147.29 174.472 147.973 174.472C148.656 174.472 149.264 174.589 149.797 174.824C150.341 175.059 150.8 175.379 151.173 175.784C151.557 176.179 151.85 176.637 152.053 177.16C152.256 177.683 152.357 178.237 152.357 178.824C152.357 179.4 152.256 179.949 152.053 180.472C151.85 180.995 151.562 181.459 151.189 181.864C150.816 182.259 150.357 182.573 149.813 182.808C149.269 183.043 148.656 183.16 147.973 183.16ZM145.781 178.824C145.781 179.197 145.834 179.539 145.941 179.848C146.058 180.147 146.213 180.408 146.405 180.632C146.608 180.856 146.842 181.032 147.109 181.16C147.376 181.277 147.664 181.336 147.973 181.336C148.282 181.336 148.57 181.277 148.837 181.16C149.104 181.032 149.333 180.856 149.525 180.632C149.728 180.408 149.882 180.141 149.989 179.832C150.106 179.523 150.165 179.181 150.165 178.808C150.165 178.445 150.106 178.109 149.989 177.8C149.882 177.491 149.728 177.224 149.525 177C149.333 176.776 149.104 176.605 148.837 176.488C148.57 176.36 148.282 176.296 147.973 176.296C147.664 176.296 147.376 176.36 147.109 176.488C146.842 176.616 146.608 176.792 146.405 177.016C146.213 177.24 146.058 177.507 145.941 177.816C145.834 178.125 145.781 178.461 145.781 178.824Z" fill="white"/>
</svg>
